<svg id="svg" version="1.1" xmlns="http://www.w3.org/2000/svg" xmlns:xlink="http://www.w3.org/1999/xlink" width="400" height="400" viewBox="0, 0, 400,400"><g id="svgg"><path id="path0" d="M168.700 25.232 C 168.315 25.456,168.000 25.538,168.000 25.414 C 168.000 25.290,166.881 25.753,165.514 26.443 C 162.813 27.807,158.400 32.044,158.400 33.274 C 158.400 33.673,158.220 34.000,158.000 34.000 C 157.780 34.000,157.600 34.360,157.600 34.800 C 157.600 35.240,157.420 35.600,157.200 35.600 C 156.980 35.600,156.800 36.241,156.800 37.024 C 156.800 37.871,156.638 38.347,156.400 38.200 C 156.136 38.037,156.000 43.529,156.000 54.376 C 156.000 65.059,156.140 70.800,156.400 70.800 C 156.620 70.800,156.800 71.051,156.800 71.359 C 156.800 74.221,164.068 75.833,167.942 73.830 C 172.983 71.223,177.106 62.961,173.706 62.281 C 168.287 61.197,167.299 53.695,172.208 50.915 C 174.675 49.518,174.800 49.617,174.800 52.976 C 174.800 56.309,175.079 56.702,176.924 55.974 C 179.559 54.935,181.200 52.701,181.200 50.155 C 181.200 44.847,183.604 43.830,196.500 43.681 L 206.800 43.562 206.800 40.781 C 206.800 39.194,206.628 38.000,206.400 38.000 C 206.180 38.000,206.000 37.460,206.000 36.800 C 206.000 36.140,205.820 35.600,205.600 35.600 C 205.380 35.600,205.200 35.240,205.200 34.800 C 205.200 34.360,205.020 34.000,204.800 34.000 C 204.580 34.000,204.400 33.739,204.400 33.419 C 204.400 32.663,198.537 26.800,197.781 26.800 C 197.461 26.800,197.200 26.660,197.200 26.489 C 197.200 25.011,171.059 23.858,168.700 25.232 M345.000 137.600 C 344.864 137.820,344.403 138.000,343.976 138.000 C 343.549 138.000,343.200 138.180,343.200 138.400 C 343.200 138.620,343.016 138.800,342.791 138.800 C 342.274 138.800,340.485 140.492,331.794 149.200 C 327.952 153.050,324.311 156.697,323.704 157.304 C 316.024 164.984,308.306 172.400,307.993 172.400 C 307.777 172.400,307.600 172.580,307.600 172.800 C 307.600 173.020,307.240 173.200,306.800 173.200 C 306.360 173.200,306.000 173.380,306.000 173.600 C 306.000 173.820,305.100 174.000,304.000 174.000 C 302.900 174.000,302.000 174.180,302.000 174.400 C 302.000 174.620,301.547 174.800,300.994 174.800 L 299.989 174.800 300.094 187.500 L 300.200 200.200 305.300 200.312 C 308.604 200.384,310.400 200.279,310.400 200.012 C 310.400 199.785,311.120 199.600,312.000 199.600 C 312.880 199.600,313.600 199.420,313.600 199.200 C 313.600 198.980,314.039 198.800,314.576 198.800 C 315.113 198.800,315.664 198.620,315.800 198.400 C 315.936 198.180,316.397 198.000,316.824 198.000 C 317.251 198.000,317.600 197.820,317.600 197.600 C 317.600 197.380,317.960 197.200,318.400 197.200 C 318.840 197.200,319.200 197.020,319.200 196.800 C 319.200 196.580,319.560 196.400,320.000 196.400 C 320.440 196.400,320.800 196.220,320.800 196.000 C 320.800 195.780,321.160 195.600,321.600 195.600 C 322.040 195.600,322.400 195.420,322.400 195.200 C 322.400 194.980,322.670 194.800,323.000 194.800 C 323.330 194.800,323.600 194.620,323.600 194.400 C 323.600 194.180,323.858 194.000,324.173 194.000 C 324.488 194.000,324.860 193.640,325.000 193.200 C 325.140 192.760,325.510 192.400,325.824 192.400 C 326.640 192.400,327.745 191.396,335.073 184.000 C 338.670 180.370,342.129 176.884,342.759 176.253 C 343.390 175.622,347.212 171.801,351.253 167.761 C 360.064 158.952,361.200 157.746,361.200 157.211 C 361.200 156.985,361.380 156.800,361.600 156.800 C 361.820 156.800,362.000 156.451,362.000 156.024 C 362.000 155.597,362.180 155.136,362.400 155.000 C 362.630 154.858,362.800 152.737,362.800 150.000 C 362.800 147.263,362.630 145.142,362.400 145.000 C 362.180 144.864,362.000 144.403,362.000 143.976 C 362.000 143.549,361.820 143.200,361.600 143.200 C 361.380 143.200,361.200 143.015,361.200 142.789 C 361.200 142.255,357.745 138.800,357.211 138.800 C 356.985 138.800,356.800 138.620,356.800 138.400 C 356.800 138.180,356.451 138.000,356.024 138.000 C 355.597 138.000,355.136 137.820,355.000 137.600 C 354.858 137.370,352.737 137.200,350.000 137.200 C 347.263 137.200,345.142 137.370,345.000 137.600 M204.293 175.215 C 191.826 177.312,189.968 193.704,201.579 199.157 L 203.800 200.200 239.300 200.316 L 274.800 200.432 274.800 187.616 L 274.800 174.800 240.500 174.847 C 221.635 174.873,205.342 175.038,204.293 175.215 M206.057 207.755 C 205.542 209.497,204.202 211.090,202.526 211.951 C 201.900 212.273,191.630 212.400,166.226 212.400 L 130.800 212.400 130.800 237.400 L 130.800 262.400 150.000 262.400 L 169.200 262.400 169.200 253.200 C 169.200 247.333,169.345 244.000,169.600 244.000 C 169.820 244.000,170.000 243.466,170.000 242.813 C 170.000 241.320,172.380 238.800,173.790 238.800 C 174.319 238.800,174.864 238.620,175.000 238.400 C 175.146 238.163,177.608 238.000,181.034 238.000 L 186.821 238.000 188.605 239.700 C 190.801 241.793,190.510 241.502,198.822 249.938 C 202.582 253.753,205.728 256.813,205.814 256.738 C 207.680 255.093,231.600 230.915,231.600 230.673 C 231.600 230.484,230.295 229.090,228.700 227.577 C 227.105 226.063,225.673 224.684,225.519 224.512 C 224.868 223.789,209.609 208.561,209.127 208.154 C 208.837 207.908,208.335 207.323,208.012 206.854 C 207.132 205.577,206.631 205.808,206.057 207.755 M227.100 343.900 C 232.875 343.962,242.325 343.962,248.100 343.900 C 253.875 343.837,249.150 343.786,237.600 343.786 C 226.050 343.786,221.325 343.837,227.100 343.900 M274.800 349.872 L 274.800 355.877 269.937 356.139 C 267.263 356.282,216.593 356.400,157.337 356.400 L 49.600 356.400 49.600 364.400 C 49.600 369.467,49.747 372.400,50.000 372.400 C 50.220 372.400,50.400 372.593,50.400 372.829 C 50.400 373.367,51.158 374.135,52.282 374.737 C 52.932 375.085,80.762 375.200,163.912 375.200 L 274.676 375.200 274.962 359.757 C 275.119 351.264,275.147 344.214,275.024 344.091 C 274.901 343.967,274.800 346.569,274.800 349.872 M300.000 365.700 L 300.000 375.200 323.426 375.200 C 340.409 375.200,347.091 375.073,347.718 374.737 C 348.842 374.135,349.600 373.367,349.600 372.829 C 349.600 372.593,349.780 372.400,350.000 372.400 C 350.253 372.400,350.400 369.469,350.400 364.406 L 350.400 356.412 325.200 356.306 L 300.000 356.200 300.000 365.700 " stroke="none" fill="#0b527a" fill-rule="evenodd"></path><path id="path1" d="M186.400 43.880 C 183.100 45.074,181.200 47.366,181.200 50.155 C 181.200 52.701,179.559 54.935,176.924 55.974 C 175.079 56.702,174.800 56.309,174.800 52.976 C 174.800 49.617,174.675 49.518,172.208 50.915 C 167.299 53.695,168.287 61.197,173.706 62.281 C 176.945 62.929,173.378 70.621,168.518 73.469 C 164.419 75.871,156.800 74.499,156.800 71.359 C 156.800 71.051,156.620 70.800,156.400 70.800 C 156.180 70.800,156.000 71.610,156.000 72.600 C 156.000 73.590,156.180 74.400,156.400 74.400 C 156.620 74.400,156.800 74.940,156.800 75.600 C 156.800 76.260,156.980 76.800,157.200 76.800 C 157.420 76.800,157.600 77.160,157.600 77.600 C 157.600 78.040,157.736 78.400,157.902 78.400 C 158.069 78.400,158.451 78.956,158.752 79.636 C 159.053 80.316,159.900 81.473,160.634 82.207 L 161.968 83.541 162.115 91.671 C 162.361 105.244,164.552 109.805,171.846 111.922 C 181.467 114.715,188.000 107.203,188.000 93.349 L 188.000 88.000 190.320 88.000 C 191.596 88.000,192.811 87.851,193.020 87.670 C 193.229 87.488,194.210 87.087,195.200 86.780 C 196.190 86.472,197.349 85.901,197.775 85.510 C 198.202 85.120,198.701 84.800,198.884 84.800 C 199.338 84.800,203.270 80.767,203.938 79.617 C 205.610 76.734,206.000 75.902,206.000 75.211 C 206.000 74.791,206.180 74.336,206.400 74.200 C 206.655 74.042,206.800 68.463,206.800 58.776 L 206.800 43.600 196.900 43.632 C 191.455 43.649,186.730 43.761,186.400 43.880 M234.000 49.905 C 234.000 50.073,233.595 50.388,233.100 50.605 C 232.605 50.822,232.022 51.405,231.805 51.900 C 231.588 52.395,231.273 52.800,231.105 52.800 C 230.937 52.800,230.800 63.330,230.800 76.200 L 230.800 99.600 228.000 99.600 L 225.200 99.600 225.200 118.800 L 225.200 138.000 234.376 138.000 C 240.063 138.000,243.647 137.848,243.800 137.600 C 243.936 137.380,244.577 137.200,245.224 137.200 C 245.871 137.200,246.400 137.020,246.400 136.800 C 246.400 136.580,246.665 136.400,246.989 136.400 C 247.794 136.400,251.200 134.718,251.200 134.320 C 251.200 134.144,251.459 134.000,251.775 134.000 C 252.657 134.000,258.197 128.394,258.990 126.700 C 259.375 125.875,259.851 125.200,260.046 125.200 C 260.241 125.200,260.400 124.840,260.400 124.400 C 260.400 123.960,260.580 123.600,260.800 123.600 C 261.020 123.600,261.200 123.150,261.200 122.600 C 261.200 122.050,261.380 121.600,261.600 121.600 C 261.820 121.600,262.000 121.071,262.000 120.424 C 262.000 119.777,262.180 119.136,262.400 119.000 C 262.876 118.706,262.970 52.800,262.495 52.800 C 262.327 52.800,262.012 52.395,261.795 51.900 C 261.578 51.405,260.995 50.822,260.500 50.605 C 260.005 50.388,259.600 50.073,259.600 49.905 C 259.600 49.737,253.840 49.600,246.800 49.600 C 239.760 49.600,234.000 49.737,234.000 49.905 M99.600 100.000 C 99.600 100.220,99.060 100.400,98.400 100.400 C 97.740 100.400,97.200 100.580,97.200 100.800 C 97.200 101.020,96.876 101.200,96.480 101.200 C 95.586 101.200,93.607 102.094,93.603 102.500 C 93.601 102.665,93.330 102.800,93.000 102.800 C 92.670 102.800,92.400 102.980,92.400 103.200 C 92.400 103.420,92.202 103.600,91.960 103.600 C 91.719 103.600,91.017 104.140,90.400 104.800 C 89.783 105.460,89.068 106.000,88.811 106.000 C 88.262 106.000,87.200 106.986,87.200 107.497 C 87.200 107.691,86.660 108.368,86.000 109.000 C 85.340 109.632,84.800 110.386,84.800 110.675 C 84.800 110.964,84.620 111.200,84.400 111.200 C 84.180 111.200,84.000 111.470,84.000 111.800 C 84.000 112.130,83.820 112.400,83.600 112.400 C 83.380 112.400,83.200 112.760,83.200 113.200 C 83.200 113.640,83.020 114.000,82.800 114.000 C 82.580 114.000,82.400 114.450,82.400 115.000 C 82.400 115.550,82.220 116.000,82.000 116.000 C 81.780 116.000,81.600 116.540,81.600 117.200 C 81.600 117.860,81.420 118.400,81.200 118.400 C 80.938 118.400,80.800 125.933,80.800 140.200 L 80.800 162.000 79.400 162.000 C 78.300 162.000,77.657 162.343,76.400 163.600 L 74.800 165.200 74.800 174.969 L 74.800 184.738 76.464 186.369 L 78.127 188.000 91.464 188.000 C 100.088 188.000,104.800 187.859,104.800 187.600 C 104.800 187.380,105.160 187.200,105.600 187.200 C 106.040 187.200,106.400 187.020,106.400 186.800 C 106.400 186.580,106.634 186.400,106.921 186.400 C 107.637 186.400,111.200 182.881,111.200 182.173 C 111.200 181.858,111.380 181.600,111.600 181.600 C 111.820 181.600,112.000 181.251,112.000 180.824 C 112.000 180.397,112.180 179.936,112.400 179.800 C 112.658 179.640,112.800 172.196,112.800 158.776 L 112.800 138.000 115.800 138.000 L 118.800 138.000 118.800 118.800 L 118.800 99.600 109.200 99.600 C 103.067 99.600,99.600 99.744,99.600 100.000 M218.771 243.853 L 205.800 256.840 207.534 258.420 C 208.488 259.289,209.163 260.000,209.033 260.000 C 208.904 260.000,209.518 260.651,210.399 261.447 L 212.000 262.893 212.000 284.647 L 212.000 306.400 231.200 306.400 L 250.400 306.400 250.400 278.400 C 250.400 260.000,250.263 250.400,250.000 250.400 C 249.780 250.400,249.600 250.040,249.600 249.600 C 249.600 249.160,249.420 248.800,249.200 248.800 C 248.980 248.800,248.800 248.514,248.800 248.164 C 248.800 247.815,247.495 246.294,245.900 244.785 C 244.305 243.277,242.688 241.718,242.306 241.321 C 239.602 238.512,237.696 236.606,234.924 233.933 L 231.742 230.866 218.771 243.853 M130.800 268.600 L 130.800 274.800 118.600 274.800 L 106.400 274.800 106.400 293.800 L 106.400 312.800 130.976 312.800 C 146.929 312.800,155.640 312.660,155.800 312.400 C 155.936 312.180,156.487 312.000,157.024 312.000 C 157.561 312.000,158.000 311.820,158.000 311.600 C 158.000 311.380,158.360 311.200,158.800 311.200 C 159.240 311.200,159.600 311.020,159.600 310.800 C 159.600 310.580,159.825 310.400,160.100 310.400 C 160.375 310.399,161.086 309.994,161.681 309.500 C 162.276 309.005,163.096 308.330,163.504 308.000 C 165.370 306.492,168.400 301.796,168.400 300.411 C 168.400 299.991,168.580 299.536,168.800 299.400 C 169.057 299.241,169.200 292.596,169.200 280.776 L 169.200 262.400 150.000 262.400 L 130.800 262.400 130.800 268.600 " stroke="none" fill="#f0c8a0" fill-rule="evenodd"></path><path id="path2" d="M52.612 343.908 C 49.933 345.468,49.600 346.340,49.600 351.795 L 49.600 356.400 157.337 356.400 C 216.593 356.400,267.263 356.282,269.937 356.139 L 274.800 355.877 274.800 349.515 L 274.800 343.153 266.700 343.399 C 257.555 343.676,248.795 343.676,135.200 343.409 C 58.577 343.228,53.730 343.257,52.612 343.908 M300.193 344.100 C 300.070 344.595,300.022 347.520,300.085 350.600 L 300.200 356.200 325.300 356.303 L 350.400 356.406 350.400 351.741 C 350.400 347.356,350.339 346.995,349.379 345.737 C 347.369 343.101,348.385 343.200,323.227 343.200 L 300.415 343.200 300.193 344.100 " stroke="none" fill="#04a4cc" fill-rule="evenodd"></path><path id="path3" d="M118.800 118.800 L 118.800 138.000 124.800 138.000 L 130.800 138.000 130.800 175.200 L 130.800 212.400 166.220 212.400 C 204.372 212.400,202.679 212.491,204.665 210.338 C 205.997 208.895,206.859 205.722,206.721 202.776 L 206.600 200.200 204.800 199.979 C 194.393 198.702,190.108 186.223,197.530 178.808 C 199.769 176.572,202.472 175.200,204.639 175.200 C 206.928 175.200,206.800 176.319,206.800 156.357 L 206.800 138.000 216.000 138.000 L 225.200 138.000 225.200 118.800 L 225.200 99.600 206.428 99.600 L 187.657 99.600 187.182 101.900 C 185.351 110.770,176.113 115.097,168.736 110.540 C 165.214 108.364,163.677 105.895,162.611 100.700 L 162.385 99.600 140.592 99.600 L 118.800 99.600 118.800 118.800 M282.600 162.400 C 282.464 162.620,282.003 162.800,281.576 162.800 C 281.149 162.800,280.800 162.980,280.800 163.200 C 280.800 163.420,280.575 163.600,280.300 163.600 C 279.413 163.601,277.649 165.422,276.191 167.841 L 274.770 170.200 274.826 272.700 L 274.883 375.200 287.385 375.200 L 299.887 375.200 300.185 346.100 C 300.548 310.794,300.320 170.398,299.900 170.138 C 299.735 170.036,299.600 169.603,299.600 169.176 C 299.600 168.749,299.420 168.400,299.200 168.400 C 298.980 168.400,298.800 168.144,298.800 167.832 C 298.800 167.519,297.976 166.439,296.968 165.432 C 295.961 164.424,294.881 163.600,294.568 163.600 C 294.256 163.600,294.000 163.420,294.000 163.200 C 294.000 162.980,293.640 162.800,293.200 162.800 C 292.760 162.800,292.400 162.620,292.400 162.400 C 292.400 162.156,290.541 162.000,287.624 162.000 C 284.871 162.000,282.742 162.169,282.600 162.400 M71.017 275.324 C 69.844 276.037,69.200 276.692,69.200 277.171 C 69.200 277.407,69.020 277.600,68.800 277.600 C 68.538 277.600,68.400 285.287,68.400 299.862 L 68.400 322.125 70.000 323.693 L 71.600 325.261 79.300 325.131 C 86.757 325.004,87.044 324.969,88.400 324.006 C 90.646 322.410,91.600 321.493,91.600 320.928 C 91.600 320.638,91.780 320.400,92.000 320.400 C 92.220 320.400,92.400 320.130,92.400 319.800 C 92.400 319.470,92.580 319.200,92.800 319.200 C 93.020 319.200,93.200 318.876,93.200 318.480 C 93.200 318.084,93.341 317.589,93.514 317.380 C 93.686 317.171,93.760 307.505,93.678 295.900 L 93.528 274.800 82.664 274.824 C 75.001 274.840,71.569 274.987,71.017 275.324 M231.100 318.700 L 212.000 318.808 212.000 329.719 L 212.000 340.630 213.156 342.015 L 214.312 343.400 237.400 343.400 L 260.488 343.400 261.644 342.015 L 262.800 340.630 262.800 333.515 C 262.800 329.038,262.652 326.400,262.400 326.400 C 262.180 326.400,262.000 326.040,262.000 325.600 C 262.000 325.160,261.820 324.800,261.600 324.800 C 261.380 324.800,261.200 324.525,261.200 324.189 C 261.200 322.076,255.354 318.352,252.262 318.496 C 251.128 318.549,241.605 318.641,231.100 318.700 " stroke="none" fill="#cb0b53" fill-rule="evenodd"></path><path id="path4" d="M93.696 293.700 L 93.800 312.600 100.100 312.710 L 106.400 312.820 106.400 293.810 L 106.400 274.800 99.996 274.800 L 93.592 274.800 93.696 293.700 M212.000 312.604 L 212.000 318.808 231.100 318.704 L 250.200 318.600 250.310 312.500 L 250.421 306.400 231.210 306.400 L 212.000 306.400 212.000 312.604 " stroke="none" fill="#fcb404" fill-rule="evenodd"></path></g></svg>