<svg id="svg" version="1.1" xmlns="http://www.w3.org/2000/svg" xmlns:xlink="http://www.w3.org/1999/xlink" width="400" height="400" viewBox="0, 0, 400,400"><g id="svgg"><path id="path0" d="M192.474 12.823 C 186.114 14.090,181.860 21.190,181.821 30.600 L 181.800 35.800 183.341 38.880 C 184.768 41.731,188.630 46.400,189.563 46.400 C 189.772 46.400,190.181 46.634,190.471 46.921 C 191.125 47.565,194.063 48.782,196.200 49.294 C 197.080 49.504,202.930 49.802,209.200 49.956 L 220.600 50.234 224.904 51.917 C 229.809 53.835,231.879 54.020,235.238 52.841 C 236.427 52.423,238.722 51.613,240.338 51.041 C 243.178 50.035,243.585 50.000,252.506 50.000 C 266.989 50.000,270.708 49.016,275.805 43.835 C 285.174 34.311,281.044 14.452,269.357 12.828 C 266.202 12.390,194.672 12.385,192.474 12.823 M132.158 194.700 C 132.274 195.085,132.556 197.200,132.784 199.400 C 133.013 201.600,133.392 205.020,133.627 207.000 C 134.160 211.497,134.603 215.410,135.189 220.800 C 135.440 223.110,135.772 225.715,135.927 226.588 L 136.210 228.176 139.767 223.642 C 144.203 217.988,147.368 214.874,151.120 212.470 C 152.726 211.442,154.288 210.420,154.591 210.200 C 155.189 209.765,154.850 207.883,152.647 199.400 C 152.075 197.200,151.606 195.085,151.604 194.700 C 151.600 194.052,150.864 194.000,141.773 194.000 C 132.600 194.000,131.960 194.047,132.158 194.700 M298.243 198.297 C 292.589 199.116,290.264 206.286,293.514 212.886 C 298.045 222.089,309.582 226.082,314.724 220.226 C 321.640 212.349,309.819 196.620,298.243 198.297 M312.051 230.438 C 307.840 234.362,313.698 242.971,319.800 241.826 C 324.440 240.956,323.663 233.546,318.622 230.591 C 316.403 229.291,313.358 229.220,312.051 230.438 M213.126 235.871 C 212.756 235.968,212.340 236.564,212.201 237.195 C 211.456 240.590,216.678 243.661,218.056 240.638 C 218.669 239.291,217.525 237.045,215.809 236.231 C 214.447 235.585,214.289 235.564,213.126 235.871 M265.800 258.834 C 261.253 262.401,256.843 263.803,250.200 263.793 C 245.522 263.785,240.047 262.647,239.363 261.540 C 239.247 261.353,238.803 261.200,238.376 261.200 C 237.631 261.200,237.600 261.559,237.600 270.272 C 237.600 279.448,237.547 279.882,235.872 284.400 C 228.992 302.956,202.227 305.680,191.586 288.907 C 190.641 287.418,189.629 285.803,189.336 285.317 L 188.804 284.434 185.502 286.451 C 183.686 287.560,182.054 288.608,181.875 288.779 C 181.697 288.950,182.273 290.232,183.155 291.628 C 185.123 294.740,185.651 294.088,176.676 299.646 C 172.674 302.125,168.103 305.018,166.518 306.076 C 164.933 307.134,163.530 308.000,163.400 308.000 C 163.270 308.000,161.830 308.900,160.200 310.000 C 158.570 311.100,157.153 312.000,157.052 312.000 C 156.729 312.000,148.104 317.510,138.600 323.787 C 130.732 328.984,128.995 330.317,126.600 332.999 C 125.060 334.723,123.440 336.510,123.000 336.970 C 122.346 337.653,116.540 344.043,108.558 352.865 C 107.116 354.459,106.481 356.156,107.168 356.580 C 107.405 356.727,107.600 357.994,107.600 359.397 C 107.600 362.338,108.082 362.748,110.686 362.025 C 112.737 361.455,114.788 361.491,114.997 362.100 C 115.091 362.375,115.346 364.220,115.563 366.200 C 115.965 369.861,116.807 376.655,117.620 382.800 C 117.868 384.670,118.102 386.470,118.141 386.800 C 118.211 387.402,248.547 387.997,251.800 387.410 C 252.814 387.227,253.494 386.434,256.184 382.297 C 257.935 379.603,259.589 377.174,259.858 376.898 C 260.127 376.621,260.462 376.036,260.601 375.598 C 260.740 375.159,261.022 374.800,261.227 374.800 C 261.432 374.800,261.600 374.614,261.600 374.387 C 261.600 374.159,263.085 371.805,264.900 369.154 C 279.233 348.223,287.665 335.024,287.435 333.876 C 287.306 333.229,287.195 322.778,287.189 310.650 L 287.179 288.600 285.689 286.957 C 283.942 285.030,282.977 283.918,280.000 280.400 C 278.790 278.970,277.697 277.710,277.571 277.600 C 277.363 277.418,276.395 276.275,270.350 269.079 C 267.934 266.203,267.852 266.720,271.149 263.993 C 273.213 262.286,273.213 262.281,270.761 259.500 C 268.383 256.802,268.389 256.803,265.800 258.834 M106.900 280.159 C 102.681 282.941,102.655 283.008,104.745 285.763 C 106.129 287.587,115.813 301.070,118.964 305.561 C 120.725 308.070,126.043 315.331,126.436 315.764 C 126.799 316.162,134.400 311.343,134.400 310.714 C 134.400 310.505,133.545 309.158,132.500 307.720 C 128.922 302.796,127.345 300.593,123.396 295.000 C 121.222 291.920,118.713 288.401,117.821 287.181 C 116.930 285.960,115.120 283.407,113.800 281.507 C 110.795 277.182,111.273 277.275,106.900 280.159 M336.200 290.028 C 334.880 290.457,333.080 291.011,332.200 291.258 C 331.320 291.506,330.060 291.864,329.400 292.055 C 328.490 292.319,314.977 296.204,309.089 297.895 C 308.337 298.111,308.333 298.070,309.456 301.600 C 310.549 305.040,308.462 305.236,326.600 299.992 C 327.260 299.801,328.520 299.445,329.400 299.200 C 330.280 298.955,331.585 298.585,332.300 298.377 C 333.015 298.170,334.230 297.820,335.000 297.600 C 335.770 297.380,337.075 297.005,337.900 296.767 C 338.725 296.529,339.905 296.237,340.521 296.119 C 341.783 295.876,341.773 295.431,340.417 291.438 C 339.611 289.065,339.389 288.991,336.200 290.028 " stroke="none" fill="#d2c1c3" fill-rule="evenodd"></path><path id="path1" d="M294.007 31.400 C 293.998 40.357,291.656 47.793,287.105 53.315 C 285.381 55.407,285.359 56.400,287.037 56.400 C 290.693 56.400,298.831 66.015,299.287 70.874 C 299.335 71.383,299.470 68.290,299.587 64.000 L 299.800 56.200 303.300 56.084 L 306.800 55.969 306.800 50.000 L 306.800 44.031 303.300 43.916 L 299.801 43.800 299.319 40.600 C 298.647 36.128,297.726 33.028,296.170 30.000 C 293.975 25.730,294.013 25.705,294.007 31.400 M166.300 30.418 C 165.255 32.519,164.400 34.598,164.400 35.038 C 164.400 35.479,164.237 36.011,164.039 36.220 C 163.840 36.429,163.553 37.500,163.401 38.600 C 163.131 40.555,162.718 72.590,162.974 71.800 C 163.045 71.580,163.342 70.590,163.633 69.600 C 165.126 64.532,169.302 59.451,174.080 56.884 C 176.515 55.577,176.565 55.253,174.757 52.573 C 170.379 46.083,168.853 41.114,168.443 32.000 L 168.200 26.600 166.300 30.418 M162.998 86.600 C 163.141 87.700,163.411 89.590,163.599 90.800 C 163.940 92.995,164.560 97.036,165.195 101.200 C 165.380 102.410,165.721 104.570,165.952 106.000 C 166.184 107.430,166.558 109.860,166.783 111.400 C 167.008 112.940,167.382 115.370,167.614 116.800 C 167.846 118.230,168.192 120.539,168.383 121.932 C 168.830 125.192,168.770 125.163,171.468 123.373 C 172.733 122.533,176.566 120.413,179.984 118.662 C 191.105 112.966,193.286 110.922,193.286 106.200 C 193.286 99.052,187.889 95.206,175.945 93.844 C 169.166 93.071,165.913 91.144,163.709 86.600 L 162.739 84.600 162.998 86.600 M298.853 86.599 C 297.371 90.709,292.899 93.290,286.071 93.976 C 275.427 95.046,270.449 98.350,269.376 105.058 C 268.564 110.138,270.936 112.651,281.800 118.220 C 285.540 120.137,289.633 122.402,290.895 123.253 C 293.866 125.255,293.724 125.361,294.455 120.600 C 294.658 119.280,294.993 117.120,295.200 115.800 C 295.407 114.480,295.763 112.140,295.992 110.600 C 296.221 109.060,296.570 106.720,296.769 105.400 C 296.967 104.080,297.323 101.650,297.560 100.000 C 297.797 98.350,298.365 94.612,298.823 91.694 C 299.723 85.962,299.734 84.157,298.853 86.599 M270.600 194.496 C 266.983 195.390,264.557 196.678,259.400 200.442 C 256.980 202.209,254.572 203.957,254.050 204.327 C 251.822 205.905,248.945 208.209,248.247 208.974 C 247.178 210.145,244.800 213.880,244.800 214.386 C 244.800 214.620,244.638 215.123,244.439 215.505 C 244.240 215.887,243.860 217.010,243.593 218.000 C 243.327 218.990,242.970 220.160,242.800 220.600 C 242.630 221.040,242.266 222.210,241.992 223.200 C 241.417 225.270,240.819 227.361,240.391 228.800 C 240.227 229.350,239.871 230.610,239.599 231.600 C 239.328 232.590,239.006 233.670,238.884 234.000 C 234.131 246.848,249.592 256.466,259.516 246.835 C 260.442 245.936,261.200 245.034,261.200 244.829 C 261.200 244.624,261.425 244.219,261.700 243.928 C 261.975 243.637,262.855 242.589,263.655 241.599 C 264.456 240.610,265.508 239.350,265.993 238.800 C 266.478 238.250,268.614 235.750,270.738 233.245 C 275.238 227.937,277.091 225.993,278.310 225.300 C 279.356 224.705,284.000 224.624,284.000 225.200 C 284.000 225.420,284.235 225.600,284.522 225.600 C 285.159 225.600,286.861 227.410,289.222 230.600 C 290.199 231.920,291.097 233.090,291.218 233.200 C 291.339 233.310,291.877 234.030,292.414 234.800 C 293.348 236.141,294.138 237.164,295.000 238.145 C 295.220 238.395,296.210 239.680,297.199 241.000 C 298.188 242.320,299.095 243.490,299.213 243.600 C 299.331 243.710,301.038 245.960,303.006 248.600 C 304.974 251.240,306.687 253.490,306.812 253.600 C 306.936 253.710,307.471 254.430,308.000 255.200 C 308.529 255.970,309.069 256.690,309.200 256.800 C 309.331 256.910,309.871 257.630,310.400 258.400 C 310.929 259.170,311.473 259.890,311.609 260.000 C 311.855 260.198,314.492 263.592,317.982 268.200 C 318.982 269.520,319.899 270.690,320.019 270.800 C 320.140 270.910,320.671 271.630,321.200 272.400 C 321.729 273.170,322.269 273.890,322.400 274.000 C 322.531 274.110,323.075 274.830,323.608 275.600 C 324.142 276.370,324.898 277.349,325.289 277.775 C 325.680 278.202,326.000 278.711,326.000 278.907 C 326.000 279.416,330.296 278.459,332.095 277.551 C 332.477 277.358,333.332 277.200,333.995 277.200 C 334.658 277.200,335.200 277.020,335.200 276.800 C 335.200 276.580,335.650 276.400,336.200 276.400 L 337.200 276.400 337.200 254.884 C 337.200 228.208,337.139 227.879,331.052 221.864 C 328.743 219.581,309.642 201.077,307.844 199.381 C 305.740 197.395,302.011 195.473,298.480 194.552 C 295.954 193.894,273.224 193.848,270.600 194.496 M306.400 199.715 C 311.558 202.130,316.041 207.979,316.614 213.040 C 317.815 223.657,305.982 226.605,297.177 217.882 C 286.471 207.275,293.399 193.629,306.400 199.715 M168.400 219.402 C 164.356 220.084,159.600 221.756,159.600 222.494 C 159.600 222.662,159.324 222.800,158.987 222.800 C 158.143 222.800,152.710 228.329,149.800 232.151 C 148.480 233.884,147.220 235.504,147.000 235.751 C 146.780 235.998,146.108 236.859,145.506 237.665 C 144.904 238.471,144.178 239.371,143.893 239.665 C 143.607 239.959,142.938 240.830,142.406 241.600 C 141.873 242.370,141.145 243.270,140.787 243.600 C 140.429 243.930,139.970 244.491,139.768 244.846 C 139.566 245.201,138.860 246.171,138.200 247.000 C 137.540 247.830,135.924 249.879,134.608 251.554 C 133.293 253.230,132.122 254.690,132.006 254.800 C 131.890 254.910,131.304 255.659,130.704 256.465 C 130.103 257.271,129.378 258.171,129.093 258.465 C 128.807 258.759,128.134 259.630,127.596 260.400 C 127.058 261.170,126.208 262.213,125.709 262.718 C 125.209 263.223,124.797 263.763,124.792 263.918 C 124.788 264.073,124.178 264.896,123.435 265.746 C 120.838 268.721,120.838 268.741,123.247 272.264 C 124.426 273.989,125.495 275.490,125.622 275.600 C 125.749 275.710,126.460 276.700,127.203 277.800 C 127.946 278.900,128.699 279.860,128.877 279.933 C 129.055 280.007,129.200 280.307,129.200 280.600 C 129.200 280.893,129.345 281.193,129.523 281.267 C 129.701 281.340,130.432 282.259,131.148 283.308 C 131.864 284.358,132.574 285.143,132.725 285.053 C 132.876 284.964,134.671 283.880,136.714 282.645 C 138.757 281.410,140.524 280.400,140.642 280.400 C 140.760 280.400,141.641 279.860,142.600 279.200 C 143.559 278.540,144.522 278.000,144.739 278.000 C 144.956 278.000,145.193 277.865,145.267 277.700 C 145.434 277.324,147.564 276.025,148.500 275.729 C 148.885 275.607,149.200 275.348,149.200 275.153 C 149.200 274.959,149.393 274.800,149.628 274.800 C 149.863 274.800,150.841 274.260,151.800 273.600 C 152.759 272.940,153.622 272.400,153.717 272.400 C 153.812 272.400,158.280 269.764,163.645 266.543 C 169.010 263.322,174.120 260.254,175.000 259.725 C 175.880 259.197,176.915 258.662,177.300 258.536 C 177.685 258.410,178.000 258.148,178.000 257.953 C 178.000 257.759,178.190 257.600,178.422 257.600 C 178.654 257.600,179.904 256.880,181.200 256.000 C 182.496 255.120,183.669 254.400,183.806 254.400 C 183.943 254.400,184.841 253.860,185.800 253.200 C 186.759 252.540,187.664 252.000,187.810 252.000 C 187.957 252.000,188.573 251.646,189.180 251.214 C 192.953 248.527,198.208 249.650,199.810 253.486 C 200.279 254.609,200.401 257.074,200.404 265.549 C 200.408 273.775,200.543 276.642,200.998 278.143 C 204.512 289.725,219.875 290.087,224.042 278.685 C 225.064 275.890,225.205 245.192,224.213 241.387 C 222.948 236.529,219.214 231.310,215.788 229.611 C 215.135 229.287,213.575 228.342,212.322 227.511 C 211.069 226.680,209.854 226.000,209.622 226.000 C 209.390 226.000,209.200 225.841,209.200 225.647 C 209.200 225.452,208.885 225.190,208.500 225.064 C 208.115 224.938,206.900 224.279,205.800 223.599 C 202.146 221.340,198.234 219.718,195.323 219.256 C 191.430 218.639,172.309 218.742,168.400 219.402 M318.622 230.591 C 323.663 233.546,324.440 240.956,319.800 241.826 C 316.052 242.530,311.388 238.940,310.601 234.748 C 309.789 230.419,314.321 228.071,318.622 230.591 M215.809 236.231 C 217.525 237.045,218.669 239.291,218.056 240.638 C 216.678 243.661,211.456 240.590,212.201 237.195 C 212.422 236.187,212.885 235.818,214.140 235.646 C 214.326 235.621,215.077 235.884,215.809 236.231 M272.030 261.100 C 272.564 261.705,273.045 262.275,273.100 262.367 C 273.155 262.458,273.200 262.351,273.200 262.128 C 273.200 261.619,271.818 260.000,271.383 260.000 C 271.206 260.000,271.497 260.495,272.030 261.100 " stroke="none" fill="#2c93fa" fill-rule="evenodd"></path><path id="path2" d="M189.859 13.248 C 186.611 14.962,181.960 21.481,182.015 24.242 C 182.024 24.659,182.574 23.613,183.238 21.918 C 185.134 17.077,188.696 13.571,192.474 12.827 C 194.164 12.495,194.170 12.487,192.800 12.462 C 192.030 12.447,190.706 12.801,189.859 13.248 M244.915 12.696 C 246.188 12.776,248.168 12.775,249.315 12.694 C 250.462 12.614,249.420 12.549,247.000 12.550 C 244.580 12.551,243.642 12.616,244.915 12.696 M269.528 12.810 C 274.971 13.602,278.716 18.340,280.743 27.000 C 281.061 28.360,281.124 28.431,281.159 27.471 C 281.397 20.968,274.400 12.288,269.051 12.450 C 267.446 12.498,267.459 12.508,269.528 12.810 M181.452 26.100 C 181.110 27.377,181.153 34.908,181.506 35.460 C 181.668 35.713,181.800 33.508,181.800 30.560 C 181.800 24.734,181.804 24.787,181.452 26.100 M281.293 31.200 C 281.293 31.970,281.375 32.285,281.476 31.900 C 281.576 31.515,281.576 30.885,281.476 30.500 C 281.375 30.115,281.293 30.430,281.293 31.200 M280.650 35.000 C 279.106 42.641,273.096 47.926,264.000 49.639 C 260.210 50.352,260.208 50.354,263.000 50.141 C 269.246 49.664,274.094 47.177,277.497 42.704 C 279.287 40.351,281.321 35.605,281.111 34.272 C 281.015 33.661,280.877 33.878,280.650 35.000 M182.015 36.688 C 181.857 41.711,192.060 50.117,198.118 49.955 C 199.671 49.914,199.600 49.872,197.200 49.416 C 194.365 48.877,191.305 47.743,190.471 46.921 C 190.181 46.634,189.772 46.400,189.563 46.400 C 188.659 46.400,184.781 41.751,183.459 39.083 C 182.673 37.497,182.024 36.420,182.015 36.688 M218.400 50.570 C 221.332 51.184,222.893 51.652,224.851 52.502 C 225.593 52.824,226.703 53.293,227.319 53.544 C 227.934 53.795,229.757 54.000,231.370 54.000 C 234.125 54.000,234.998 53.782,238.600 52.195 C 240.270 51.459,242.253 50.885,244.600 50.458 L 246.600 50.095 244.938 50.047 C 244.024 50.021,241.954 50.468,240.338 51.041 C 238.722 51.613,236.427 52.423,235.238 52.841 C 231.910 54.009,229.811 53.830,224.904 51.958 C 222.105 50.890,219.761 50.265,218.200 50.170 L 215.800 50.025 218.400 50.570 M200.724 62.972 C 193.708 64.964,183.990 80.294,188.500 82.256 C 207.756 90.635,212.270 111.064,198.050 125.477 C 196.922 126.620,196.000 127.812,196.000 128.126 C 196.000 130.110,203.776 139.394,208.000 142.453 C 226.129 155.582,251.741 150.929,264.119 132.258 C 267.048 127.840,267.056 128.208,263.954 124.877 C 250.736 110.681,255.822 88.168,273.500 82.628 C 276.509 81.685,275.363 77.324,270.044 69.479 C 266.022 63.545,263.986 62.645,254.200 62.474 C 246.381 62.337,246.856 62.251,239.000 65.232 C 233.765 67.218,226.943 66.755,220.200 63.955 C 216.479 62.410,204.785 61.820,200.724 62.972 M181.368 181.300 C 171.685 194.155,172.428 193.484,167.357 193.943 L 164.515 194.200 165.998 200.200 L 167.481 206.200 183.240 206.415 C 203.157 206.688,202.119 206.437,214.600 213.980 C 218.340 216.240,222.012 218.441,222.760 218.871 C 223.508 219.302,225.122 220.470,226.346 221.467 L 228.573 223.281 229.057 221.741 C 229.323 220.893,229.936 218.850,230.419 217.200 C 233.384 207.078,236.123 202.328,241.728 197.588 C 244.755 195.028,244.755 195.044,241.809 193.474 C 237.082 190.955,236.711 189.018,239.357 180.700 L 241.107 175.200 225.254 175.199 C 205.137 175.197,201.616 174.825,192.632 171.748 C 191.109 171.227,189.732 170.800,189.571 170.800 C 189.410 170.800,185.719 175.525,181.368 181.300 M112.800 194.181 C 106.716 195.229,101.532 197.146,96.020 200.384 C 95.019 200.973,92.940 202.144,91.400 202.987 C 74.904 212.018,72.855 213.377,67.883 218.590 C 61.096 225.707,56.435 237.281,56.408 247.084 L 56.400 249.968 53.100 250.084 L 49.800 250.200 49.690 256.700 C 49.613 261.240,49.713 263.200,50.022 263.200 C 50.264 263.200,53.284 261.787,56.732 260.061 C 68.386 254.224,78.292 250.000,80.327 250.000 C 81.721 250.000,81.695 262.591,80.300 263.028 C 77.708 263.841,53.476 275.613,46.200 279.595 C 45.100 280.197,42.040 281.819,39.400 283.200 C 29.851 288.194,28.281 289.255,23.890 293.675 C 16.684 300.930,12.400 311.999,12.400 323.361 C 12.400 326.048,12.631 325.982,19.987 321.215 C 23.734 318.787,29.815 314.856,33.500 312.481 C 37.185 310.105,43.396 306.100,47.301 303.581 C 61.282 294.563,60.663 294.918,61.493 295.441 C 62.130 295.843,67.600 304.594,67.600 305.211 C 67.600 305.419,66.835 306.061,65.900 306.637 C 64.965 307.213,63.570 308.090,62.800 308.585 C 62.030 309.080,58.880 311.101,55.800 313.077 C 52.720 315.052,47.680 318.296,44.600 320.284 C 31.957 328.448,22.431 334.550,15.791 338.740 L 12.400 340.880 12.406 348.540 C 12.418 362.894,14.400 367.055,25.567 376.165 C 35.805 384.516,38.580 386.100,44.944 387.223 C 52.598 388.574,62.093 385.098,67.570 378.940 C 70.410 375.748,72.607 373.325,74.771 371.000 C 75.999 369.680,77.711 367.790,78.574 366.800 C 79.437 365.810,81.720 363.290,83.648 361.200 C 85.575 359.110,87.477 357.021,87.876 356.559 C 88.571 355.751,93.578 350.237,97.822 345.606 C 100.341 342.857,101.833 341.220,110.133 332.102 C 117.057 324.495,117.115 324.393,115.608 322.600 C 115.239 322.160,113.170 319.280,111.012 316.200 C 108.853 313.120,106.609 309.970,106.024 309.200 C 105.439 308.430,102.114 303.795,98.636 298.900 C 95.158 294.005,92.197 290.001,92.056 290.001 C 91.766 290.003,91.414 290.219,84.038 294.940 C 81.089 296.827,78.554 298.295,78.406 298.204 C 77.798 297.828,72.000 288.893,72.000 288.332 C 72.000 287.839,81.757 281.105,84.992 279.365 C 90.708 276.292,108.471 263.779,110.009 261.742 C 110.972 260.466,111.986 259.147,112.261 258.811 C 112.537 258.475,113.986 256.642,115.481 254.738 C 116.976 252.833,118.740 250.590,119.400 249.754 C 124.732 242.994,124.829 242.828,124.603 240.856 C 124.487 239.835,124.035 235.670,123.600 231.600 C 122.371 220.103,122.003 216.821,121.604 213.800 C 121.401 212.260,121.022 208.660,120.762 205.800 C 120.503 202.940,120.081 199.070,119.825 197.200 L 119.360 193.800 117.580 193.732 C 116.601 193.695,114.450 193.897,112.800 194.181 M136.923 193.899 C 139.741 193.968,144.241 193.968,146.923 193.899 C 149.605 193.830,147.300 193.773,141.800 193.773 C 136.300 193.774,134.105 193.830,136.923 193.899 M151.680 195.000 C 151.680 195.440,151.824 196.250,152.000 196.800 C 152.254 197.592,152.320 197.633,152.320 197.000 C 152.320 196.560,152.176 195.750,152.000 195.200 C 151.746 194.408,151.680 194.367,151.680 195.000 M132.073 196.200 C 132.058 197.080,132.195 198.520,132.377 199.400 L 132.708 201.000 132.724 199.600 C 132.733 198.830,132.597 197.390,132.420 196.400 L 132.100 194.600 132.073 196.200 M152.434 198.600 C 152.472 199.966,153.138 201.242,153.166 200.000 C 153.178 199.450,153.013 198.730,152.800 198.400 C 152.480 197.905,152.416 197.940,152.434 198.600 M153.234 201.600 C 153.246 201.930,153.411 202.560,153.600 203.000 L 153.944 203.800 153.966 203.000 C 153.978 202.560,153.813 201.930,153.600 201.600 C 153.255 201.067,153.215 201.067,153.234 201.600 M132.873 203.400 C 132.858 204.280,132.995 205.720,133.177 206.600 L 133.508 208.200 133.524 206.800 C 133.533 206.030,133.397 204.590,133.220 203.600 L 132.900 201.800 132.873 203.400 M154.006 204.633 C 154.010 204.835,154.271 206.080,154.587 207.400 C 155.079 209.457,155.081 209.857,154.600 210.200 C 154.292 210.420,152.726 211.442,151.120 212.470 C 147.367 214.875,144.203 217.988,139.763 223.648 L 136.200 228.188 135.749 225.594 C 135.401 223.591,135.287 223.331,135.249 224.450 C 135.126 228.111,135.979 229.250,137.405 227.329 C 144.001 218.444,149.023 213.598,154.533 210.804 C 155.742 210.191,155.726 210.389,154.875 206.484 C 154.533 204.912,153.991 203.759,154.006 204.633 M133.670 210.600 C 133.657 211.480,133.795 212.920,133.977 213.800 L 134.308 215.400 134.307 213.400 C 134.306 212.300,134.168 210.860,134.000 210.200 C 133.708 209.051,133.694 209.068,133.670 210.600 M134.469 217.400 C 134.456 218.280,134.595 219.720,134.777 220.600 L 135.108 222.200 135.131 220.600 C 135.144 219.720,135.005 218.280,134.823 217.400 L 134.492 215.800 134.469 217.400 M266.400 258.035 C 259.816 263.689,248.319 265.081,239.895 261.243 C 237.787 260.283,237.600 260.247,237.600 260.800 C 237.600 261.020,237.949 261.200,238.376 261.200 C 238.803 261.200,239.247 261.353,239.363 261.540 C 241.142 264.419,255.014 264.555,261.084 261.753 C 263.517 260.630,269.024 256.772,268.131 256.816 C 267.949 256.825,267.170 257.374,266.400 258.035 M271.186 263.989 C 270.203 264.862,269.284 265.582,269.143 265.589 C 268.165 265.632,268.669 267.079,270.364 269.096 C 276.427 276.314,277.363 277.418,277.571 277.600 C 277.697 277.710,278.787 278.970,279.994 280.400 C 281.201 281.830,282.371 283.198,282.594 283.439 C 282.817 283.681,283.900 284.927,285.000 286.208 L 287.000 288.537 287.205 311.168 L 287.410 333.800 287.504 311.200 L 287.597 288.600 286.099 286.837 C 285.274 285.867,282.276 282.357,279.435 279.037 C 276.595 275.716,273.445 272.032,272.435 270.849 C 271.426 269.666,270.285 268.333,269.900 267.888 C 268.901 266.732,268.968 266.565,271.300 264.390 C 273.814 262.045,273.724 261.730,271.186 263.989 M237.273 276.200 C 237.228 277.080,237.091 278.520,236.969 279.400 C 236.793 280.672,236.839 280.857,237.193 280.301 C 237.444 279.908,237.576 278.510,237.496 277.101 C 237.406 275.507,237.325 275.180,237.273 276.200 M108.090 278.966 C 105.654 280.636,104.381 281.673,105.600 280.994 C 105.930 280.811,107.203 279.987,108.430 279.163 C 111.104 277.367,110.666 277.109,114.769 282.907 C 116.600 285.496,118.299 287.737,118.543 287.888 C 118.983 288.160,116.874 285.066,113.098 279.900 C 110.781 276.730,111.231 276.814,108.090 278.966 M103.700 281.870 C 102.623 282.621,102.538 283.704,103.500 284.432 C 104.096 284.882,104.125 284.878,103.700 284.401 C 102.963 283.575,103.087 282.822,104.100 281.977 C 105.190 281.068,104.944 281.002,103.700 281.870 M236.249 282.147 C 235.164 286.470,231.536 291.572,226.963 295.206 C 224.866 296.872,220.449 298.679,216.400 299.527 C 214.731 299.876,214.697 299.907,215.929 299.952 C 219.368 300.076,226.154 296.826,229.840 293.289 C 233.225 290.042,237.249 283.146,236.707 281.521 C 236.613 281.238,236.407 281.520,236.249 282.147 M190.053 286.490 C 194.733 294.426,201.441 299.254,208.566 299.813 L 210.600 299.972 208.200 299.424 C 204.201 298.511,200.000 296.913,200.000 296.306 C 200.000 296.138,199.809 296.000,199.577 296.000 C 198.027 296.000,192.268 289.897,190.534 286.418 C 189.981 285.308,189.369 284.400,189.175 284.400 C 188.980 284.400,189.375 285.340,190.053 286.490 M105.997 288.047 C 107.148 289.671,108.924 292.207,109.945 293.683 C 110.965 295.159,111.935 296.374,112.099 296.383 C 112.263 296.392,111.464 295.095,110.322 293.500 C 109.180 291.905,107.459 289.479,106.498 288.108 C 105.536 286.737,104.559 285.498,104.327 285.355 C 104.095 285.211,104.846 286.423,105.997 288.047 M121.163 291.833 C 122.539 293.795,124.825 297.020,126.243 299.000 C 127.662 300.980,129.714 303.893,130.805 305.472 C 132.497 307.924,133.600 309.206,133.600 308.721 C 133.600 308.651,132.424 306.976,130.987 304.997 C 129.550 303.019,127.450 300.050,126.319 298.400 C 125.189 296.750,124.145 295.310,124.000 295.200 C 123.855 295.090,122.808 293.617,121.674 291.928 C 120.540 290.238,119.399 288.723,119.137 288.561 C 118.875 288.399,119.787 289.872,121.163 291.833 M334.000 290.289 C 331.470 291.063,328.813 291.784,328.096 291.892 C 327.379 292.000,326.689 292.256,326.563 292.460 C 326.332 292.833,327.653 292.639,329.600 292.014 C 330.150 291.837,331.320 291.493,332.200 291.250 C 333.080 291.006,335.030 290.425,336.534 289.958 C 339.746 288.960,339.637 288.886,340.959 293.000 C 341.524 294.760,341.883 295.570,341.757 294.800 C 341.451 292.939,340.452 289.945,339.925 289.310 C 339.374 288.645,339.371 288.646,334.000 290.289 M182.052 290.700 C 182.512 291.525,183.216 292.650,183.614 293.200 L 184.339 294.200 181.070 296.295 C 179.271 297.447,177.583 298.572,177.317 298.795 C 177.051 299.018,176.751 299.200,176.651 299.200 C 176.451 299.200,164.063 306.972,161.280 308.843 C 160.334 309.480,159.466 310.000,159.352 310.000 C 159.238 310.000,158.359 310.540,157.400 311.200 C 156.441 311.860,155.560 312.400,155.442 312.400 C 154.832 312.400,129.303 329.450,128.200 330.594 C 127.760 331.050,125.780 333.218,123.801 335.412 C 121.821 337.605,120.111 339.490,120.001 339.600 C 119.890 339.710,118.900 340.797,117.800 342.015 C 116.700 343.234,114.121 346.062,112.070 348.300 C 107.335 353.465,106.690 354.294,106.936 354.904 C 107.090 355.285,107.144 355.280,107.168 354.883 C 107.186 354.598,107.804 353.698,108.542 352.883 C 117.069 343.461,122.343 337.656,123.000 336.970 C 123.440 336.510,125.060 334.723,126.600 332.999 C 128.995 330.317,130.732 328.984,138.600 323.787 C 148.104 317.510,156.729 312.000,157.052 312.000 C 157.153 312.000,158.570 311.100,160.200 310.000 C 161.830 308.900,163.270 308.000,163.400 308.000 C 163.530 308.000,164.933 307.134,166.518 306.076 C 168.103 305.018,172.674 302.125,176.676 299.646 C 185.640 294.094,185.118 294.732,183.190 291.683 C 181.470 288.962,180.718 288.313,182.052 290.700 M324.000 293.218 C 323.562 293.515,323.724 293.552,324.600 293.356 C 326.071 293.027,326.390 292.798,325.367 292.806 C 324.945 292.809,324.330 292.995,324.000 293.218 M320.990 294.016 C 320.821 294.289,321.123 294.338,321.866 294.160 C 323.399 293.792,323.544 293.600,322.290 293.600 C 321.717 293.600,321.132 293.787,320.990 294.016 M318.400 294.818 C 317.962 295.115,318.124 295.152,319.000 294.956 C 320.471 294.627,320.790 294.398,319.767 294.406 C 319.345 294.409,318.730 294.595,318.400 294.818 M315.600 295.600 C 314.805 296.114,315.804 296.114,317.000 295.600 L 317.800 295.256 317.000 295.234 C 316.560 295.222,315.930 295.387,315.600 295.600 M312.590 296.416 C 312.421 296.689,312.723 296.738,313.466 296.560 C 314.999 296.192,315.144 296.000,313.890 296.000 C 313.317 296.000,312.732 296.187,312.590 296.416 M339.000 296.385 C 338.560 296.566,337.390 296.935,336.400 297.204 C 335.410 297.473,334.150 297.831,333.600 298.000 C 333.050 298.169,331.790 298.527,330.800 298.796 C 328.564 299.403,327.243 299.937,327.888 299.973 C 328.420 300.002,340.894 296.420,341.167 296.159 C 341.465 295.874,339.822 296.045,339.000 296.385 M112.400 297.023 C 112.400 297.146,112.920 297.911,113.555 298.723 C 114.190 299.536,117.267 303.800,120.393 308.200 C 123.519 312.600,126.316 316.256,126.609 316.324 C 127.240 316.470,134.405 311.641,134.704 310.869 C 134.817 310.577,134.615 310.081,134.256 309.768 C 133.897 309.454,133.782 309.414,134.001 309.679 C 134.221 309.943,134.400 310.370,134.400 310.627 C 134.400 311.312,126.830 316.197,126.441 315.764 C 126.043 315.320,120.983 308.437,119.368 306.141 C 112.931 296.994,112.400 296.299,112.400 297.023 M309.300 297.434 C 307.802 298.089,307.793 298.135,308.622 300.686 C 309.876 304.544,310.033 304.800,311.149 304.794 C 311.727 304.791,312.470 304.604,312.800 304.379 C 313.236 304.082,313.007 304.038,311.962 304.218 C 310.655 304.443,310.484 304.363,310.084 303.333 C 309.333 301.400,308.368 298.298,308.487 298.201 C 308.549 298.151,309.410 297.829,310.400 297.486 C 311.390 297.144,311.840 296.864,311.400 296.864 C 310.960 296.865,310.015 297.121,309.300 297.434 M325.200 300.400 C 324.405 300.914,325.404 300.914,326.600 300.400 L 327.400 300.056 326.600 300.034 C 326.160 300.022,325.530 300.187,325.200 300.400 M321.200 301.600 C 319.990 301.997,319.242 302.339,319.538 302.361 C 320.201 302.409,324.400 301.209,324.400 300.972 C 324.400 300.673,323.467 300.856,321.200 301.600 M317.000 302.800 L 316.200 303.144 317.000 303.166 C 317.440 303.178,318.070 303.013,318.400 302.800 C 319.195 302.286,318.196 302.286,317.000 302.800 M314.200 303.600 L 313.400 303.944 314.200 303.966 C 314.640 303.978,315.270 303.813,315.600 303.600 C 316.395 303.086,315.396 303.086,314.200 303.600 M329.400 312.412 C 320.160 315.038,311.496 317.549,310.147 317.993 C 306.010 319.355,302.503 318.634,301.173 316.149 C 300.133 314.206,300.000 315.480,300.000 327.386 L 300.000 339.571 290.563 353.613 C 281.226 367.505,281.131 367.669,281.610 368.927 C 285.595 379.394,292.604 385.272,303.373 387.180 C 304.679 387.411,309.516 387.600,314.123 387.600 L 322.500 387.600 322.243 386.300 C 322.101 385.585,321.468 383.380,320.835 381.400 C 320.202 379.420,319.284 376.450,318.794 374.800 C 318.303 373.150,317.587 370.810,317.201 369.600 C 316.815 368.390,315.922 365.510,315.217 363.200 C 314.513 360.890,313.782 358.550,313.594 358.000 C 313.406 357.450,312.684 355.110,311.990 352.800 C 311.297 350.490,310.279 347.160,309.729 345.400 C 305.776 332.745,305.821 333.102,308.100 332.418 C 310.786 331.611,311.610 331.357,314.745 330.366 C 317.884 329.374,318.788 329.643,318.806 331.576 C 318.809 331.919,319.101 333.010,319.455 334.000 C 319.809 334.990,320.241 336.340,320.416 337.000 C 320.591 337.660,321.109 339.415,321.567 340.900 C 323.094 345.851,323.993 348.777,324.761 351.300 C 327.811 361.324,331.174 372.216,332.016 374.800 C 332.411 376.010,333.300 378.890,333.992 381.200 C 334.685 383.510,335.442 385.895,335.674 386.500 L 336.097 387.600 353.829 387.600 C 375.780 387.600,377.555 387.255,382.552 382.016 C 388.688 375.583,389.170 367.060,383.839 359.242 C 381.401 355.668,378.607 351.652,374.033 345.150 C 371.925 342.153,368.850 337.760,367.200 335.388 C 358.747 323.236,351.567 313.048,349.266 309.941 C 347.121 307.045,349.204 306.785,329.400 312.412 M278.800 348.348 C 269.741 361.987,268.408 364.049,269.072 363.400 C 269.933 362.560,287.649 335.953,287.528 335.684 C 287.458 335.528,283.530 341.226,278.800 348.348 M110.800 362.032 C 110.121 362.271,110.602 362.316,112.300 362.172 L 114.800 361.960 114.840 363.880 C 114.862 364.936,115.037 366.250,115.229 366.800 C 115.456 367.449,115.498 366.818,115.348 365.000 C 115.050 361.360,114.229 360.824,110.800 362.032 M267.689 365.100 C 263.448 371.196,261.600 374.009,261.600 374.370 C 261.600 374.607,261.432 374.800,261.227 374.800 C 261.022 374.800,260.740 375.159,260.601 375.598 C 260.462 376.036,260.127 376.621,259.858 376.898 C 259.589 377.174,257.935 379.600,256.184 382.288 C 254.433 384.977,252.730 387.251,252.400 387.342 C 251.949 387.466,251.974 387.519,252.502 387.554 C 253.058 387.590,264.499 371.147,268.543 364.500 C 269.133 363.531,268.445 364.014,267.689 365.100 M115.693 370.200 C 115.694 371.080,115.832 372.340,116.000 373.000 L 116.305 374.200 116.330 373.000 C 116.343 372.340,116.205 371.080,116.023 370.200 L 115.692 368.600 115.693 370.200 M116.473 376.200 C 116.458 377.080,116.595 378.520,116.777 379.400 L 117.108 381.000 117.124 379.600 C 117.133 378.830,116.997 377.390,116.820 376.400 L 116.500 374.600 116.473 376.200 M117.295 383.000 C 117.295 383.880,117.432 385.140,117.600 385.800 C 117.890 386.938,117.905 386.917,117.905 385.400 C 117.905 384.520,117.768 383.260,117.600 382.600 C 117.310 381.462,117.295 381.483,117.295 383.000 " stroke="none" fill="#9c6c64" fill-rule="evenodd"></path><path id="path3" d="M183.300 0.287 C 182.365 0.374,181.600 0.616,181.600 0.823 C 181.600 1.030,181.060 1.200,180.400 1.200 C 179.740 1.200,179.200 1.380,179.200 1.600 C 179.200 1.820,178.857 2.000,178.438 2.000 C 177.622 2.000,174.288 3.601,174.067 4.100 C 173.993 4.265,173.588 4.400,173.167 4.400 C 172.745 4.400,172.400 4.580,172.400 4.800 C 172.400 5.020,172.040 5.200,171.600 5.200 C 171.160 5.200,170.800 5.380,170.800 5.600 C 170.800 5.820,170.506 6.000,170.147 6.000 C 169.788 6.000,169.203 6.316,168.847 6.703 C 168.491 7.089,167.671 7.674,167.025 8.003 C 165.494 8.781,158.774 15.498,158.003 17.021 C 157.674 17.669,157.089 18.491,156.703 18.847 C 156.316 19.203,156.000 19.788,156.000 20.147 C 156.000 20.506,155.820 20.800,155.600 20.800 C 155.380 20.800,155.200 21.160,155.200 21.600 C 155.200 22.040,155.020 22.400,154.800 22.400 C 154.580 22.400,154.400 22.745,154.400 23.167 C 154.400 23.588,154.265 23.993,154.100 24.067 C 153.601 24.288,152.000 27.622,152.000 28.438 C 152.000 28.857,151.820 29.200,151.600 29.200 C 151.380 29.200,151.200 29.740,151.200 30.400 C 151.200 31.060,151.020 31.600,150.800 31.600 C 150.580 31.600,150.400 32.399,150.400 33.376 C 150.400 34.353,150.220 35.264,150.000 35.400 C 149.448 35.741,149.448 93.200,150.000 93.200 C 150.225 93.200,150.400 94.325,150.400 95.776 C 150.400 97.193,150.580 98.464,150.800 98.600 C 151.020 98.736,151.200 99.917,151.200 101.224 C 151.200 102.541,151.378 103.600,151.600 103.600 C 151.826 103.600,152.000 104.733,152.000 106.200 C 152.000 107.667,152.174 108.800,152.400 108.800 C 152.622 108.800,152.800 109.867,152.800 111.200 C 152.800 112.533,152.978 113.600,153.200 113.600 C 153.425 113.600,153.600 114.725,153.600 116.176 C 153.600 117.593,153.780 118.864,154.000 119.000 C 154.220 119.136,154.400 120.216,154.400 121.400 C 154.400 122.584,154.580 123.664,154.800 123.800 C 155.020 123.936,155.200 125.207,155.200 126.624 C 155.200 128.075,155.375 129.200,155.600 129.200 C 155.820 129.200,156.000 130.010,156.000 131.000 C 156.000 131.990,156.180 132.800,156.400 132.800 C 156.620 132.800,156.800 133.430,156.800 134.200 C 156.800 134.970,156.980 135.600,157.200 135.600 C 157.420 135.600,157.600 136.140,157.600 136.800 C 157.600 137.460,157.756 138.000,157.947 138.000 C 158.138 138.000,158.397 138.761,158.522 139.691 C 158.646 140.622,158.940 141.447,159.174 141.525 C 159.408 141.603,159.600 141.941,159.600 142.277 C 159.600 142.974,162.036 147.731,162.497 147.933 C 162.663 148.007,162.800 148.372,162.800 148.745 C 162.800 149.118,163.160 149.683,163.600 150.000 C 164.040 150.317,164.400 150.857,164.400 151.200 C 164.400 151.543,164.760 152.083,165.200 152.400 C 165.640 152.717,166.000 153.207,166.000 153.488 C 166.000 153.770,166.180 154.000,166.400 154.000 C 166.620 154.000,166.810 154.225,166.822 154.500 C 166.834 154.775,167.740 155.810,168.836 156.800 C 171.912 159.578,176.800 164.387,176.800 164.635 C 176.800 164.757,176.575 165.108,176.300 165.415 C 175.098 166.755,174.800 167.194,174.800 167.623 C 174.800 167.874,174.260 168.583,173.600 169.200 C 172.940 169.817,172.400 170.537,172.400 170.800 C 172.400 171.063,171.860 171.783,171.200 172.400 C 170.540 173.017,170.000 173.737,170.000 174.000 C 170.000 174.263,169.460 174.983,168.800 175.600 C 168.140 176.217,167.600 176.830,167.600 176.964 C 167.600 177.098,167.060 177.772,166.400 178.463 C 165.740 179.154,165.200 179.962,165.200 180.259 C 165.200 180.708,160.524 180.800,137.624 180.800 C 119.671 180.800,109.961 180.940,109.800 181.200 C 109.664 181.420,108.753 181.600,107.776 181.600 C 106.799 181.600,106.000 181.780,106.000 182.000 C 106.000 182.220,105.280 182.400,104.400 182.400 C 103.520 182.400,102.800 182.580,102.800 182.800 C 102.800 183.020,102.260 183.200,101.600 183.200 C 100.940 183.200,100.400 183.380,100.400 183.600 C 100.400 183.820,99.860 184.000,99.200 184.000 C 98.540 184.000,98.000 184.180,98.000 184.400 C 98.000 184.620,97.640 184.800,97.200 184.800 C 96.760 184.800,96.400 184.980,96.400 185.200 C 96.400 185.420,96.076 185.600,95.680 185.600 C 94.786 185.600,92.807 186.494,92.803 186.900 C 92.801 187.065,92.480 187.200,92.088 187.200 C 91.697 187.200,91.117 187.560,90.800 188.000 C 90.483 188.440,89.903 188.800,89.512 188.800 C 89.120 188.800,88.800 188.980,88.800 189.200 C 88.800 189.420,88.440 189.600,88.000 189.600 C 87.560 189.600,87.200 189.780,87.200 190.000 C 87.200 190.220,86.840 190.400,86.400 190.400 C 85.960 190.400,85.600 190.580,85.600 190.800 C 85.600 191.020,85.240 191.200,84.800 191.200 C 84.360 191.200,84.000 191.335,84.000 191.501 C 84.000 191.666,82.875 192.326,81.500 192.967 C 80.125 193.609,78.248 194.644,77.328 195.267 C 76.408 195.890,75.463 196.400,75.228 196.400 C 74.993 196.400,74.800 196.580,74.800 196.800 C 74.800 197.020,74.440 197.200,74.000 197.200 C 73.560 197.200,73.200 197.380,73.200 197.600 C 73.200 197.820,72.922 198.000,72.583 198.000 C 72.244 198.000,71.580 198.360,71.108 198.800 C 70.636 199.240,70.013 199.600,69.725 199.600 C 69.436 199.600,69.200 199.780,69.200 200.000 C 69.200 200.220,68.975 200.400,68.700 200.401 C 68.425 200.401,67.570 200.941,66.800 201.600 C 66.030 202.259,65.253 202.799,65.074 202.799 C 64.895 202.800,63.871 203.700,62.800 204.800 C 61.729 205.900,60.703 206.800,60.521 206.800 C 60.339 206.800,59.832 207.279,59.395 207.864 C 58.958 208.449,57.655 209.913,56.500 211.118 C 55.345 212.322,54.400 213.487,54.400 213.707 C 54.400 213.926,54.084 214.397,53.697 214.753 C 53.311 215.109,52.740 215.895,52.430 216.500 C 52.119 217.105,51.715 217.600,51.532 217.600 C 51.350 217.600,51.200 217.960,51.200 218.400 C 51.200 218.840,51.041 219.200,50.847 219.200 C 50.652 219.200,50.390 219.515,50.264 219.900 C 50.138 220.285,49.577 221.370,49.018 222.311 C 48.458 223.252,48.000 224.377,48.000 224.811 C 48.000 225.245,47.865 225.601,47.700 225.603 C 47.294 225.607,46.400 227.586,46.400 228.480 C 46.400 228.876,46.220 229.200,46.000 229.200 C 45.780 229.200,45.600 229.729,45.600 230.376 C 45.600 231.023,45.420 231.664,45.200 231.800 C 44.980 231.936,44.800 232.667,44.800 233.424 C 44.800 234.181,44.620 234.800,44.400 234.800 C 44.180 234.800,44.000 235.689,44.000 236.776 C 44.000 237.863,43.820 238.864,43.600 239.000 C 43.364 239.146,43.200 241.537,43.200 244.824 L 43.200 250.400 44.937 250.400 C 45.893 250.400,48.863 250.282,51.537 250.139 L 56.400 249.877 56.408 247.039 C 56.435 237.281,61.110 225.692,67.883 218.590 C 72.855 213.377,74.904 212.018,91.400 202.987 C 92.940 202.144,95.010 200.979,96.000 200.398 C 102.105 196.819,107.775 194.852,114.540 193.967 C 119.936 193.261,119.481 192.372,120.798 206.200 C 121.029 208.620,121.386 211.950,121.593 213.600 C 122.027 217.070,122.495 221.264,123.600 231.600 C 124.035 235.670,124.487 239.835,124.603 240.856 C 124.829 242.828,124.732 242.994,119.400 249.754 C 118.740 250.590,116.976 252.833,115.481 254.738 C 113.986 256.642,112.537 258.475,112.261 258.811 C 111.986 259.147,110.972 260.466,110.009 261.742 C 108.471 263.779,90.708 276.292,84.992 279.365 C 81.757 281.105,72.000 287.839,72.000 288.332 C 72.000 288.893,77.798 297.828,78.406 298.204 C 78.554 298.295,81.089 296.827,84.038 294.940 C 91.414 290.219,91.766 290.003,92.056 290.001 C 92.197 290.001,95.158 294.005,98.636 298.900 C 102.114 303.795,105.439 308.430,106.024 309.200 C 106.609 309.970,108.853 313.120,111.012 316.200 C 113.170 319.280,115.239 322.160,115.608 322.600 C 117.115 324.393,117.057 324.495,110.133 332.102 C 101.833 341.220,100.341 342.857,97.822 345.606 C 93.578 350.237,88.571 355.751,87.876 356.559 C 87.477 357.021,85.575 359.110,83.648 361.200 C 81.720 363.290,79.437 365.810,78.574 366.800 C 77.711 367.790,75.999 369.680,74.771 371.000 C 72.607 373.325,70.410 375.748,67.570 378.940 C 58.733 388.876,44.194 390.236,33.174 382.157 C 15.252 369.019,12.419 364.432,12.406 348.540 L 12.400 340.880 15.791 338.740 C 22.299 334.634,31.354 328.834,44.400 320.416 C 47.370 318.499,52.410 315.256,55.600 313.208 C 58.790 311.160,62.030 309.080,62.800 308.585 C 63.570 308.090,64.965 307.213,65.900 306.637 C 66.835 306.061,67.600 305.419,67.600 305.211 C 67.600 304.594,62.130 295.843,61.493 295.441 C 60.663 294.918,61.282 294.563,47.301 303.581 C 43.396 306.100,37.230 310.076,33.600 312.415 C 29.970 314.755,23.889 318.686,20.087 321.150 C 12.627 325.985,12.400 326.050,12.400 323.361 C 12.400 311.999,16.684 300.930,23.890 293.675 C 28.281 289.255,29.851 288.194,39.400 283.200 C 42.040 281.819,45.100 280.197,46.200 279.595 C 53.476 275.613,77.708 263.841,80.300 263.028 C 81.695 262.591,81.721 250.000,80.327 250.000 C 78.289 250.000,68.385 254.225,56.686 260.083 C 52.416 262.222,50.118 263.164,49.586 262.996 C 49.118 262.847,48.354 263.047,47.700 263.491 C 47.095 263.900,45.700 264.678,44.600 265.218 C 43.500 265.758,42.540 266.335,42.467 266.500 C 42.393 266.665,42.078 266.800,41.767 266.800 C 41.455 266.800,41.200 266.980,41.200 267.200 C 41.200 267.420,40.840 267.600,40.400 267.600 C 39.960 267.600,39.600 267.780,39.600 268.000 C 39.600 268.220,39.240 268.400,38.800 268.400 C 38.360 268.400,38.000 268.580,38.000 268.800 C 38.000 269.020,37.640 269.200,37.200 269.200 C 36.760 269.200,36.400 269.380,36.400 269.600 C 36.400 269.820,36.040 270.000,35.600 270.000 C 35.160 270.000,34.800 270.180,34.800 270.400 C 34.800 270.620,34.440 270.800,34.000 270.800 C 33.560 270.800,33.200 270.980,33.200 271.200 C 33.200 271.420,32.840 271.600,32.400 271.600 C 31.960 271.600,31.600 271.780,31.600 272.000 C 31.600 272.220,31.240 272.400,30.800 272.400 C 30.360 272.400,30.000 272.580,30.000 272.800 C 30.000 273.020,29.745 273.200,29.433 273.200 C 29.122 273.200,28.807 273.335,28.733 273.500 C 28.660 273.665,27.251 274.506,25.603 275.368 C 23.955 276.231,22.367 277.176,22.074 277.468 C 21.782 277.761,21.382 278.000,21.185 278.000 C 20.988 278.000,20.197 278.630,19.427 279.400 C 18.657 280.170,17.851 280.800,17.636 280.800 C 17.125 280.800,12.000 285.925,12.000 286.436 C 12.000 286.651,11.403 287.424,10.673 288.153 C 9.944 288.883,9.112 290.047,8.825 290.740 C 8.538 291.433,8.145 292.000,7.951 292.000 C 7.758 292.000,7.600 292.270,7.600 292.600 C 7.600 292.930,7.420 293.200,7.200 293.200 C 6.980 293.200,6.800 293.470,6.800 293.800 C 6.800 294.130,6.620 294.400,6.400 294.400 C 6.180 294.400,6.000 294.670,6.000 295.000 C 6.000 295.330,5.820 295.600,5.600 295.600 C 5.380 295.600,5.200 295.960,5.200 296.400 C 5.200 296.840,5.020 297.200,4.800 297.200 C 4.580 297.200,4.400 297.560,4.400 298.000 C 4.400 298.440,4.220 298.800,4.000 298.800 C 3.780 298.800,3.600 299.340,3.600 300.000 C 3.600 300.660,3.420 301.200,3.200 301.200 C 2.980 301.200,2.800 301.560,2.800 302.000 C 2.800 302.440,2.620 302.800,2.400 302.800 C 2.180 302.800,2.000 303.340,2.000 304.000 C 2.000 304.660,1.820 305.200,1.600 305.200 C 1.380 305.200,1.200 305.905,1.200 306.767 C 1.200 307.664,0.987 308.404,0.700 308.500 C -0.033 308.744,-0.033 364.856,0.700 365.100 C 0.975 365.192,1.200 365.792,1.200 366.433 C 1.200 367.075,1.380 367.600,1.600 367.600 C 1.820 367.600,2.000 367.960,2.000 368.400 C 2.000 368.840,2.180 369.200,2.400 369.200 C 2.620 369.200,2.800 369.560,2.800 370.000 C 2.800 370.440,2.980 370.800,3.200 370.800 C 3.420 370.800,3.600 371.160,3.600 371.600 C 3.600 372.040,3.736 372.400,3.902 372.400 C 4.069 372.400,4.458 372.972,4.768 373.672 C 5.078 374.372,5.841 375.479,6.465 376.131 C 7.089 376.784,7.600 377.471,7.600 377.656 C 7.600 378.364,12.966 384.000,13.640 384.000 C 13.838 384.000,14.741 384.720,15.648 385.600 C 16.555 386.480,17.473 387.200,17.688 387.200 C 17.903 387.200,18.556 387.710,19.140 388.333 C 19.723 388.957,20.639 389.701,21.175 389.988 C 22.246 390.560,22.760 390.952,24.201 392.300 C 24.730 392.795,25.312 393.200,25.494 393.200 C 25.675 393.200,26.083 393.560,26.400 394.000 C 26.717 394.440,27.297 394.800,27.688 394.800 C 28.080 394.800,28.400 394.959,28.400 395.153 C 28.400 395.348,28.715 395.607,29.100 395.729 C 29.485 395.851,30.340 396.259,31.000 396.636 C 32.914 397.729,33.549 398.000,34.195 398.000 C 34.528 398.000,34.800 398.180,34.800 398.400 C 34.800 398.620,35.325 398.800,35.967 398.800 C 36.608 398.800,37.208 399.025,37.300 399.300 C 37.428 399.684,40.009 399.800,48.400 399.800 C 56.791 399.800,59.372 399.684,59.500 399.300 C 59.592 399.025,60.192 398.800,60.833 398.800 C 61.475 398.800,62.000 398.620,62.000 398.400 C 62.000 398.180,62.540 398.000,63.200 398.000 C 63.860 398.000,64.400 397.820,64.400 397.600 C 64.400 397.380,64.760 397.200,65.200 397.200 C 65.640 397.200,66.000 397.020,66.000 396.800 C 66.000 396.580,66.360 396.400,66.800 396.400 C 67.240 396.400,67.600 396.220,67.600 396.000 C 67.600 395.780,67.836 395.600,68.125 395.600 C 68.413 395.600,69.036 395.240,69.508 394.800 C 69.980 394.360,70.554 394.000,70.783 394.000 C 71.012 394.000,71.200 393.820,71.200 393.600 C 71.200 393.380,71.410 393.200,71.667 393.200 C 72.231 393.200,83.407 381.960,84.799 379.993 C 85.341 379.227,86.868 377.507,88.192 376.170 C 90.929 373.409,93.200 370.870,93.200 370.571 C 93.200 370.460,94.820 368.763,96.800 366.800 C 98.780 364.837,100.400 363.047,100.400 362.822 C 100.400 362.284,106.457 356.388,106.795 356.597 C 106.938 356.685,106.979 356.235,106.885 355.596 C 106.686 354.240,106.896 353.944,112.070 348.300 C 114.121 346.062,116.700 343.234,117.800 342.015 C 118.900 340.797,119.890 339.710,120.001 339.600 C 120.111 339.490,121.821 337.605,123.801 335.412 C 125.780 333.218,127.760 331.050,128.200 330.594 C 129.303 329.450,154.832 312.400,155.442 312.400 C 155.560 312.400,156.441 311.860,157.400 311.200 C 158.359 310.540,159.238 310.000,159.352 310.000 C 159.466 310.000,160.334 309.480,161.280 308.843 C 164.063 306.972,176.451 299.200,176.651 299.200 C 176.751 299.200,177.051 299.018,177.317 298.795 C 177.583 298.572,179.266 297.447,181.058 296.295 L 184.316 294.200 183.339 292.800 C 182.802 292.030,182.067 290.770,181.706 290.000 C 179.991 286.338,178.014 283.965,177.082 284.451 C 176.157 284.934,156.526 297.112,152.896 299.456 C 151.738 300.203,149.626 301.527,148.201 302.399 L 145.611 303.985 143.276 300.492 C 141.992 298.572,140.827 296.691,140.688 296.313 C 140.474 295.733,151.132 288.679,153.792 287.641 C 154.016 287.553,154.952 286.968,155.872 286.341 C 156.792 285.713,157.619 285.200,157.710 285.200 C 157.802 285.200,164.429 281.261,172.438 276.446 C 180.447 271.631,187.135 267.772,187.300 267.870 C 187.465 267.967,187.600 270.396,187.600 273.266 C 187.600 280.892,189.107 285.466,193.308 290.595 C 195.036 292.706,198.857 296.000,199.577 296.000 C 199.809 296.000,200.000 296.136,200.000 296.302 C 200.000 297.041,205.527 298.963,209.513 299.610 C 214.891 300.484,222.897 298.466,226.960 295.213 C 231.632 291.472,234.693 287.159,236.336 282.000 C 237.098 279.607,237.593 273.675,237.597 266.900 C 237.599 263.325,237.700 260.400,237.822 260.400 C 237.944 260.400,238.877 260.779,239.895 261.243 C 250.954 266.281,265.070 262.422,271.642 252.564 C 273.576 249.663,280.523 241.644,281.000 241.762 C 281.419 241.865,281.600 242.091,288.455 251.043 C 293.609 257.774,297.909 263.376,300.396 266.600 C 314.420 284.779,313.489 283.266,311.100 283.982 C 310.165 284.262,309.040 284.626,308.600 284.790 C 303.545 286.680,302.247 286.709,300.723 284.971 C 299.995 284.141,299.220 283.263,299.000 283.021 C 298.780 282.779,297.613 281.415,296.406 279.990 C 295.199 278.566,294.029 277.203,293.806 276.962 C 293.583 276.721,289.987 272.531,285.815 267.649 C 281.643 262.768,278.013 258.825,277.748 258.887 C 277.100 259.039,269.430 266.024,269.286 266.594 C 269.223 266.842,269.493 267.416,269.886 267.871 C 270.279 268.326,271.426 269.666,272.435 270.849 C 273.445 272.032,276.595 275.716,279.435 279.037 C 282.276 282.357,285.274 285.867,286.099 286.837 L 287.597 288.600 287.599 312.253 L 287.600 335.906 270.388 361.753 L 253.176 387.600 185.615 387.600 C 119.792 387.600,118.048 387.581,117.815 386.846 C 117.683 386.432,117.395 384.587,117.173 382.746 C 116.136 374.112,115.925 372.400,115.556 369.600 C 115.339 367.950,115.058 365.559,114.932 364.286 L 114.702 361.971 112.251 362.266 C 110.903 362.429,109.350 362.501,108.800 362.427 C 108.250 362.354,106.540 362.272,105.000 362.247 L 102.200 362.200 102.085 365.900 C 102.012 368.263,102.120 369.600,102.385 369.600 C 102.637 369.600,102.800 370.856,102.800 372.800 C 102.800 374.667,102.967 376.000,103.200 376.000 C 103.431 376.000,103.600 377.259,103.600 378.976 C 103.600 380.613,103.780 382.064,104.000 382.200 C 104.220 382.336,104.400 383.787,104.400 385.424 C 104.400 387.141,104.569 388.400,104.800 388.400 C 105.033 388.400,105.200 389.733,105.200 391.600 C 105.200 393.467,105.367 394.800,105.600 394.800 C 105.820 394.800,106.000 395.340,106.000 396.000 C 106.000 396.660,106.180 397.200,106.400 397.200 C 106.620 397.200,106.800 397.483,106.800 397.829 C 106.800 399.928,101.767 399.790,182.971 399.917 C 263.776 400.043,260.811 400.097,261.638 398.484 C 261.944 397.888,262.511 397.109,262.897 396.753 C 263.284 396.397,263.600 395.852,263.600 395.541 C 263.600 395.231,263.960 394.717,264.400 394.400 C 264.840 394.083,265.200 393.543,265.200 393.200 C 265.200 392.857,265.560 392.317,266.000 392.000 C 266.440 391.683,266.800 391.193,266.800 390.912 C 266.800 390.630,266.950 390.400,267.132 390.400 C 267.315 390.400,267.720 389.905,268.032 389.300 C 268.345 388.695,268.915 387.851,269.300 387.425 C 269.685 386.998,270.000 386.413,270.000 386.125 C 270.000 385.836,270.150 385.600,270.332 385.600 C 270.515 385.600,270.920 385.108,271.232 384.506 C 272.472 382.115,274.000 381.513,274.000 383.416 C 274.000 383.700,274.135 383.993,274.300 384.067 C 274.465 384.140,275.103 384.941,275.717 385.846 C 277.130 387.929,281.737 392.400,282.470 392.400 C 282.774 392.400,283.283 392.760,283.600 393.200 C 283.917 393.640,284.457 394.000,284.800 394.000 C 285.143 394.000,285.683 394.360,286.000 394.800 C 286.317 395.240,286.897 395.600,287.288 395.600 C 287.680 395.600,288.000 395.780,288.000 396.000 C 288.000 396.220,288.360 396.400,288.800 396.400 C 289.240 396.400,289.600 396.580,289.600 396.800 C 289.600 397.020,289.960 397.200,290.400 397.200 C 290.840 397.200,291.200 397.380,291.200 397.600 C 291.200 397.820,291.650 398.000,292.200 398.000 C 292.750 398.000,293.200 398.180,293.200 398.400 C 293.200 398.620,293.725 398.800,294.367 398.800 C 295.008 398.800,295.608 399.025,295.700 399.300 C 295.832 399.696,304.609 399.800,337.800 399.800 C 370.991 399.800,379.768 399.696,379.900 399.300 C 379.992 399.025,380.592 398.800,381.233 398.800 C 381.875 398.800,382.400 398.620,382.400 398.400 C 382.400 398.180,382.760 398.000,383.200 398.000 C 383.640 398.000,384.000 397.820,384.000 397.600 C 384.000 397.380,384.360 397.200,384.800 397.200 C 385.240 397.200,385.600 397.020,385.600 396.800 C 385.600 396.580,385.870 396.400,386.200 396.400 C 386.530 396.400,386.800 396.220,386.800 396.000 C 386.800 395.780,387.030 395.600,387.312 395.600 C 387.593 395.600,388.083 395.240,388.400 394.800 C 388.717 394.360,389.136 394.000,389.332 394.000 C 389.795 394.000,394.000 389.795,394.000 389.332 C 394.000 389.136,394.360 388.717,394.800 388.400 C 395.240 388.083,395.600 387.593,395.600 387.312 C 395.600 387.030,395.780 386.800,396.000 386.800 C 396.220 386.800,396.400 386.530,396.400 386.200 C 396.400 385.870,396.580 385.600,396.800 385.600 C 397.020 385.600,397.200 385.240,397.200 384.800 C 397.200 384.360,397.380 384.000,397.600 384.000 C 397.820 384.000,398.000 383.640,398.000 383.200 C 398.000 382.760,398.180 382.400,398.400 382.400 C 398.620 382.400,398.800 381.875,398.800 381.233 C 398.800 380.592,399.025 379.992,399.300 379.900 C 399.682 379.773,399.800 377.448,399.800 370.086 C 399.800 362.902,399.672 360.312,399.300 359.940 C 399.025 359.665,398.800 359.026,398.800 358.520 C 398.800 358.014,398.620 357.600,398.400 357.600 C 398.180 357.600,398.000 357.240,398.000 356.800 C 398.000 356.360,397.820 356.000,397.600 356.000 C 397.380 356.000,397.200 355.680,397.200 355.288 C 397.200 354.897,396.840 354.317,396.400 354.000 C 395.960 353.683,395.600 353.143,395.600 352.800 C 395.600 352.457,395.240 351.917,394.800 351.600 C 394.360 351.283,394.000 350.743,394.000 350.400 C 394.000 350.057,393.640 349.517,393.200 349.200 C 392.760 348.883,392.400 348.455,392.400 348.249 C 392.400 348.044,391.950 347.286,391.400 346.564 C 390.850 345.843,390.400 345.089,390.400 344.889 C 390.400 344.688,390.040 344.198,389.600 343.800 C 389.160 343.402,388.800 342.874,388.800 342.626 C 388.800 342.379,388.440 341.917,388.000 341.600 C 387.560 341.283,387.200 340.838,387.199 340.612 C 387.199 340.385,386.659 339.570,386.000 338.800 C 385.341 338.030,384.801 337.215,384.801 336.988 C 384.800 336.762,384.440 336.317,384.000 336.000 C 383.560 335.683,383.200 335.143,383.200 334.800 C 383.200 334.457,382.840 333.917,382.400 333.600 C 381.960 333.283,381.600 332.838,381.599 332.612 C 381.599 332.385,381.059 331.570,380.400 330.800 C 379.741 330.030,379.201 329.215,379.201 328.988 C 379.200 328.762,378.840 328.317,378.400 328.000 C 377.960 327.683,377.600 327.193,377.600 326.912 C 377.600 326.630,377.450 326.400,377.268 326.400 C 377.085 326.400,376.680 325.905,376.368 325.300 C 376.055 324.695,375.620 323.981,375.400 323.714 C 374.464 322.576,374.170 322.141,373.632 321.100 C 373.320 320.495,372.915 320.000,372.732 320.000 C 372.550 320.000,372.400 319.775,372.400 319.500 C 372.399 319.225,371.949 318.477,371.400 317.838 C 370.850 317.199,370.400 316.532,370.400 316.356 C 370.400 316.180,369.950 315.586,369.400 315.036 C 368.850 314.486,368.400 313.824,368.400 313.565 C 368.400 313.306,368.084 312.803,367.697 312.447 C 367.311 312.091,366.740 311.305,366.430 310.700 C 366.119 310.095,365.715 309.600,365.532 309.600 C 365.350 309.600,365.200 309.418,365.200 309.196 C 365.200 308.974,364.660 308.228,364.000 307.537 C 363.340 306.846,362.800 306.078,362.800 305.829 C 362.800 305.580,362.440 305.117,362.000 304.800 C 361.560 304.483,361.200 303.943,361.200 303.600 C 361.200 303.257,360.840 302.717,360.400 302.400 C 359.960 302.083,359.600 301.580,359.600 301.283 C 359.600 300.986,359.375 300.492,359.100 300.185 C 357.107 297.963,356.328 296.270,354.047 289.200 C 352.876 285.570,351.756 282.287,351.559 281.905 C 351.361 281.523,351.200 280.848,351.200 280.405 C 351.200 279.962,351.020 279.600,350.800 279.600 C 350.538 279.600,350.400 270.808,350.400 254.024 C 350.400 237.404,350.260 228.361,350.000 228.200 C 349.780 228.064,349.600 227.423,349.600 226.776 C 349.600 226.129,349.420 225.600,349.200 225.600 C 348.980 225.600,348.800 225.060,348.800 224.400 C 348.800 223.740,348.620 223.200,348.400 223.200 C 348.180 223.200,348.000 222.840,348.000 222.400 C 348.000 221.960,347.820 221.600,347.600 221.600 C 347.380 221.600,347.200 221.240,347.200 220.800 C 347.200 220.360,347.020 220.000,346.800 220.000 C 346.580 220.000,346.400 219.680,346.400 219.288 C 346.400 218.897,346.040 218.317,345.600 218.000 C 345.160 217.683,344.800 217.163,344.800 216.844 C 344.800 216.274,323.552 194.971,321.157 193.140 C 320.482 192.623,318.576 190.895,316.923 189.300 C 315.270 187.705,313.666 186.400,313.359 186.400 C 313.052 186.400,312.800 186.242,312.800 186.049 C 312.800 185.855,312.260 185.473,311.600 185.200 C 310.940 184.927,310.400 184.545,310.400 184.351 C 310.400 184.158,310.040 184.000,309.600 184.000 C 309.160 184.000,308.800 183.820,308.800 183.600 C 308.800 183.380,308.451 183.200,308.024 183.200 C 307.597 183.200,307.136 183.020,307.000 182.800 C 306.864 182.580,306.313 182.400,305.776 182.400 C 305.239 182.400,304.800 182.220,304.800 182.000 C 304.800 181.780,304.181 181.600,303.424 181.600 C 302.667 181.600,301.936 181.420,301.800 181.200 C 301.461 180.652,267.739 180.652,267.400 181.200 C 267.264 181.420,266.533 181.600,265.776 181.600 C 265.019 181.600,264.400 181.780,264.400 182.000 C 264.400 182.220,263.860 182.400,263.200 182.400 C 262.540 182.400,262.000 182.580,262.000 182.800 C 262.000 183.020,261.640 183.200,261.200 183.200 C 260.760 183.200,260.400 183.346,260.400 183.525 C 260.400 183.704,259.770 184.098,259.000 184.400 C 258.230 184.702,257.600 185.096,257.600 185.275 C 257.600 185.454,257.060 185.600,256.400 185.600 C 255.740 185.600,255.200 185.420,255.200 185.200 C 255.200 184.980,254.917 184.800,254.571 184.800 C 253.267 184.800,252.216 182.808,253.200 182.200 C 253.420 182.064,253.600 181.524,253.600 181.000 C 253.600 180.476,253.780 179.936,254.000 179.800 C 254.220 179.664,254.400 179.124,254.400 178.600 C 254.400 178.076,254.580 177.536,254.800 177.400 C 255.020 177.264,255.200 176.740,255.200 176.235 C 255.200 175.353,255.364 175.307,259.499 175.040 C 261.863 174.887,263.969 174.591,264.179 174.381 C 264.389 174.171,264.916 174.000,265.352 174.000 C 266.204 174.000,268.567 173.320,269.695 172.751 C 270.077 172.558,270.610 172.400,270.881 172.400 C 271.564 172.400,278.170 169.156,278.333 168.740 C 278.407 168.553,278.812 168.400,279.233 168.400 C 279.655 168.400,280.000 168.220,280.000 168.000 C 280.000 167.780,280.320 167.600,280.712 167.600 C 281.103 167.600,281.683 167.240,282.000 166.800 C 282.317 166.360,282.857 166.000,283.200 166.000 C 283.543 166.000,284.083 165.640,284.400 165.200 C 284.717 164.760,285.200 164.400,285.474 164.400 C 286.122 164.400,296.400 154.121,296.400 153.472 C 296.400 153.200,296.760 152.717,297.200 152.400 C 297.640 152.083,298.000 151.543,298.000 151.200 C 298.000 150.857,298.360 150.317,298.800 150.000 C 299.240 149.683,299.600 149.103,299.600 148.712 C 299.600 148.320,299.759 148.000,299.953 148.000 C 300.148 148.000,300.407 147.685,300.529 147.300 C 300.651 146.915,301.025 146.150,301.360 145.600 C 302.297 144.062,303.600 141.111,303.600 140.525 C 303.600 140.236,303.780 140.000,304.000 140.000 C 304.220 140.000,304.400 139.561,304.400 139.024 C 304.400 138.487,304.580 137.936,304.800 137.800 C 305.020 137.664,305.200 137.124,305.200 136.600 C 305.200 136.076,305.380 135.536,305.600 135.400 C 305.820 135.264,306.000 134.634,306.000 134.000 C 306.000 133.366,306.180 132.736,306.400 132.600 C 306.620 132.464,306.800 131.474,306.800 130.400 C 306.800 129.326,306.980 128.336,307.200 128.200 C 307.420 128.064,307.600 126.984,307.600 125.800 C 307.600 124.616,307.764 123.546,307.965 123.422 C 308.166 123.298,308.459 121.037,308.616 118.398 C 308.774 115.759,309.060 113.600,309.251 113.600 C 309.443 113.600,309.600 112.520,309.600 111.200 C 309.600 109.867,309.778 108.800,310.000 108.800 C 310.226 108.800,310.400 107.667,310.400 106.200 C 310.400 104.733,310.574 103.600,310.800 103.600 C 311.022 103.600,311.200 102.533,311.200 101.200 C 311.200 99.867,311.378 98.800,311.600 98.800 C 311.829 98.800,312.000 97.600,312.000 96.000 C 312.000 94.400,312.171 93.200,312.400 93.200 C 312.661 93.200,312.800 86.713,312.800 74.539 L 312.800 55.877 307.937 56.139 C 305.263 56.282,302.383 56.400,301.537 56.400 L 300.000 56.400 300.000 72.380 C 300.000 81.169,299.836 89.224,299.635 90.280 C 299.435 91.336,299.069 93.550,298.821 95.200 C 298.574 96.850,298.198 99.325,297.986 100.700 C 297.774 102.075,297.420 104.370,297.200 105.800 C 296.980 107.230,296.623 109.525,296.407 110.900 C 296.190 112.275,295.624 116.010,295.148 119.200 C 293.911 127.500,294.063 127.254,291.499 125.080 C 287.743 121.894,284.024 120.159,278.800 119.155 C 271.129 117.681,266.467 108.110,269.997 101.082 C 271.756 97.578,273.978 95.831,279.676 93.472 C 287.454 90.252,289.777 79.331,284.776 69.491 C 283.466 66.912,279.058 60.207,278.410 59.806 C 277.515 59.253,278.093 58.142,279.854 57.030 C 288.663 51.464,293.854 41.271,293.540 30.155 C 293.463 27.430,293.438 25.200,293.484 25.200 C 295.366 25.202,299.948 36.788,299.986 41.639 L 300.000 43.477 304.863 43.739 C 307.537 43.882,310.417 44.000,311.263 44.000 L 312.800 44.000 312.800 39.824 C 312.800 37.471,312.625 35.539,312.400 35.400 C 312.180 35.264,312.000 34.353,312.000 33.376 C 312.000 32.399,311.820 31.600,311.600 31.600 C 311.380 31.600,311.200 31.060,311.200 30.400 C 311.200 29.740,311.020 29.200,310.800 29.200 C 310.580 29.200,310.400 28.871,310.400 28.468 C 310.400 28.065,309.951 26.850,309.402 25.768 C 308.853 24.686,308.403 23.500,308.402 23.133 C 308.401 22.767,308.265 22.407,308.100 22.333 C 307.935 22.260,307.359 21.390,306.820 20.400 C 306.281 19.410,305.516 18.251,305.120 17.825 C 304.724 17.398,304.400 16.895,304.400 16.707 C 304.400 15.911,295.534 7.600,294.685 7.600 C 294.406 7.600,293.917 7.240,293.600 6.800 C 293.283 6.360,292.703 6.000,292.312 6.000 C 291.920 6.000,291.600 5.820,291.600 5.600 C 291.600 5.380,291.330 5.200,291.000 5.200 C 290.670 5.200,290.400 5.020,290.400 4.800 C 290.400 4.580,290.040 4.400,289.600 4.400 C 289.160 4.400,288.800 4.220,288.800 4.000 C 288.800 3.780,288.440 3.600,288.000 3.600 C 287.560 3.600,287.200 3.420,287.200 3.200 C 287.200 2.980,286.840 2.800,286.400 2.800 C 285.960 2.800,285.600 2.620,285.600 2.400 C 285.600 2.180,285.060 2.000,284.400 2.000 C 283.740 2.000,283.200 1.820,283.200 1.600 C 283.200 1.380,282.675 1.200,282.033 1.200 C 281.392 1.200,280.792 0.975,280.700 0.700 C 280.541 0.223,188.167 -0.169,183.300 0.287 M272.530 13.209 C 283.416 18.326,284.353 38.657,274.048 46.152 C 269.132 49.728,267.604 50.068,256.600 50.032 C 246.184 49.998,242.740 50.414,238.600 52.205 C 234.891 53.809,234.122 54.000,231.370 54.000 C 229.757 54.000,227.934 53.795,227.319 53.544 C 226.703 53.293,225.660 52.856,225.000 52.573 C 220.036 50.443,216.437 49.969,205.707 50.034 C 193.933 50.105,191.227 49.269,186.266 44.029 C 178.142 35.448,180.134 18.378,189.859 13.248 C 192.276 11.973,269.823 11.937,272.530 13.209 M168.900 29.389 C 168.322 40.706,173.616 51.105,183.175 57.431 C 184.083 58.032,184.775 58.631,184.713 58.762 C 184.651 58.893,182.975 61.430,180.988 64.400 C 171.621 78.403,173.099 88.746,185.297 94.561 C 197.272 100.270,196.130 116.823,183.600 119.160 C 178.379 120.134,172.927 122.899,170.238 125.939 C 169.006 127.331,168.357 126.322,167.837 122.200 C 167.726 121.320,167.446 119.430,167.214 118.000 C 166.982 116.570,166.622 114.230,166.413 112.800 C 166.205 111.370,165.859 109.120,165.646 107.800 C 165.179 104.915,164.466 100.283,163.983 97.000 C 163.789 95.680,163.417 93.520,163.156 92.200 C 162.476 88.757,162.171 43.216,162.802 39.400 C 163.660 34.219,167.608 25.200,169.019 25.200 C 169.071 25.200,169.018 27.085,168.900 29.389 M220.200 63.955 C 226.943 66.755,233.765 67.218,239.000 65.232 C 246.856 62.251,246.381 62.337,254.200 62.474 C 263.986 62.645,266.022 63.545,270.044 69.479 C 275.363 77.324,276.509 81.685,273.500 82.628 C 255.822 88.168,250.736 110.681,263.954 124.877 C 267.056 128.208,267.048 127.840,264.119 132.258 C 253.843 147.758,233.928 154.056,216.800 147.222 C 209.387 144.264,202.363 138.507,198.044 131.849 C 195.534 127.979,195.534 128.027,198.050 125.477 C 212.270 111.064,207.756 90.635,188.500 82.256 C 185.187 80.815,191.650 67.975,197.524 64.327 C 201.502 61.857,214.627 61.641,220.200 63.955 M185.183 134.300 C 192.893 149.146,206.092 158.689,223.400 161.931 C 224.912 162.214,223.102 162.317,215.973 162.353 C 203.792 162.414,199.137 161.555,191.910 157.912 C 184.643 154.249,175.205 145.408,175.198 142.256 C 175.191 139.353,178.392 134.647,181.600 132.844 C 183.654 131.689,183.874 131.779,185.183 134.300 M280.751 132.775 C 284.674 134.776,288.387 140.948,287.122 143.364 C 285.162 147.108,278.395 153.564,273.498 156.364 C 264.750 161.364,260.166 162.399,247.000 162.350 C 239.936 162.324,237.876 162.215,239.200 161.939 C 257.252 158.179,272.250 147.083,277.980 133.248 C 278.587 131.783,278.751 131.755,280.751 132.775 M192.632 171.748 C 201.616 174.825,205.137 175.197,225.254 175.199 L 241.107 175.200 239.357 180.700 C 236.711 189.018,237.082 190.955,241.809 193.474 C 244.755 195.044,244.755 195.028,241.728 197.588 C 236.123 202.328,233.384 207.078,230.419 217.200 C 229.936 218.850,229.323 220.893,229.057 221.741 L 228.573 223.281 226.346 221.467 C 225.122 220.470,223.508 219.302,222.760 218.871 C 222.012 218.441,218.340 216.240,214.600 213.980 C 202.119 206.437,203.157 206.688,183.240 206.415 L 167.481 206.200 165.998 200.200 L 164.515 194.200 167.357 193.943 C 172.428 193.484,171.685 194.155,181.368 181.300 C 185.719 175.525,189.410 170.800,189.571 170.800 C 189.732 170.800,191.109 171.227,192.632 171.748 M151.991 195.300 C 152.223 196.235,152.590 197.675,152.806 198.500 C 153.023 199.325,153.380 200.720,153.600 201.600 C 154.673 205.894,154.881 206.688,155.227 207.828 C 155.805 209.732,155.686 210.221,154.500 210.822 C 149.034 213.588,143.987 218.463,137.405 227.329 C 136.273 228.854,135.679 228.662,135.452 226.700 C 135.343 225.765,135.055 223.200,134.812 221.000 C 134.568 218.800,134.206 215.650,134.007 214.000 C 133.808 212.350,133.447 209.110,133.204 206.800 C 132.962 204.490,132.592 201.395,132.382 199.923 C 132.172 198.451,132.000 196.426,132.000 195.423 L 132.000 193.600 141.785 193.600 L 151.569 193.600 151.991 195.300 M298.618 194.188 C 304.564 195.737,304.182 195.442,320.349 210.957 C 339.094 228.947,337.600 225.148,337.600 254.828 L 337.600 276.417 336.700 276.787 C 334.551 277.669,326.815 279.691,326.317 279.500 C 326.017 279.385,323.950 276.885,321.724 273.945 C 319.498 271.005,316.705 267.340,315.517 265.800 C 311.230 260.244,303.706 250.420,294.400 238.227 C 284.879 225.753,284.318 225.200,281.200 225.200 C 278.938 225.200,277.602 225.996,275.340 228.690 C 274.273 229.960,273.309 231.090,273.198 231.200 C 273.012 231.384,270.011 234.908,267.600 237.775 C 267.050 238.429,265.865 239.782,264.966 240.782 C 264.068 241.782,262.782 243.414,262.110 244.409 C 255.737 253.835,242.132 253.282,238.452 243.448 C 236.960 239.459,237.139 238.316,241.602 223.400 C 242.523 220.320,243.421 217.215,243.596 216.501 C 244.687 212.062,247.162 209.065,253.800 204.151 C 256.880 201.871,259.580 199.860,259.800 199.683 C 262.895 197.192,267.196 194.916,270.196 194.180 C 273.309 193.417,295.681 193.423,298.618 194.188 M198.059 219.373 C 200.531 220.123,201.388 220.573,209.800 225.545 C 220.115 231.641,223.199 235.010,224.651 241.772 C 225.350 245.029,225.419 275.164,224.734 277.923 C 222.295 287.739,209.843 290.852,203.200 283.306 C 200.236 279.937,200.000 278.680,200.000 266.234 C 200.000 253.088,199.865 252.545,196.120 250.648 C 193.661 249.403,191.979 249.961,184.800 254.403 C 181.945 256.169,164.397 266.760,160.881 268.839 C 160.287 269.191,155.480 272.067,150.200 275.232 C 144.920 278.396,140.240 281.181,139.800 281.422 C 139.360 281.662,137.618 282.701,135.928 283.730 C 132.100 286.060,132.360 286.089,130.342 283.100 C 129.414 281.725,128.178 279.970,127.596 279.200 C 127.014 278.430,125.150 275.844,123.453 273.454 C 119.847 268.375,119.620 269.675,125.383 262.400 C 127.387 259.870,130.505 255.910,132.312 253.600 C 157.636 221.228,157.209 221.659,166.200 219.393 C 169.234 218.628,195.551 218.612,198.059 219.373 M113.103 279.900 C 115.762 283.530,119.181 288.353,121.680 292.000 C 122.811 293.650,123.852 295.090,123.994 295.200 C 124.136 295.310,124.855 296.300,125.591 297.400 C 126.327 298.500,127.859 300.660,128.995 302.200 C 132.996 307.624,134.854 310.482,134.677 310.938 C 134.441 311.548,127.358 316.400,126.706 316.399 C 126.307 316.398,114.294 300.107,112.600 297.270 C 112.380 296.902,112.103 296.510,111.984 296.400 C 110.950 295.443,102.785 283.391,102.878 282.959 C 102.986 282.463,110.192 277.287,110.862 277.225 C 111.006 277.211,112.015 278.415,113.103 279.900 M339.925 289.310 C 340.399 289.881,341.389 292.730,341.791 294.679 L 342.054 295.958 338.727 296.951 C 336.897 297.498,333.690 298.430,331.600 299.022 C 329.510 299.614,326.000 300.619,323.800 301.256 C 319.317 302.554,318.187 302.875,315.600 303.588 C 314.610 303.860,313.387 304.245,312.881 304.442 C 310.401 305.409,310.059 305.105,308.604 300.634 C 307.799 298.158,307.921 297.873,310.057 297.239 C 311.016 296.955,312.113 296.560,312.495 296.361 C 312.877 296.162,313.543 296.000,313.976 296.000 C 314.408 296.000,315.176 295.839,315.681 295.642 C 316.187 295.445,317.410 295.067,318.400 294.803 C 319.390 294.538,320.513 294.160,320.895 293.961 C 321.277 293.762,321.894 293.600,322.266 293.600 C 322.918 293.600,324.930 293.031,326.600 292.375 C 327.040 292.202,327.850 291.974,328.400 291.869 C 328.950 291.763,331.470 291.048,334.000 290.279 C 339.375 288.646,339.374 288.646,339.925 289.310 M349.266 309.941 C 351.567 313.048,358.747 323.236,367.200 335.388 C 368.850 337.760,371.925 342.153,374.033 345.150 C 378.607 351.652,381.401 355.668,383.839 359.242 C 389.170 367.060,388.688 375.583,382.552 382.016 C 377.555 387.255,375.780 387.600,353.829 387.600 L 336.097 387.600 335.674 386.500 C 335.442 385.895,334.685 383.510,333.992 381.200 C 333.300 378.890,332.411 376.010,332.016 374.800 C 331.174 372.216,327.811 361.324,324.761 351.300 C 323.993 348.777,323.094 345.851,321.567 340.900 C 321.109 339.415,320.591 337.660,320.416 337.000 C 320.241 336.340,319.809 334.990,319.455 334.000 C 319.101 333.010,318.809 331.919,318.806 331.576 C 318.788 329.643,317.884 329.374,314.745 330.366 C 311.610 331.357,310.786 331.611,308.100 332.418 C 305.821 333.102,305.776 332.745,309.729 345.400 C 310.279 347.160,311.297 350.490,311.990 352.800 C 312.684 355.110,313.406 357.450,313.594 358.000 C 313.782 358.550,314.513 360.890,315.217 363.200 C 315.922 365.510,316.815 368.390,317.201 369.600 C 317.587 370.810,318.303 373.150,318.794 374.800 C 319.284 376.450,320.202 379.420,320.835 381.400 C 321.468 383.380,322.101 385.585,322.243 386.300 L 322.500 387.600 314.123 387.600 C 295.304 387.600,286.877 382.760,281.610 368.927 C 281.131 367.669,281.226 367.505,290.563 353.613 L 300.000 339.571 300.000 327.386 C 300.000 315.480,300.133 314.206,301.173 316.149 C 302.503 318.634,306.010 319.355,310.147 317.993 C 314.109 316.689,346.137 307.641,346.866 307.619 C 347.232 307.609,348.312 308.653,349.266 309.941 " stroke="none" fill="#040404" fill-rule="evenodd"></path><path id="path4" d="M168.302 25.900 C 166.209 28.254,163.578 34.711,162.802 39.400 C 162.171 43.216,162.476 88.757,163.156 92.200 C 163.417 93.520,163.789 95.680,163.983 97.000 C 164.466 100.283,165.179 104.915,165.646 107.800 C 165.859 109.120,166.205 111.370,166.413 112.800 C 166.622 114.230,166.982 116.570,167.214 118.000 C 167.446 119.430,167.726 121.320,167.837 122.200 C 168.357 126.322,169.006 127.331,170.238 125.939 C 172.927 122.899,178.379 120.134,183.600 119.160 C 187.600 118.414,190.200 116.323,192.332 112.137 C 193.244 110.345,194.010 106.514,193.238 107.600 C 193.004 107.930,192.809 108.543,192.806 108.962 C 192.788 111.228,189.201 113.941,179.984 118.662 C 176.566 120.413,172.733 122.533,171.468 123.373 C 168.770 125.163,168.830 125.192,168.383 121.932 C 168.192 120.539,167.846 118.230,167.614 116.800 C 167.382 115.370,167.008 112.940,166.783 111.400 C 166.558 109.860,166.184 107.430,165.952 106.000 C 165.721 104.570,165.380 102.410,165.195 101.200 C 164.560 97.036,163.940 92.995,163.599 90.800 C 163.411 89.590,163.141 87.700,162.998 86.600 L 162.739 84.600 163.709 86.600 C 165.913 91.144,169.166 93.071,175.945 93.844 C 186.238 95.018,192.772 98.706,192.806 103.361 C 192.809 103.823,192.987 104.470,193.200 104.800 C 194.171 106.303,193.511 103.150,192.381 100.889 C 190.862 97.849,189.077 96.261,185.217 94.513 C 173.192 89.070,171.681 78.314,180.988 64.400 C 182.975 61.430,184.651 58.893,184.713 58.762 C 184.775 58.631,184.083 58.032,183.175 57.431 C 173.616 51.105,168.322 40.706,168.900 29.389 C 169.018 27.085,169.071 25.200,169.019 25.200 C 168.967 25.200,168.644 25.515,168.302 25.900 M293.540 30.206 C 293.855 41.265,288.646 51.475,279.854 57.030 C 278.093 58.142,277.515 59.253,278.410 59.806 C 279.058 60.207,283.466 66.912,284.776 69.491 C 289.777 79.331,287.454 90.252,279.676 93.472 C 273.978 95.831,271.756 97.578,269.997 101.082 C 266.467 108.110,271.129 117.681,278.800 119.155 C 284.012 120.157,287.743 121.895,291.472 125.057 C 293.860 127.082,293.845 127.094,294.616 122.711 C 295.318 118.723,295.369 117.519,294.800 118.400 C 294.587 118.730,294.409 119.757,294.406 120.681 C 294.401 122.030,293.943 123.799,293.357 124.729 C 293.312 124.800,292.224 124.148,290.938 123.282 C 289.652 122.415,285.540 120.137,281.800 118.220 C 270.936 112.651,268.564 110.138,269.376 105.058 C 270.442 98.394,275.412 95.059,285.850 94.005 C 292.848 93.299,296.456 91.352,298.549 87.153 C 299.864 84.513,299.869 85.023,298.604 93.067 C 297.644 99.175,297.253 103.782,297.982 100.400 C 298.148 99.630,298.502 97.470,298.769 95.600 C 299.035 93.730,299.421 91.336,299.626 90.280 C 299.832 89.224,300.000 81.177,300.000 72.396 L 300.000 56.432 303.100 56.292 L 306.200 56.152 303.000 56.176 L 299.800 56.200 299.587 64.000 C 299.470 68.290,299.335 71.383,299.287 70.874 C 298.831 66.015,290.693 56.400,287.037 56.400 C 285.359 56.400,285.381 55.407,287.105 53.315 C 290.150 49.621,292.048 45.338,293.359 39.200 C 294.096 35.753,294.419 25.691,293.800 25.455 C 293.542 25.356,293.450 27.045,293.540 30.206 M294.478 26.600 C 294.549 26.820,295.259 28.260,296.056 29.800 C 297.718 33.011,298.634 36.040,299.319 40.600 L 299.801 43.800 303.000 43.824 L 306.200 43.848 303.100 43.708 L 300.000 43.568 299.986 41.684 C 299.963 38.641,298.437 33.220,296.585 29.600 C 295.711 27.892,294.204 25.746,294.478 26.600 M169.151 39.595 C 170.135 44.245,171.908 48.351,174.757 52.573 C 176.565 55.253,176.515 55.577,174.080 56.884 C 169.302 59.451,165.126 64.532,163.633 69.600 C 163.342 70.590,163.045 71.580,162.974 71.800 C 162.718 72.590,163.131 40.555,163.401 38.600 C 163.553 37.500,163.840 36.429,164.039 36.220 C 164.237 36.011,164.400 35.479,164.400 35.038 C 164.400 34.598,165.255 32.519,166.300 30.418 L 168.200 26.600 168.443 32.000 C 168.577 34.970,168.895 38.388,169.151 39.595 M297.103 102.800 C 296.942 103.350,296.827 104.520,296.846 105.400 L 296.880 107.000 297.256 105.400 C 297.462 104.520,297.578 103.350,297.513 102.800 L 297.395 101.800 297.103 102.800 M296.303 108.000 C 296.142 108.550,296.027 109.720,296.046 110.600 L 296.080 112.200 296.456 110.600 C 296.662 109.720,296.778 108.550,296.713 108.000 L 296.595 107.000 296.303 108.000 M295.496 113.333 C 295.333 113.736,295.220 114.906,295.244 115.933 L 295.288 117.800 295.649 116.000 C 296.082 113.848,295.983 112.129,295.496 113.333 M181.600 132.844 C 178.052 134.838,174.671 140.238,175.329 142.859 C 175.878 145.048,182.332 151.746,186.878 154.847 C 195.357 160.629,202.369 162.424,216.200 162.353 C 223.186 162.317,224.919 162.215,223.400 161.931 C 206.092 158.689,192.893 149.146,185.183 134.300 C 183.874 131.779,183.654 131.689,181.600 132.844 M277.980 133.248 C 277.157 135.236,273.303 141.189,271.283 143.595 C 262.932 153.539,253.794 158.769,239.200 161.958 C 237.898 162.242,240.278 162.319,247.800 162.234 C 262.110 162.074,267.534 160.554,276.531 154.181 C 280.304 151.508,285.784 145.911,287.121 143.364 C 288.388 140.949,284.675 134.777,280.751 132.775 C 278.751 131.755,278.587 131.783,277.980 133.248 M270.200 194.183 C 267.094 194.950,260.015 198.771,260.003 199.687 C 260.002 199.844,261.125 199.207,262.500 198.270 C 268.319 194.304,269.893 194.000,284.586 194.000 C 296.621 194.000,298.371 194.173,302.096 195.730 C 303.395 196.273,306.994 198.519,307.615 199.174 C 307.733 199.298,309.452 200.930,311.435 202.800 C 313.999 205.218,313.727 204.891,310.495 201.667 C 305.663 196.848,303.435 195.442,298.657 194.198 C 295.675 193.421,273.330 193.409,270.200 194.183 M253.749 204.149 C 250.697 206.430,247.711 208.933,247.113 209.711 C 245.842 211.363,243.603 215.653,243.594 216.449 C 243.591 216.752,243.314 217.788,242.979 218.751 C 242.643 219.714,242.462 220.595,242.575 220.708 C 242.793 220.926,242.824 220.841,243.592 218.000 C 243.859 217.010,244.240 215.887,244.439 215.505 C 244.638 215.123,244.800 214.620,244.800 214.386 C 244.800 212.813,249.040 207.827,252.197 205.688 C 253.079 205.091,253.890 204.506,254.000 204.387 C 254.110 204.269,255.415 203.315,256.900 202.266 C 259.302 200.570,259.943 200.000,259.449 200.000 C 259.366 200.000,256.801 201.867,253.749 204.149 M315.600 206.589 C 315.600 206.731,318.426 209.582,321.881 212.924 C 325.335 216.266,329.589 220.424,331.333 222.166 C 333.077 223.907,334.211 224.883,333.853 224.336 C 333.122 223.222,315.600 206.185,315.600 206.589 M167.200 219.221 C 166.552 219.442,167.045 219.480,168.600 219.331 C 169.920 219.204,171.075 219.032,171.167 218.950 C 171.490 218.659,168.186 218.884,167.200 219.221 M195.000 219.223 C 195.880 219.405,196.960 219.552,197.400 219.549 L 198.200 219.544 197.400 219.200 C 196.960 219.011,195.880 218.864,195.000 218.874 L 193.400 218.892 195.000 219.223 M164.000 220.000 C 163.467 220.345,163.467 220.388,164.000 220.388 C 164.330 220.388,164.870 220.213,165.200 220.000 C 165.733 219.655,165.733 219.612,165.200 219.612 C 164.870 219.612,164.330 219.787,164.000 220.000 M201.000 221.003 C 203.843 222.399,205.509 223.324,207.350 224.530 C 207.912 224.899,208.510 225.200,208.679 225.200 C 209.206 225.200,206.349 223.390,202.767 221.455 C 200.879 220.435,199.079 219.606,198.767 219.614 C 198.455 219.622,199.460 220.247,201.000 221.003 M242.046 221.667 C 242.021 222.034,241.896 222.664,241.770 223.067 C 241.552 223.762,241.563 223.763,241.997 223.087 C 242.248 222.696,242.373 222.066,242.273 221.687 C 242.111 221.068,242.088 221.066,242.046 221.667 M156.906 223.754 C 154.088 225.828,153.081 227.050,132.312 253.600 C 130.505 255.910,127.387 259.870,125.383 262.400 C 119.620 269.675,119.847 268.375,123.453 273.454 C 125.150 275.844,127.014 278.430,127.596 279.200 C 128.178 279.970,129.414 281.725,130.342 283.100 C 132.360 286.089,132.100 286.060,135.928 283.730 C 137.618 282.701,139.360 281.662,139.800 281.422 C 140.240 281.181,144.920 278.396,150.200 275.232 C 155.480 272.067,160.287 269.191,160.881 268.839 C 164.397 266.760,181.945 256.169,184.800 254.403 C 191.979 249.961,193.661 249.403,196.120 250.648 C 199.865 252.545,200.000 253.088,200.000 266.234 C 200.000 278.680,200.236 279.937,203.200 283.306 C 209.632 290.612,222.884 287.560,224.549 278.389 C 224.823 276.885,224.806 276.911,223.374 280.282 C 220.343 287.418,210.172 289.218,204.272 283.662 C 200.841 280.432,200.410 278.410,200.404 265.549 C 200.401 257.074,200.279 254.609,199.810 253.486 C 198.208 249.650,192.953 248.527,189.180 251.214 C 188.573 251.646,187.957 252.000,187.810 252.000 C 187.664 252.000,186.759 252.540,185.800 253.200 C 184.841 253.860,183.943 254.400,183.806 254.400 C 183.669 254.400,182.496 255.120,181.200 256.000 C 179.904 256.880,178.654 257.600,178.422 257.600 C 178.190 257.600,178.000 257.759,178.000 257.953 C 178.000 258.148,177.685 258.410,177.300 258.536 C 176.915 258.662,175.880 259.197,175.000 259.725 C 174.120 260.254,169.010 263.322,163.645 266.543 C 158.280 269.764,153.812 272.400,153.717 272.400 C 153.622 272.400,152.759 272.940,151.800 273.600 C 150.841 274.260,149.863 274.800,149.628 274.800 C 149.393 274.800,149.200 274.959,149.200 275.153 C 149.200 275.348,148.885 275.607,148.500 275.729 C 147.564 276.025,145.434 277.324,145.267 277.700 C 145.193 277.865,144.956 278.000,144.739 278.000 C 144.522 278.000,143.559 278.540,142.600 279.200 C 141.641 279.860,140.760 280.400,140.642 280.400 C 140.524 280.400,138.757 281.410,136.714 282.645 C 134.671 283.880,132.876 284.964,132.725 285.053 C 132.574 285.143,131.864 284.358,131.148 283.308 C 130.432 282.259,129.701 281.340,129.523 281.267 C 129.345 281.193,129.200 280.893,129.200 280.600 C 129.200 280.307,129.055 280.007,128.877 279.933 C 128.699 279.860,127.946 278.900,127.203 277.800 C 126.460 276.700,125.749 275.710,125.622 275.600 C 125.495 275.490,124.426 273.989,123.247 272.264 C 120.838 268.741,120.838 268.721,123.435 265.746 C 124.178 264.896,124.788 264.073,124.792 263.918 C 124.797 263.763,125.209 263.223,125.709 262.718 C 126.208 262.213,127.058 261.170,127.596 260.400 C 128.134 259.630,128.807 258.759,129.093 258.465 C 129.378 258.171,130.103 257.271,130.704 256.465 C 131.304 255.659,131.890 254.910,132.006 254.800 C 132.122 254.690,133.293 253.230,134.608 251.554 C 135.924 249.879,137.540 247.830,138.200 247.000 C 138.860 246.171,139.566 245.201,139.768 244.846 C 139.970 244.491,140.429 243.930,140.787 243.600 C 141.145 243.270,141.873 242.370,142.406 241.600 C 142.938 240.830,143.607 239.959,143.893 239.665 C 144.178 239.371,144.904 238.471,145.506 237.665 C 146.108 236.859,146.780 235.998,147.000 235.751 C 147.220 235.504,148.480 233.884,149.800 232.151 C 152.710 228.329,158.143 222.800,158.987 222.800 C 159.324 222.800,159.600 222.620,159.600 222.400 C 159.600 221.799,159.479 221.859,156.906 223.754 M241.246 224.467 C 241.221 224.834,241.096 225.464,240.970 225.867 C 240.752 226.562,240.763 226.563,241.197 225.887 C 241.448 225.496,241.573 224.866,241.473 224.487 C 241.311 223.868,241.288 223.866,241.246 224.467 M278.216 225.324 C 277.063 226.025,275.066 228.140,270.738 233.245 C 268.614 235.750,266.478 238.250,265.993 238.800 C 265.508 239.350,264.456 240.610,263.655 241.599 C 262.855 242.589,261.975 243.637,261.700 243.928 C 261.425 244.219,261.200 244.624,261.200 244.829 C 261.200 245.462,257.914 248.428,256.299 249.251 C 250.259 252.333,241.269 249.641,239.171 244.124 C 238.955 243.555,238.671 243.196,238.540 243.326 C 238.068 243.799,240.492 247.262,242.127 248.450 C 248.813 253.310,257.245 251.605,262.110 244.409 C 262.782 243.414,264.068 241.782,264.966 240.782 C 265.865 239.782,267.050 238.429,267.600 237.775 C 270.011 234.908,273.012 231.384,273.198 231.200 C 273.309 231.090,274.273 229.960,275.340 228.690 C 277.602 225.996,278.938 225.200,281.200 225.200 C 284.318 225.200,284.879 225.753,294.400 238.227 C 303.706 250.420,311.230 260.244,315.517 265.800 C 316.705 267.340,319.498 271.005,321.724 273.945 C 326.553 280.324,325.899 280.002,330.932 278.484 C 333.247 277.785,334.524 277.245,333.895 277.228 C 333.287 277.213,332.477 277.358,332.095 277.551 C 330.296 278.459,326.000 279.416,326.000 278.907 C 326.000 278.711,325.680 278.202,325.289 277.775 C 324.898 277.349,324.142 276.370,323.608 275.600 C 323.075 274.830,322.531 274.110,322.400 274.000 C 322.269 273.890,321.729 273.170,321.200 272.400 C 320.671 271.630,320.140 270.910,320.019 270.800 C 319.899 270.690,318.982 269.520,317.982 268.200 C 314.492 263.592,311.855 260.198,311.609 260.000 C 311.473 259.890,310.929 259.170,310.400 258.400 C 309.871 257.630,309.331 256.910,309.200 256.800 C 309.069 256.690,308.529 255.970,308.000 255.200 C 307.471 254.430,306.936 253.710,306.812 253.600 C 306.687 253.490,304.974 251.240,303.006 248.600 C 301.038 245.960,299.331 243.710,299.213 243.600 C 299.095 243.490,298.188 242.324,297.199 241.009 C 295.195 238.346,294.398 237.329,293.787 236.655 C 293.560 236.405,292.938 235.570,292.406 234.800 C 291.874 234.030,291.339 233.310,291.218 233.200 C 291.097 233.090,290.199 231.920,289.222 230.600 C 286.861 227.410,285.159 225.600,284.522 225.600 C 284.235 225.600,284.000 225.420,284.000 225.200 C 284.000 224.638,279.174 224.741,278.216 225.324 M209.200 225.554 C 209.200 225.799,209.390 226.000,209.622 226.000 C 209.854 226.000,211.069 226.680,212.322 227.511 C 213.575 228.342,215.135 229.287,215.788 229.611 C 218.873 231.141,223.921 237.919,224.028 240.675 C 224.044 241.074,224.219 241.760,224.419 242.200 C 224.672 242.759,224.708 242.517,224.540 241.400 C 223.825 236.664,219.619 231.333,214.000 228.043 C 212.350 227.077,210.595 226.022,210.100 225.697 C 209.524 225.320,209.200 225.269,209.200 225.554 M335.010 226.818 C 335.381 227.537,335.923 228.772,336.214 229.562 C 336.505 230.353,336.756 230.683,336.772 230.296 C 336.805 229.470,335.283 226.099,334.721 225.751 C 334.508 225.619,334.638 226.100,335.010 226.818 M239.844 229.159 C 239.456 230.541,239.234 231.767,239.350 231.883 C 239.466 231.999,239.674 231.578,239.813 230.947 C 239.952 230.316,240.248 229.314,240.473 228.720 C 240.697 228.127,240.806 227.417,240.714 227.143 C 240.623 226.870,240.231 227.777,239.844 229.159 M337.116 253.814 L 337.231 276.400 336.216 276.400 C 335.657 276.400,335.200 276.580,335.200 276.800 C 335.200 277.315,335.848 277.309,336.826 276.786 C 337.618 276.362,338.040 233.853,337.272 231.914 C 337.122 231.536,337.052 241.391,337.116 253.814 M238.846 232.667 C 238.821 232.924,238.684 233.464,238.541 233.867 C 238.340 234.436,238.394 234.497,238.779 234.142 C 239.052 233.891,239.189 233.351,239.084 232.942 C 238.979 232.534,238.872 232.410,238.846 232.667 M237.778 236.578 C 237.627 237.381,237.594 238.127,237.704 238.237 C 237.814 238.347,238.027 237.781,238.178 236.978 C 238.328 236.175,238.362 235.428,238.252 235.318 C 238.142 235.208,237.928 235.775,237.778 236.578 M237.668 240.400 C 237.662 240.950,237.811 241.760,238.000 242.200 L 238.344 243.000 238.332 242.200 C 238.326 241.760,238.176 240.950,238.000 240.400 L 237.680 239.400 237.668 240.400 M276.800 246.095 C 274.710 248.533,272.386 251.444,271.635 252.564 C 270.885 253.684,269.800 255.050,269.225 255.600 L 268.180 256.600 270.429 258.800 C 271.666 260.010,272.853 261.326,273.068 261.724 C 273.421 262.379,273.655 262.273,275.488 260.624 C 278.149 258.232,277.233 257.608,285.826 267.662 C 289.992 272.536,293.583 276.721,293.806 276.962 C 294.029 277.203,295.199 278.566,296.406 279.990 C 297.613 281.415,298.780 282.779,299.000 283.021 C 299.220 283.263,299.995 284.141,300.723 284.971 C 302.247 286.709,303.545 286.680,308.600 284.790 C 309.040 284.626,310.165 284.262,311.100 283.982 C 313.489 283.266,314.420 284.779,300.396 266.600 C 297.909 263.376,293.609 257.774,288.455 251.043 C 281.600 242.091,281.419 241.865,281.000 241.762 C 280.780 241.707,278.890 243.657,276.800 246.095 M224.983 260.200 C 224.983 269.440,225.036 273.163,225.100 268.473 C 225.164 263.783,225.164 256.223,225.099 251.673 C 225.035 247.123,224.983 250.960,224.983 260.200 M172.438 276.446 C 164.429 281.261,157.802 285.200,157.710 285.200 C 157.619 285.200,156.792 285.713,155.872 286.341 C 154.952 286.968,154.016 287.553,153.792 287.641 C 151.132 288.679,140.474 295.733,140.688 296.313 C 140.827 296.691,141.992 298.572,143.276 300.492 L 145.611 303.985 148.201 302.399 C 149.626 301.527,151.738 300.203,152.896 299.456 C 156.535 297.107,176.158 284.934,177.087 284.449 C 177.908 284.020,178.106 284.183,179.743 286.624 C 180.717 288.075,181.577 289.093,181.656 288.888 C 181.792 288.534,188.589 284.233,189.072 284.194 C 189.112 284.191,188.797 282.935,188.372 281.403 C 187.789 279.298,187.600 277.326,187.600 273.332 C 187.600 270.425,187.465 267.967,187.300 267.870 C 187.135 267.772,180.447 271.631,172.438 276.446 " stroke="none" fill="#3457df" fill-rule="evenodd"></path></g></svg>