<svg id="svg" version="1.1" xmlns="http://www.w3.org/2000/svg" xmlns:xlink="http://www.w3.org/1999/xlink" width="400" height="400" viewBox="0, 0, 400,400"><g id="svgg"><path id="path0" d="M228.100 40.598 C 227.731 41.018,227.600 43.590,227.600 50.437 C 227.600 62.509,226.960 64.372,222.394 65.602 L 220.778 66.037 220.889 71.512 L 221.000 76.987 222.425 77.219 C 226.069 77.810,227.337 79.983,227.538 85.981 C 228.091 102.490,220.622 114.577,207.000 119.217 C 204.502 120.068,203.099 120.365,200.400 120.614 C 195.570 121.061,196.000 119.736,196.000 134.168 L 196.000 146.709 197.500 147.418 C 198.325 147.808,201.610 149.380,204.800 150.912 C 207.990 152.443,212.400 154.549,214.600 155.592 C 216.800 156.634,221.120 158.704,224.200 160.192 C 233.155 164.517,239.068 167.358,244.000 169.704 C 251.746 173.388,257.975 176.371,263.000 178.802 C 265.640 180.080,271.369 182.852,275.731 184.962 C 280.093 187.073,283.732 188.800,283.817 188.800 C 283.902 188.800,285.773 189.686,287.976 190.769 L 291.980 192.738 294.090 191.717 C 295.250 191.156,297.820 189.932,299.800 188.997 C 304.381 186.833,312.334 183.025,319.000 179.804 C 321.860 178.422,326.900 175.987,330.200 174.392 C 333.500 172.798,337.730 170.782,339.600 169.912 C 341.470 169.041,345.610 167.064,348.800 165.517 C 351.990 163.970,357.030 161.531,360.000 160.097 C 362.970 158.663,369.900 155.294,375.400 152.609 C 380.900 149.925,385.985 147.475,386.700 147.166 L 388.000 146.605 388.000 134.351 C 388.000 120.205,388.419 121.437,383.392 120.796 C 373.110 119.484,364.439 113.596,359.648 104.675 C 358.962 103.397,358.400 102.012,358.400 101.599 C 358.400 101.186,358.220 100.736,358.000 100.600 C 357.780 100.464,357.600 99.949,357.600 99.456 C 357.600 98.963,357.375 98.335,357.100 98.060 C 356.713 97.674,356.555 91.187,356.400 69.451 C 356.218 43.833,356.140 41.283,355.529 40.671 C 354.466 39.609,337.629 39.663,336.662 40.731 C 336.069 41.387,336.000 43.159,336.000 57.785 C 336.000 78.405,335.541 81.567,331.277 90.355 C 314.084 125.780,261.376 122.043,250.107 84.600 C 249.644 83.060,249.041 81.080,248.767 80.200 C 248.411 79.057,248.223 73.346,248.108 60.200 C 247.974 44.973,247.846 41.645,247.364 40.900 C 246.628 39.763,229.077 39.488,228.100 40.598 M75.200 69.400 L 75.200 75.200 84.000 75.200 L 92.800 75.200 92.800 69.400 L 92.800 63.600 84.000 63.600 L 75.200 63.600 75.200 69.400 M289.378 132.032 C 294.631 134.501,294.933 135.485,295.113 150.700 L 295.260 163.200 296.207 163.200 C 301.861 163.200,303.375 171.949,298.187 174.641 C 296.921 175.297,281.889 175.455,280.326 174.828 C 274.621 172.539,275.929 163.200,281.954 163.200 C 282.793 163.200,282.800 163.113,282.800 153.200 L 282.800 143.200 281.459 143.200 C 275.882 143.200,274.088 134.509,279.118 131.856 C 280.917 130.907,287.215 131.015,289.378 132.032 M75.200 211.600 L 75.200 262.000 84.000 262.000 L 92.800 262.000 92.800 211.600 L 92.800 161.200 84.000 161.200 L 75.200 161.200 75.200 211.600 M211.647 245.252 C 203.643 250.064,197.015 254.000,196.919 254.000 C 196.823 254.000,195.959 254.540,195.000 255.200 C 194.041 255.860,193.141 256.400,193.000 256.400 C 192.859 256.400,191.959 256.940,191.000 257.600 C 190.041 258.260,189.151 258.800,189.022 258.800 C 188.893 258.800,187.845 259.409,186.694 260.153 C 184.840 261.351,171.362 269.436,167.033 271.947 C 166.135 272.468,164.922 273.233,164.338 273.647 C 163.754 274.061,163.152 274.400,163.000 274.400 C 162.848 274.400,162.246 274.739,161.662 275.153 C 161.078 275.567,159.870 276.332,158.977 276.853 C 148.892 282.739,149.061 282.568,151.672 284.294 C 153.142 285.266,153.713 285.397,156.372 285.375 L 159.400 285.351 166.800 280.829 C 170.870 278.342,174.740 275.995,175.400 275.615 C 176.060 275.235,180.073 272.826,184.317 270.262 C 188.562 267.698,192.130 265.600,192.245 265.600 C 192.361 265.600,193.241 265.060,194.200 264.400 C 195.159 263.740,196.137 263.200,196.372 263.200 C 196.607 263.200,196.800 263.020,196.800 262.800 C 196.800 262.580,196.952 262.400,197.138 262.400 C 197.324 262.400,201.869 259.764,207.238 256.543 C 212.607 253.322,217.630 250.340,218.400 249.916 C 224.567 246.523,226.516 243.898,226.318 239.255 L 226.200 236.505 211.647 245.252 M244.450 280.292 C 244.686 281.066,250.167 288.776,250.490 288.789 C 250.650 288.795,249.501 286.955,247.936 284.700 C 244.969 280.423,244.189 279.438,244.450 280.292 M109.606 330.700 C 109.617 331.279,110.830 334.492,111.660 336.137 C 116.101 344.951,124.493 350.757,134.600 352.008 C 141.702 352.887,349.773 352.347,352.131 351.444 C 357.399 349.425,359.200 345.678,359.200 336.736 L 359.200 330.928 348.935 330.664 C 334.668 330.297,109.599 330.331,109.606 330.700 M75.200 353.800 L 75.200 359.600 84.000 359.600 L 92.800 359.600 92.800 353.800 L 92.800 348.000 84.000 348.000 L 75.200 348.000 75.200 353.800 " stroke="none" fill="#e9bbc5" fill-rule="evenodd"></path><path id="path1" d="M239.100 235.201 C 238.507 235.573,238.400 236.269,238.400 239.754 C 238.400 245.028,236.511 250.882,234.187 252.811 C 233.289 253.556,233.402 253.827,236.340 257.953 C 237.847 260.069,239.829 262.880,240.743 264.200 C 241.657 265.520,243.330 267.935,244.459 269.566 C 246.883 273.065,247.323 275.110,246.193 277.615 C 245.800 278.487,245.326 279.200,245.139 279.200 C 244.368 279.200,244.937 280.399,247.418 284.000 C 250.956 289.135,250.700 288.931,252.877 288.348 C 256.154 287.472,257.826 288.696,262.507 295.400 C 270.490 306.831,272.210 309.310,272.600 309.947 C 272.820 310.306,273.104 310.690,273.230 310.800 C 273.357 310.910,274.237 312.170,275.187 313.600 C 276.137 315.030,277.280 316.605,277.727 317.100 L 278.539 318.000 318.870 318.000 L 359.200 318.000 359.200 280.819 C 359.200 253.898,359.074 243.329,358.744 242.519 C 358.493 241.903,358.040 240.826,357.737 240.125 C 354.872 233.492,340.800 233.571,340.800 240.221 C 340.800 242.365,334.258 252.200,330.028 256.417 C 306.650 279.719,266.721 272.648,253.130 242.800 C 249.779 235.440,249.574 235.270,243.738 234.967 C 241.224 234.837,239.547 234.921,239.100 235.201 M202.400 273.597 C 201.850 274.029,201.252 274.386,201.072 274.391 C 200.892 274.396,199.959 274.940,199.000 275.600 C 198.041 276.260,197.108 276.801,196.928 276.802 C 196.748 276.803,196.092 277.210,195.471 277.707 L 194.343 278.610 195.708 280.405 C 196.459 281.392,198.857 284.784,201.036 287.943 C 208.924 299.372,218.204 312.675,220.399 315.700 L 222.068 318.000 228.434 318.000 C 231.935 318.000,234.800 317.922,234.800 317.827 C 234.800 317.609,227.939 307.472,227.608 307.200 C 227.386 307.017,225.028 303.644,219.920 296.200 C 218.863 294.660,216.912 291.870,215.585 290.000 C 214.258 288.130,211.378 283.990,209.186 280.800 C 206.994 277.610,204.796 274.508,204.300 273.906 L 203.400 272.812 202.400 273.597 M137.550 289.753 C 135.315 290.897,124.096 297.664,121.164 299.638 C 115.584 303.394,109.630 312.286,109.606 316.900 L 109.600 318.000 144.215 318.000 L 178.830 318.000 177.225 315.700 C 176.343 314.435,173.353 310.160,170.581 306.200 C 167.810 302.240,165.150 298.416,164.671 297.702 C 164.092 296.840,163.599 296.490,163.200 296.661 C 155.862 299.797,145.989 296.975,140.348 290.129 L 139.300 288.858 137.550 289.753 M348.900 330.698 C 350.825 330.771,353.975 330.771,355.900 330.698 C 357.825 330.625,356.250 330.565,352.400 330.565 C 348.550 330.565,346.975 330.625,348.900 330.698 " stroke="none" fill="#7fa8e1" fill-rule="evenodd"></path><path id="path2" d="M195.600 200.400 C 195.600 225.827,195.741 240.400,195.986 240.400 C 196.198 240.400,198.925 238.870,202.046 237.000 C 205.167 235.130,207.796 233.600,207.888 233.600 C 207.981 233.600,208.841 233.060,209.800 232.400 C 210.759 231.740,211.659 231.200,211.800 231.200 C 211.941 231.200,212.841 230.660,213.800 230.000 C 214.759 229.340,215.659 228.800,215.800 228.800 C 215.941 228.800,216.867 228.242,217.858 227.560 C 223.377 223.763,227.609 222.798,238.729 222.803 C 253.821 222.809,258.569 225.358,263.110 235.889 C 275.990 265.760,317.674 265.705,329.598 235.800 C 333.480 226.062,339.391 222.301,349.802 222.943 C 358.564 223.484,365.663 228.060,368.984 235.307 C 371.190 240.121,371.200 240.272,371.200 268.820 L 371.200 295.200 373.300 295.182 C 375.401 295.165,378.908 294.425,379.447 293.886 C 379.605 293.729,379.971 293.600,380.262 293.600 C 380.786 293.600,381.265 293.262,383.849 291.066 C 384.583 290.442,385.772 288.736,386.492 287.274 L 387.800 284.617 387.905 222.509 C 387.963 188.349,387.873 160.400,387.705 160.400 C 387.537 160.401,384.880 161.634,381.800 163.142 C 378.720 164.650,375.750 166.021,375.200 166.188 C 374.650 166.355,373.570 166.820,372.800 167.220 C 371.307 167.997,361.739 172.619,354.800 175.915 C 347.119 179.563,340.662 182.658,334.800 185.500 C 326.833 189.362,319.291 192.982,315.000 195.002 C 313.020 195.935,308.250 198.224,304.400 200.089 C 291.224 206.472,292.429 206.262,286.230 203.242 C 282.861 201.600,275.501 198.080,268.511 194.768 C 264.052 192.654,257.319 189.416,248.600 185.191 C 245.520 183.699,241.110 181.580,238.800 180.483 C 230.025 176.316,224.818 173.824,219.400 171.201 C 202.050 162.802,196.882 160.400,196.160 160.400 C 195.684 160.400,195.600 166.375,195.600 200.400 M218.919 263.328 C 216.675 264.688,214.625 266.014,214.363 266.276 C 213.862 266.778,213.856 266.769,223.800 281.013 C 226.220 284.480,229.550 289.255,231.200 291.625 C 232.850 293.996,236.439 299.145,239.175 303.067 C 241.912 306.990,245.136 311.640,246.339 313.400 C 250.065 318.847,249.143 318.400,256.646 318.400 C 260.225 318.400,263.248 318.245,263.365 318.056 C 263.482 317.867,262.085 315.572,260.261 312.956 C 253.585 303.384,251.612 300.581,250.913 299.676 C 247.966 295.857,247.731 292.837,250.166 290.079 C 250.684 289.492,250.828 289.057,250.561 288.879 C 250.187 288.629,245.203 281.824,244.488 280.587 C 244.268 280.207,243.728 280.186,242.200 280.498 C 238.248 281.305,237.807 280.894,229.028 268.250 C 226.183 264.152,223.663 260.813,223.428 260.828 C 223.193 260.844,221.164 261.969,218.919 263.328 M179.178 287.213 C 176.664 288.735,174.550 290.150,174.481 290.358 C 174.346 290.761,178.153 296.366,190.673 314.200 L 193.481 318.200 200.340 318.309 C 208.409 318.438,208.110 318.776,204.468 313.647 C 202.965 311.531,200.861 308.540,199.792 307.000 C 198.724 305.460,195.958 301.500,193.647 298.200 C 191.337 294.900,188.305 290.542,186.911 288.516 C 185.517 286.490,184.236 284.746,184.063 284.639 C 183.891 284.533,181.693 285.691,179.178 287.213 " stroke="none" fill="#d66655" fill-rule="evenodd"></path><path id="path3" d="M223.700 28.139 C 222.985 28.374,222.400 28.708,222.400 28.883 C 222.400 29.057,222.154 29.200,221.854 29.200 C 221.078 29.200,216.800 33.403,216.800 34.165 C 216.800 34.514,216.620 34.800,216.400 34.800 C 216.180 34.800,216.000 35.160,216.000 35.600 C 216.000 36.040,215.820 36.400,215.600 36.400 C 215.380 36.400,215.200 37.109,215.200 37.976 C 215.200 38.843,215.020 39.664,214.800 39.800 C 214.550 39.955,214.400 43.930,214.400 50.400 C 214.400 56.870,214.550 60.845,214.800 61.000 C 215.020 61.136,215.200 61.642,215.200 62.124 C 215.201 63.201,216.856 65.200,217.747 65.200 C 218.106 65.200,218.400 65.380,218.400 65.600 C 218.400 66.196,220.149 66.083,221.454 65.402 C 222.084 65.074,222.889 64.804,223.242 64.802 C 226.302 64.791,227.200 61.498,227.200 50.295 C 227.200 41.615,227.268 40.637,227.900 40.157 C 229.309 39.087,247.049 39.394,247.762 40.500 C 248.240 41.241,248.373 44.572,248.517 59.400 C 248.676 75.790,248.765 77.704,249.509 80.800 C 252.746 94.260,261.222 104.754,273.600 110.626 C 274.810 111.200,276.113 111.834,276.495 112.035 C 276.877 112.236,277.541 112.400,277.971 112.400 C 278.401 112.400,278.852 112.560,278.973 112.756 C 279.094 112.951,279.779 113.214,280.496 113.339 C 281.213 113.464,282.790 113.757,284.000 113.989 C 300.807 117.219,318.024 109.890,327.943 95.284 C 328.854 93.942,329.600 92.654,329.600 92.422 C 329.600 92.190,329.736 92.000,329.902 92.000 C 330.505 92.000,332.937 85.799,334.255 80.903 C 335.299 77.023,335.306 76.894,335.489 59.000 C 335.649 43.417,335.757 40.906,336.299 40.300 C 336.860 39.671,337.874 39.600,346.268 39.600 L 355.612 39.600 356.404 40.900 C 357.174 42.162,357.197 42.989,357.199 69.040 C 357.199 83.802,357.359 96.402,357.553 97.040 C 357.748 97.678,358.147 99.010,358.440 100.000 C 361.661 110.878,372.096 119.134,384.000 120.223 C 385.430 120.354,387.007 120.659,387.505 120.901 L 388.411 121.341 388.305 134.155 L 388.200 146.970 387.200 147.487 C 385.318 148.461,354.855 163.138,343.200 168.686 C 337.679 171.314,330.804 174.633,320.698 179.550 C 316.571 181.558,313.108 183.200,313.001 183.200 C 312.825 183.200,303.545 187.655,295.300 191.698 L 292.000 193.316 288.700 191.684 C 285.335 190.020,278.180 186.591,271.000 183.203 C 268.800 182.165,263.760 179.746,259.800 177.828 C 247.172 171.713,246.602 171.439,231.200 164.121 C 228.670 162.919,224.440 160.891,221.800 159.613 C 213.611 155.650,205.616 151.796,200.300 149.247 L 195.200 146.803 195.200 134.477 C 195.200 120.034,195.020 120.662,199.276 120.225 C 211.058 119.016,219.747 112.925,224.433 102.591 C 225.075 101.176,225.600 99.690,225.600 99.289 C 225.600 98.888,225.763 98.389,225.961 98.180 C 226.892 97.201,227.524 84.197,226.755 81.854 C 225.900 79.251,224.048 77.600,221.982 77.600 C 221.480 77.600,221.044 77.289,220.928 76.848 C 220.443 74.990,215.200 78.411,215.200 80.587 C 215.200 81.144,215.020 81.600,214.800 81.600 C 214.550 81.600,214.400 84.059,214.400 88.176 C 214.400 92.129,214.240 94.851,214.000 95.000 C 213.780 95.136,213.600 95.687,213.600 96.224 C 213.600 96.761,213.420 97.200,213.200 97.200 C 212.980 97.200,212.800 97.560,212.800 98.000 C 212.800 98.440,212.620 98.800,212.400 98.800 C 212.180 98.800,212.000 99.078,212.000 99.418 C 212.000 99.758,211.595 100.453,211.100 100.962 C 210.605 101.471,209.570 102.628,208.800 103.535 C 208.030 104.441,207.167 105.186,206.883 105.191 C 206.599 105.196,205.980 105.560,205.508 106.000 C 205.036 106.440,204.233 106.800,203.725 106.800 C 203.216 106.800,202.800 106.980,202.800 107.200 C 202.800 107.420,202.271 107.600,201.624 107.600 C 200.977 107.600,200.336 107.780,200.200 108.000 C 200.064 108.220,198.478 108.402,196.676 108.404 C 191.956 108.410,184.800 112.620,184.800 115.391 C 184.800 115.726,184.620 116.000,184.400 116.000 C 184.180 116.000,184.000 116.540,184.000 117.200 C 184.000 117.860,183.820 118.400,183.600 118.400 C 183.335 118.400,183.200 140.076,183.200 182.629 C 183.200 233.493,183.096 246.955,182.700 247.329 C 182.425 247.588,181.705 248.055,181.100 248.368 C 180.495 248.680,180.000 249.085,180.000 249.268 C 180.000 249.450,179.640 249.600,179.200 249.600 C 178.760 249.600,178.400 249.780,178.400 250.000 C 178.400 250.220,178.130 250.400,177.800 250.400 C 177.470 250.400,177.200 250.580,177.200 250.800 C 177.200 251.020,176.930 251.200,176.600 251.200 C 176.270 251.200,176.000 251.380,176.000 251.600 C 176.000 251.820,175.730 252.000,175.400 252.000 C 175.070 252.000,174.800 252.180,174.800 252.400 C 174.800 252.620,174.480 252.800,174.088 252.800 C 173.697 252.800,173.117 253.160,172.800 253.600 C 172.483 254.040,171.903 254.400,171.512 254.400 C 171.120 254.400,170.800 254.580,170.800 254.800 C 170.800 255.020,170.480 255.200,170.088 255.200 C 169.697 255.200,169.117 255.560,168.800 256.000 C 168.483 256.440,167.903 256.800,167.512 256.800 C 167.120 256.800,166.800 256.980,166.800 257.200 C 166.800 257.420,166.522 257.600,166.183 257.600 C 165.844 257.600,165.349 257.786,165.083 258.013 C 164.297 258.686,159.933 261.200,159.552 261.200 C 159.358 261.200,159.200 261.380,159.200 261.600 C 159.200 261.820,158.880 262.000,158.488 262.000 C 158.097 262.000,157.517 262.360,157.200 262.800 C 156.883 263.240,156.303 263.600,155.912 263.600 C 155.520 263.600,155.200 263.780,155.200 264.000 C 155.200 264.220,154.480 264.400,153.600 264.400 C 152.720 264.400,152.000 264.220,152.000 264.000 C 152.000 263.780,151.651 263.600,151.224 263.600 C 150.797 263.600,150.336 263.420,150.200 263.200 C 150.064 262.980,149.549 262.800,149.056 262.800 C 148.563 262.800,147.989 262.637,147.780 262.439 C 146.996 261.694,142.904 261.500,124.700 261.344 L 106.000 261.185 106.000 211.592 L 106.000 162.000 123.800 162.000 C 135.400 162.000,141.600 161.861,141.600 161.600 C 141.600 161.371,142.800 161.200,144.400 161.200 C 146.000 161.200,147.200 161.029,147.200 160.800 C 147.200 160.580,147.740 160.400,148.400 160.400 C 149.060 160.400,149.600 160.220,149.600 160.000 C 149.600 159.780,150.140 159.600,150.800 159.600 C 151.460 159.600,152.000 159.420,152.000 159.200 C 152.000 158.980,152.315 158.799,152.700 158.799 C 154.507 158.795,163.600 150.910,163.600 149.346 C 163.600 149.046,163.759 148.800,163.953 148.800 C 164.148 148.800,164.410 148.485,164.536 148.100 C 164.662 147.715,165.223 146.630,165.782 145.689 C 166.342 144.748,166.800 143.623,166.800 143.189 C 166.800 142.755,166.980 142.400,167.200 142.400 C 167.420 142.400,167.600 141.781,167.600 141.024 C 167.600 140.267,167.780 139.536,168.000 139.400 C 168.239 139.252,168.400 136.604,168.400 132.800 C 168.400 128.996,168.239 126.348,168.000 126.200 C 167.780 126.064,167.600 125.333,167.600 124.576 C 167.600 123.819,167.420 123.200,167.200 123.200 C 166.980 123.200,166.800 122.947,166.800 122.638 C 166.800 121.972,165.132 118.659,164.700 118.467 C 164.535 118.393,164.400 118.028,164.400 117.655 C 164.400 117.282,164.040 116.717,163.600 116.400 C 163.160 116.083,162.800 115.589,162.800 115.303 C 162.800 114.306,156.307 108.400,155.210 108.400 C 154.966 108.400,154.380 108.040,153.908 107.600 C 153.436 107.160,152.723 106.800,152.325 106.800 C 151.926 106.800,151.600 106.620,151.600 106.400 C 151.600 106.180,151.150 106.000,150.600 106.000 C 150.050 106.000,149.600 105.820,149.600 105.600 C 149.600 105.380,148.880 105.200,148.000 105.200 C 147.120 105.200,146.400 105.020,146.400 104.800 C 146.400 104.551,144.154 104.400,140.461 104.400 L 134.522 104.400 134.261 100.138 C 134.117 97.794,134.000 95.004,134.000 93.938 C 134.000 92.872,133.820 92.000,133.600 92.000 C 133.380 92.000,133.200 91.460,133.200 90.800 C 133.200 90.140,133.020 89.600,132.800 89.600 C 132.580 89.600,132.400 89.240,132.400 88.800 C 132.400 88.360,132.220 88.000,132.000 88.000 C 131.780 88.000,131.600 87.640,131.600 87.200 C 131.600 86.760,131.420 86.400,131.200 86.400 C 130.980 86.400,130.800 86.080,130.800 85.688 C 130.800 85.297,130.440 84.717,130.000 84.400 C 129.560 84.083,129.200 83.638,129.200 83.412 C 129.195 79.808,118.479 74.800,110.772 74.800 L 106.000 74.800 106.000 68.624 C 106.000 64.937,105.839 62.348,105.600 62.200 C 105.380 62.064,105.200 61.459,105.200 60.856 C 105.200 59.660,104.380 57.608,103.900 57.603 C 103.735 57.601,103.600 57.325,103.600 56.989 C 103.600 56.196,100.204 52.800,99.411 52.800 C 99.075 52.800,98.800 52.620,98.800 52.400 C 98.800 52.180,98.440 52.000,98.000 52.000 C 97.560 52.000,97.200 51.820,97.200 51.600 C 97.200 51.341,92.533 51.200,84.000 51.200 C 75.467 51.200,70.800 51.341,70.800 51.600 C 70.800 51.820,70.440 52.000,70.000 52.000 C 69.560 52.000,69.200 52.180,69.200 52.400 C 69.200 52.620,68.925 52.800,68.589 52.800 C 67.977 52.800,64.408 56.107,64.391 56.689 C 64.386 56.860,64.030 57.450,63.600 58.000 C 63.170 58.550,62.814 59.585,62.809 60.300 C 62.804 61.015,62.620 61.600,62.400 61.600 C 62.149 61.600,62.000 64.067,62.000 68.200 L 62.000 74.800 57.273 74.800 C 52.305 74.800,49.718 75.302,46.400 76.910 C 43.372 78.378,38.800 82.221,38.800 83.298 C 38.800 83.587,38.440 84.083,38.000 84.400 C 37.560 84.717,37.196 85.162,37.191 85.388 C 37.186 85.615,36.830 86.250,36.400 86.800 C 35.970 87.350,35.614 88.205,35.609 88.700 C 35.604 89.195,35.420 89.600,35.200 89.600 C 34.980 89.600,34.800 90.140,34.800 90.800 C 34.800 91.460,34.620 92.000,34.400 92.000 C 34.180 92.000,34.000 92.979,34.000 94.176 C 34.000 95.373,33.820 96.464,33.600 96.600 C 33.379 96.737,33.200 98.537,33.200 100.624 L 33.200 104.400 27.224 104.400 C 23.671 104.400,21.147 104.562,21.000 104.800 C 20.864 105.020,20.307 105.200,19.763 105.200 C 18.436 105.200,16.000 107.651,16.000 108.987 C 16.000 109.544,15.820 110.000,15.600 110.000 C 15.380 110.000,15.200 110.630,15.200 111.400 C 15.200 112.250,15.396 112.802,15.700 112.806 C 16.033 112.810,16.000 112.942,15.600 113.200 C 15.086 113.532,15.098 113.589,15.690 113.594 C 16.070 113.597,16.939 114.214,17.623 114.965 C 19.403 116.921,20.759 117.381,23.514 116.961 C 27.680 116.326,138.984 116.511,142.000 117.157 C 147.469 118.330,152.025 121.602,153.900 125.706 C 154.175 126.308,154.620 127.268,154.889 127.841 C 155.543 129.230,155.527 137.691,154.870 137.910 C 154.611 137.996,154.400 138.305,154.400 138.596 C 154.400 141.818,149.038 146.632,143.600 148.293 C 140.368 149.280,26.804 149.589,23.541 148.619 C 16.019 146.386,11.207 139.107,11.874 130.971 C 12.160 127.481,11.400 125.588,9.138 124.161 C 8.292 123.627,7.600 123.012,7.600 122.795 C 7.600 122.578,6.880 122.400,6.000 122.400 C 5.120 122.400,4.400 122.580,4.400 122.800 C 4.400 123.020,3.995 123.200,3.500 123.200 C 3.005 123.201,2.060 123.666,1.400 124.234 L 0.200 125.267 0.200 133.700 C 0.200 140.092,0.321 142.174,0.700 142.300 C 0.975 142.392,1.200 142.992,1.200 143.633 C 1.200 144.275,1.380 144.800,1.600 144.800 C 1.820 144.800,2.000 145.160,2.000 145.600 C 2.000 146.040,2.180 146.400,2.400 146.400 C 2.620 146.400,2.800 146.720,2.800 147.112 C 2.800 147.503,3.160 148.083,3.600 148.400 C 4.040 148.717,4.400 149.199,4.400 149.472 C 4.400 150.960,13.514 158.800,15.245 158.800 C 15.660 158.800,16.000 158.980,16.000 159.200 C 16.000 159.420,16.540 159.600,17.200 159.600 C 17.860 159.600,18.400 159.780,18.400 160.000 C 18.400 160.220,18.940 160.400,19.600 160.400 C 20.260 160.400,20.800 160.580,20.800 160.800 C 20.800 161.029,22.000 161.200,23.600 161.200 C 25.200 161.200,26.400 161.371,26.400 161.600 C 26.400 161.861,32.600 162.000,44.200 162.000 L 62.000 162.000 62.000 211.592 L 62.000 261.185 43.300 261.344 C 25.096 261.500,21.004 261.694,20.220 262.439 C 20.011 262.637,19.336 262.800,18.720 262.800 C 18.104 262.800,17.600 262.980,17.600 263.200 C 17.600 263.420,17.240 263.600,16.800 263.600 C 16.360 263.600,16.000 263.780,16.000 264.000 C 16.000 264.220,15.640 264.400,15.200 264.400 C 14.760 264.400,14.400 264.580,14.400 264.800 C 14.400 265.020,14.040 265.200,13.600 265.200 C 13.160 265.200,12.800 265.380,12.800 265.600 C 12.800 265.820,12.562 266.000,12.272 266.000 C 11.711 266.000,6.800 270.398,6.800 270.901 C 6.800 271.065,6.080 271.941,5.200 272.848 C 4.320 273.755,3.600 274.745,3.600 275.048 C 3.600 275.352,3.420 275.600,3.200 275.600 C 2.980 275.600,2.800 275.870,2.800 276.200 C 2.800 276.530,2.620 276.800,2.400 276.800 C 2.180 276.800,2.000 277.160,2.000 277.600 C 2.000 278.040,1.820 278.400,1.600 278.400 C 1.380 278.400,1.200 278.925,1.200 279.567 C 1.200 280.208,0.975 280.808,0.700 280.900 C 0.319 281.028,0.200 283.329,0.200 290.600 C 0.200 297.871,0.319 300.173,0.700 300.300 C 0.975 300.392,1.200 300.812,1.200 301.233 C 1.200 301.655,1.380 302.000,1.600 302.000 C 1.820 302.000,2.000 302.450,2.000 303.000 C 2.000 303.550,2.180 304.000,2.400 304.000 C 2.620 304.000,2.800 304.270,2.800 304.600 C 2.800 304.930,2.980 305.200,3.200 305.200 C 3.420 305.200,3.600 305.520,3.600 305.912 C 3.600 306.303,3.960 306.883,4.400 307.200 C 4.840 307.517,5.200 307.920,5.200 308.096 C 5.200 308.512,10.288 313.600,10.704 313.600 C 10.880 313.600,11.283 313.960,11.600 314.400 C 11.917 314.840,12.497 315.200,12.888 315.200 C 13.280 315.200,13.600 315.380,13.600 315.600 C 13.600 315.820,13.960 316.000,14.400 316.000 C 14.840 316.000,15.200 316.180,15.200 316.400 C 15.200 316.620,15.560 316.800,16.000 316.800 C 16.440 316.800,16.800 316.980,16.800 317.200 C 16.800 317.420,17.340 317.600,18.000 317.600 C 18.660 317.600,19.200 317.780,19.200 318.000 C 19.200 318.220,19.729 318.400,20.376 318.400 C 21.023 318.400,21.664 318.580,21.800 318.800 C 21.946 319.036,24.337 319.200,27.624 319.200 L 33.200 319.200 33.200 322.776 C 33.200 324.743,33.380 326.464,33.600 326.600 C 33.820 326.736,34.000 327.917,34.000 329.224 C 34.000 330.541,34.178 331.600,34.400 331.600 C 34.620 331.600,34.800 332.140,34.800 332.800 C 34.800 333.460,34.980 334.000,35.200 334.000 C 35.420 334.000,35.600 334.360,35.600 334.800 C 35.600 335.240,35.780 335.600,36.000 335.600 C 36.220 335.600,36.400 335.960,36.400 336.400 C 36.400 336.840,36.580 337.200,36.800 337.200 C 37.020 337.200,37.200 337.488,37.200 337.840 C 37.200 338.191,37.740 338.983,38.400 339.600 C 39.060 340.217,39.600 340.876,39.600 341.066 C 39.600 341.255,40.082 341.768,40.672 342.205 C 41.262 342.642,42.154 343.405,42.654 343.900 C 43.154 344.395,43.842 344.800,44.182 344.800 C 44.522 344.800,44.800 344.947,44.800 345.126 C 44.800 345.592,47.931 347.200,48.838 347.200 C 49.257 347.200,49.600 347.380,49.600 347.600 C 49.600 347.820,50.309 348.000,51.176 348.000 C 52.043 348.000,52.864 348.180,53.000 348.400 C 53.140 348.627,55.131 348.800,57.605 348.800 L 61.962 348.800 62.134 355.100 C 62.314 361.668,62.640 364.400,63.244 364.400 C 63.440 364.400,63.600 364.760,63.600 365.200 C 63.600 365.640,63.780 366.000,64.000 366.000 C 64.220 366.000,64.400 366.276,64.400 366.613 C 64.400 367.945,69.108 371.600,70.823 371.600 C 71.250 371.600,71.600 371.780,71.600 372.000 C 71.600 372.258,76.000 372.400,84.000 372.400 C 92.000 372.400,96.400 372.258,96.400 372.000 C 96.400 371.780,96.805 371.596,97.300 371.591 C 97.795 371.586,98.650 371.230,99.200 370.800 C 99.750 370.370,100.356 370.014,100.546 370.009 C 101.076 369.995,103.600 367.113,103.600 366.522 C 103.600 366.235,103.780 366.000,104.000 366.000 C 104.220 366.000,104.400 365.640,104.400 365.200 C 104.400 364.760,104.580 364.400,104.800 364.400 C 105.020 364.400,105.200 363.691,105.200 362.824 C 105.200 361.957,105.380 361.136,105.600 361.000 C 105.831 360.858,106.000 358.729,106.000 355.976 C 106.000 350.434,105.839 350.604,108.533 353.300 C 111.490 356.261,113.088 357.492,115.500 358.669 C 116.655 359.233,117.600 359.853,117.600 360.047 C 117.600 360.241,117.960 360.400,118.400 360.400 C 118.840 360.400,119.200 360.580,119.200 360.800 C 119.200 361.020,119.639 361.200,120.176 361.200 C 120.713 361.200,121.264 361.380,121.400 361.600 C 121.536 361.820,121.997 362.000,122.424 362.000 C 122.851 362.000,123.200 362.180,123.200 362.400 C 123.200 362.620,123.740 362.800,124.400 362.800 C 125.060 362.800,125.600 362.980,125.600 363.200 C 125.600 363.420,126.320 363.600,127.200 363.600 C 128.080 363.600,128.800 363.780,128.800 364.000 C 128.800 364.239,130.333 364.400,132.600 364.400 C 134.867 364.400,136.400 364.561,136.400 364.800 C 136.400 365.066,172.200 365.200,243.000 365.200 C 313.800 365.200,349.600 365.066,349.600 364.800 C 349.600 364.571,350.800 364.400,352.400 364.400 C 354.000 364.400,355.200 364.229,355.200 364.000 C 355.200 363.780,355.543 363.600,355.962 363.600 C 356.778 363.600,360.112 361.999,360.333 361.500 C 360.407 361.335,360.772 361.200,361.145 361.200 C 361.518 361.200,362.083 360.840,362.400 360.400 C 362.717 359.960,363.180 359.600,363.429 359.600 C 364.293 359.600,368.379 355.073,368.393 354.100 C 368.397 353.825,368.580 353.600,368.800 353.600 C 369.020 353.600,369.200 353.240,369.200 352.800 C 369.200 352.360,369.380 352.000,369.600 352.000 C 369.820 352.000,370.000 351.640,370.000 351.200 C 370.000 350.760,370.180 350.400,370.400 350.400 C 370.620 350.400,370.800 349.875,370.800 349.233 C 370.800 348.592,371.025 347.992,371.300 347.900 C 371.689 347.771,371.832 343.262,371.942 327.667 L 372.085 307.600 376.219 307.600 C 378.543 307.600,380.461 307.425,380.600 307.200 C 380.736 306.980,381.377 306.800,382.024 306.800 C 382.671 306.800,383.200 306.620,383.200 306.400 C 383.200 306.180,383.542 306.000,383.959 306.000 C 384.827 306.000,388.593 304.097,389.972 302.962 C 392.223 301.109,395.600 297.597,395.600 297.110 C 395.600 296.817,395.960 296.317,396.400 296.000 C 396.840 295.683,397.200 295.103,397.200 294.712 C 397.200 294.320,397.380 294.000,397.600 294.000 C 397.820 294.000,398.000 293.640,398.000 293.200 C 398.000 292.760,398.180 292.400,398.400 292.400 C 398.620 292.400,398.800 292.076,398.800 291.680 C 398.800 291.284,399.025 290.735,399.300 290.460 C 399.830 289.930,400.313 122.120,399.797 117.751 C 399.656 116.552,399.233 115.357,398.778 114.868 C 398.350 114.409,398.000 113.873,398.000 113.676 C 398.000 113.092,395.731 110.895,394.832 110.610 C 394.374 110.465,394.000 110.178,394.000 109.973 C 394.000 109.768,393.676 109.600,393.280 109.600 C 392.884 109.600,392.343 109.383,392.078 109.118 C 391.798 108.838,390.010 108.567,387.798 108.471 C 385.709 108.379,384.000 108.146,384.000 107.952 C 384.000 107.759,383.280 107.600,382.400 107.600 C 381.520 107.600,380.800 107.420,380.800 107.200 C 380.800 106.980,380.440 106.800,380.000 106.800 C 379.560 106.800,379.200 106.620,379.200 106.400 C 379.200 106.180,378.840 106.000,378.400 106.000 C 377.960 106.000,377.600 105.820,377.600 105.600 C 377.600 105.380,377.361 105.200,377.070 105.200 C 376.778 105.200,376.244 104.885,375.882 104.500 C 375.520 104.115,374.630 103.170,373.905 102.400 C 372.438 100.843,370.000 96.340,370.000 95.189 C 370.000 94.781,369.820 94.336,369.600 94.200 C 369.340 94.039,369.200 84.196,369.200 65.976 C 369.200 47.592,369.063 38.000,368.800 38.000 C 368.580 38.000,368.400 37.460,368.400 36.800 C 368.400 36.140,368.220 35.600,368.000 35.600 C 367.780 35.600,367.600 35.313,367.600 34.963 C 367.600 34.133,362.667 29.200,361.837 29.200 C 361.487 29.200,361.200 29.020,361.200 28.800 C 361.200 28.580,360.840 28.400,360.400 28.400 C 359.960 28.400,359.600 28.220,359.600 28.000 C 359.600 26.980,333.807 27.516,331.470 28.585 C 328.270 30.049,324.800 33.727,324.800 35.656 C 324.800 36.065,324.620 36.400,324.400 36.400 C 324.180 36.400,324.000 37.120,324.000 38.000 C 324.000 38.880,323.820 39.600,323.600 39.600 C 323.339 39.600,323.200 46.000,323.200 58.000 C 323.200 70.000,323.061 76.400,322.800 76.400 C 322.580 76.400,322.400 77.019,322.400 77.776 C 322.400 78.533,322.220 79.264,322.000 79.400 C 321.780 79.536,321.600 80.087,321.600 80.624 C 321.600 81.161,321.420 81.600,321.200 81.600 C 320.980 81.600,320.800 81.949,320.800 82.376 C 320.800 82.803,320.620 83.264,320.400 83.400 C 320.180 83.536,320.000 84.047,320.000 84.535 C 320.000 85.024,319.640 85.683,319.200 86.000 C 318.760 86.317,318.400 86.857,318.400 87.200 C 318.400 87.543,318.040 88.083,317.600 88.400 C 317.160 88.717,316.800 89.221,316.800 89.520 C 316.800 90.065,315.461 91.454,311.711 94.800 C 308.574 97.600,308.034 98.000,307.395 98.000 C 307.068 98.000,306.800 98.180,306.800 98.400 C 306.800 98.620,306.440 98.800,306.000 98.800 C 305.560 98.800,305.200 98.980,305.200 99.200 C 305.200 99.420,304.840 99.600,304.400 99.600 C 303.960 99.600,303.600 99.780,303.600 100.000 C 303.600 100.220,303.240 100.400,302.800 100.400 C 302.360 100.400,302.000 100.580,302.000 100.800 C 302.000 101.020,301.381 101.200,300.624 101.200 C 299.867 101.200,299.136 101.380,299.000 101.600 C 298.864 101.820,297.964 102.000,297.000 102.000 C 296.036 102.000,295.136 102.180,295.000 102.400 C 294.864 102.620,293.413 102.800,291.776 102.800 C 290.059 102.800,288.800 102.631,288.800 102.400 C 288.800 102.180,287.900 102.000,286.800 102.000 C 285.700 102.000,284.800 101.820,284.800 101.600 C 284.800 101.380,284.271 101.200,283.624 101.200 C 282.977 101.200,282.336 101.020,282.200 100.800 C 282.064 100.580,281.513 100.400,280.976 100.400 C 280.439 100.400,280.000 100.220,280.000 100.000 C 280.000 99.780,279.640 99.600,279.200 99.600 C 278.760 99.600,278.400 99.420,278.400 99.200 C 278.400 98.980,278.040 98.800,277.600 98.800 C 277.160 98.800,276.800 98.620,276.800 98.400 C 276.800 98.180,276.480 98.000,276.088 98.000 C 275.697 98.000,275.117 97.640,274.800 97.200 C 274.483 96.760,274.073 96.400,273.888 96.400 C 273.576 96.400,272.154 95.151,268.345 91.531 C 267.495 90.724,266.800 89.818,266.800 89.520 C 266.800 89.221,266.440 88.717,266.000 88.400 C 265.560 88.083,265.200 87.503,265.200 87.112 C 265.200 86.720,265.020 86.400,264.800 86.400 C 264.580 86.400,264.400 86.040,264.400 85.600 C 264.400 85.160,264.220 84.800,264.000 84.800 C 263.780 84.800,263.600 84.440,263.600 84.000 C 263.600 83.560,263.420 83.200,263.200 83.200 C 262.980 83.200,262.800 82.840,262.800 82.400 C 262.800 81.960,262.620 81.600,262.400 81.600 C 262.180 81.600,262.000 81.071,262.000 80.424 C 262.000 79.777,261.820 79.136,261.600 79.000 C 261.380 78.864,261.200 78.054,261.200 77.200 C 261.200 76.346,261.020 75.536,260.800 75.400 C 260.543 75.241,260.400 68.529,260.400 56.576 C 260.400 44.459,260.261 38.000,260.000 38.000 C 259.780 38.000,259.600 37.460,259.600 36.800 C 259.600 36.140,259.420 35.600,259.200 35.600 C 258.980 35.600,258.800 35.232,258.800 34.783 C 258.800 33.808,254.381 29.200,253.447 29.200 C 253.091 29.200,252.800 29.020,252.800 28.800 C 252.800 28.580,252.451 28.400,252.024 28.400 C 251.597 28.400,251.136 28.220,251.000 28.000 C 250.657 27.445,225.425 27.573,223.700 28.139 M93.110 69.300 L 93.000 75.400 83.900 75.508 L 74.800 75.615 74.800 69.408 L 74.800 63.200 84.010 63.200 L 93.221 63.200 93.110 69.300 M108.827 87.170 C 112.099 87.370,114.639 87.719,115.227 88.051 C 120.225 90.871,122.153 94.659,121.921 101.200 L 121.800 104.600 84.000 104.600 L 46.200 104.600 46.087 100.341 C 45.892 93.015,48.706 88.918,55.000 87.362 C 57.360 86.779,99.926 86.627,108.827 87.170 M279.800 132.141 C 274.455 134.621,275.850 142.056,281.800 142.800 L 283.400 143.000 283.507 153.110 C 283.590 161.006,283.503 163.249,283.107 163.353 C 277.988 164.703,275.948 167.239,277.177 170.724 C 278.497 174.464,279.479 174.800,289.080 174.799 C 299.149 174.797,300.954 173.944,300.954 169.191 C 300.954 165.973,299.620 164.690,294.900 163.365 C 294.514 163.257,294.400 160.364,294.400 150.625 C 294.400 137.026,294.377 136.868,292.059 134.257 C 290.058 132.004,282.798 130.750,279.800 132.141 M200.676 162.045 C 203.054 163.169,207.610 165.354,210.800 166.900 C 213.990 168.446,218.400 170.564,220.600 171.608 C 222.800 172.652,227.120 174.714,230.200 176.192 C 233.280 177.669,237.690 179.784,240.000 180.892 C 242.310 182.000,247.494 184.502,251.520 186.453 C 255.545 188.404,258.901 190.000,258.977 190.000 C 259.053 190.000,262.689 191.730,267.057 193.844 C 275.881 198.114,284.252 202.157,287.597 203.765 C 292.387 206.068,290.416 206.704,314.300 195.145 C 317.545 193.574,321.640 191.621,323.400 190.804 C 325.160 189.987,329.210 188.053,332.400 186.505 C 340.901 182.382,348.436 178.753,353.200 176.487 C 367.221 169.820,375.247 165.988,381.473 162.988 C 384.373 161.591,387.073 160.392,387.473 160.324 C 388.362 160.172,388.870 279.277,387.998 283.600 C 386.608 290.497,381.555 294.814,374.500 295.133 L 371.200 295.282 371.197 269.741 C 371.193 239.149,371.094 238.235,367.143 232.344 C 362.848 225.940,357.612 223.476,348.200 223.431 L 341.800 223.400 339.200 224.681 C 334.574 226.961,332.248 229.478,330.404 234.200 C 318.577 264.487,277.653 267.080,264.123 238.400 C 260.867 231.499,260.203 230.357,258.343 228.457 C 257.061 227.148,255.200 225.844,253.260 224.896 L 250.200 223.400 238.400 223.400 C 224.440 223.400,225.561 223.122,215.723 229.027 C 212.267 231.102,209.372 232.800,209.291 232.800 C 209.210 232.800,208.359 233.340,207.400 234.000 C 206.441 234.660,205.541 235.200,205.400 235.200 C 205.259 235.200,204.359 235.740,203.400 236.400 C 202.441 237.060,201.575 237.600,201.476 237.600 C 201.378 237.600,200.251 238.230,198.972 239.000 C 197.693 239.770,196.411 240.400,196.124 240.400 C 195.696 240.400,195.600 233.057,195.600 200.200 C 195.600 175.364,195.744 160.000,195.976 160.000 C 196.183 160.000,198.298 160.920,200.676 162.045 M93.000 211.800 L 93.000 262.600 84.000 262.600 L 75.000 262.600 74.898 211.692 L 74.797 160.785 83.898 160.892 L 93.000 161.000 93.000 211.800 M248.051 234.967 C 249.730 235.673,251.309 237.366,252.000 239.200 C 252.692 241.038,254.892 245.745,255.177 246.000 C 255.301 246.110,255.637 246.659,255.925 247.220 C 257.974 251.206,265.037 258.536,270.026 261.853 C 294.126 277.875,326.675 268.946,339.022 242.926 C 339.780 241.329,340.400 239.926,340.400 239.807 C 340.400 233.812,351.407 232.411,356.600 237.746 C 359.794 241.026,359.630 238.588,359.508 281.000 L 359.400 318.600 318.922 318.702 L 278.444 318.804 277.322 317.302 C 276.705 316.476,276.065 315.740,275.900 315.667 C 275.735 315.593,275.600 315.293,275.600 315.000 C 275.600 314.707,275.462 314.407,275.294 314.333 C 275.008 314.208,270.570 307.911,263.642 297.800 C 261.984 295.380,260.403 293.168,260.128 292.885 C 259.853 292.602,259.314 291.840,258.931 291.190 C 256.821 287.619,251.545 287.847,249.252 291.607 C 247.379 294.680,246.901 293.741,259.595 311.943 C 261.798 315.102,263.600 317.847,263.600 318.043 C 263.600 318.239,260.538 318.400,256.796 318.400 C 249.043 318.400,250.071 318.855,246.700 313.936 C 245.545 312.251,242.544 307.931,240.031 304.336 C 237.519 300.741,234.086 295.820,232.403 293.400 C 230.720 290.980,228.086 287.200,226.549 285.000 C 225.012 282.800,221.880 278.300,219.589 275.000 C 217.298 271.700,215.311 268.910,215.172 268.800 C 213.441 267.427,214.126 265.894,217.166 264.334 C 217.735 264.042,219.263 263.127,220.562 262.302 C 223.488 260.441,223.754 260.441,224.978 262.300 C 225.521 263.125,226.862 265.060,227.958 266.600 C 229.053 268.140,231.165 271.189,232.650 273.375 C 237.964 281.198,241.054 282.606,244.775 278.899 C 246.198 277.482,246.859 272.809,245.741 272.070 C 245.516 271.921,244.178 270.111,242.766 268.046 C 241.355 265.981,239.931 263.911,239.602 263.446 C 232.476 253.361,232.789 254.102,234.542 251.461 C 237.005 247.750,237.691 245.514,237.875 240.600 C 238.128 233.833,237.699 234.400,242.559 234.400 C 245.235 234.400,247.180 234.601,248.051 234.967 M226.800 239.405 C 226.800 243.215,226.319 244.414,223.800 246.882 C 222.911 247.753,211.293 254.800,210.746 254.800 C 210.556 254.800,210.400 254.959,210.400 255.153 C 210.400 255.348,210.085 255.607,209.700 255.729 C 209.015 255.946,206.796 257.204,206.400 257.600 C 206.004 257.996,203.785 259.254,203.100 259.471 C 202.715 259.593,202.400 259.852,202.400 260.047 C 202.400 260.241,202.246 260.400,202.058 260.400 C 201.870 260.400,197.055 263.211,191.358 266.646 C 185.661 270.082,180.415 273.232,179.700 273.646 C 176.568 275.462,175.352 276.186,167.425 280.958 L 159.050 286.000 156.305 286.000 C 152.298 286.000,148.222 283.398,149.892 281.906 C 150.665 281.216,157.129 277.200,157.468 277.200 C 157.583 277.200,158.154 276.861,158.738 276.447 C 159.322 276.033,160.430 275.338,161.200 274.903 C 161.970 274.469,166.110 271.990,170.400 269.395 C 181.297 262.805,181.319 262.791,182.100 262.536 C 182.485 262.410,182.800 262.148,182.800 261.953 C 182.800 261.759,182.993 261.600,183.228 261.600 C 183.463 261.600,184.441 261.060,185.400 260.400 C 186.359 259.740,187.259 259.200,187.400 259.200 C 187.541 259.200,188.441 258.660,189.400 258.000 C 190.359 257.340,191.259 256.800,191.400 256.800 C 191.541 256.800,192.441 256.260,193.400 255.600 C 194.359 254.940,195.230 254.400,195.335 254.400 C 195.439 254.400,197.719 253.050,200.400 251.400 C 203.081 249.750,205.361 248.400,205.465 248.400 C 205.570 248.400,206.441 247.860,207.400 247.200 C 208.359 246.540,209.259 246.000,209.400 246.000 C 209.541 246.000,210.441 245.460,211.400 244.800 C 212.359 244.140,213.259 243.600,213.400 243.600 C 213.541 243.600,214.441 243.060,215.400 242.400 C 216.359 241.740,217.264 241.200,217.410 241.200 C 217.557 241.200,218.154 240.861,218.738 240.446 C 219.322 240.031,220.700 239.197,221.800 238.591 C 222.900 237.985,224.250 237.160,224.800 236.757 C 226.596 235.442,226.800 235.712,226.800 239.405 M204.154 272.900 C 204.427 273.175,205.794 275.110,207.191 277.200 C 208.589 279.290,209.846 281.090,209.984 281.200 C 210.220 281.388,213.714 286.400,217.373 291.800 C 218.267 293.120,219.104 294.290,219.233 294.400 C 219.362 294.510,220.576 296.220,221.930 298.200 C 225.713 303.731,227.405 306.158,231.425 311.828 C 236.595 319.120,236.812 318.600,228.602 318.600 L 221.804 318.600 217.478 312.400 C 215.099 308.990,212.233 304.850,211.109 303.200 C 209.984 301.550,208.960 300.110,208.832 300.000 C 208.705 299.890,208.420 299.507,208.200 299.148 C 207.980 298.790,205.820 295.669,203.400 292.213 C 193.290 277.774,193.556 278.242,195.017 277.429 C 195.440 277.193,196.542 276.505,197.465 275.900 C 198.389 275.295,199.240 274.800,199.358 274.800 C 199.476 274.800,200.424 274.260,201.464 273.600 C 203.649 272.214,203.509 272.251,204.154 272.900 M136.915 274.250 L 138.742 274.501 137.671 275.392 C 136.569 276.309,130.091 280.400,129.740 280.400 C 129.632 280.400,128.759 280.940,127.800 281.600 C 126.841 282.260,125.941 282.800,125.800 282.800 C 125.659 282.800,124.759 283.340,123.800 284.000 C 122.841 284.660,121.941 285.200,121.800 285.200 C 121.659 285.200,120.792 285.701,119.872 286.312 C 118.952 286.924,117.741 287.655,117.180 287.937 C 109.348 291.872,100.195 303.664,98.346 312.200 C 96.615 320.188,96.399 324.492,97.450 330.000 C 97.807 331.870,98.186 334.075,98.291 334.900 L 98.484 336.400 77.898 336.400 C 53.995 336.400,54.305 336.425,51.043 334.238 C 47.288 331.721,46.007 328.890,46.003 323.100 L 46.000 318.800 62.223 318.800 C 72.980 318.800,79.052 318.647,80.245 318.347 C 85.127 317.118,86.486 311.339,82.629 308.216 L 81.127 307.000 52.463 306.800 L 23.800 306.600 21.200 305.267 C 7.429 298.209,9.388 278.156,24.200 274.554 C 26.342 274.034,133.230 273.745,136.915 274.250 M184.510 284.900 C 184.617 285.175,185.860 287.020,187.271 289.000 C 188.683 290.980,191.146 294.490,192.746 296.800 C 200.068 307.372,203.180 311.830,203.496 312.200 C 204.449 313.312,207.200 317.612,207.200 317.987 C 207.200 318.284,205.039 318.385,200.310 318.309 L 193.421 318.200 190.010 313.342 C 188.135 310.670,185.488 306.890,184.129 304.942 C 182.770 302.994,180.021 299.060,178.021 296.200 C 173.633 289.926,173.560 290.496,179.188 287.138 C 184.134 284.186,184.217 284.151,184.510 284.900 M140.000 288.764 C 140.000 289.218,144.116 293.600,144.543 293.600 C 144.715 293.600,145.608 294.106,146.528 294.723 C 150.935 297.684,156.635 298.191,163.061 296.195 C 163.771 295.974,164.195 296.300,165.490 298.064 C 167.175 300.358,171.942 307.246,172.600 308.337 C 172.820 308.702,173.104 309.090,173.230 309.200 C 173.357 309.310,174.241 310.570,175.195 312.000 C 176.150 313.430,177.441 315.256,178.065 316.058 C 180.387 319.039,183.252 318.816,144.100 318.702 L 109.000 318.600 109.069 317.200 C 109.185 314.875,110.422 311.727,112.830 307.630 C 114.951 304.022,119.367 299.828,123.400 297.593 C 124.280 297.105,125.478 296.367,126.062 295.953 C 126.646 295.539,127.243 295.200,127.390 295.200 C 127.536 295.200,128.441 294.660,129.400 294.000 C 130.359 293.340,131.259 292.800,131.400 292.800 C 131.541 292.800,132.441 292.260,133.400 291.600 C 134.359 290.940,135.256 290.400,135.393 290.400 C 135.530 290.400,136.305 289.950,137.114 289.400 C 138.592 288.396,140.000 288.085,140.000 288.764 M359.357 330.233 C 359.491 330.581,359.600 333.815,359.600 337.421 C 359.600 346.221,358.108 349.448,352.909 351.891 C 350.918 352.826,134.996 353.013,131.400 352.082 C 124.056 350.182,117.522 345.946,113.998 340.800 C 113.470 340.030,112.936 339.310,112.811 339.200 C 111.737 338.255,108.975 331.163,109.325 330.250 C 109.704 329.263,358.978 329.246,359.357 330.233 M93.000 354.000 L 93.000 360.200 84.000 360.200 L 75.000 360.200 74.889 354.418 C 74.827 351.239,74.868 348.400,74.979 348.111 C 75.139 347.693,77.019 347.607,84.090 347.692 L 93.000 347.800 93.000 354.000 " stroke="none" fill="#040404" fill-rule="evenodd"></path><path id="path4" d="M227.900 40.157 C 227.262 40.641,227.208 41.557,227.292 50.444 L 227.385 60.200 227.500 50.632 C 227.575 44.405,227.769 40.878,228.056 40.532 C 228.950 39.455,246.648 39.793,247.360 40.900 C 247.837 41.641,247.971 45.052,248.121 60.200 L 248.303 78.600 249.376 82.200 C 249.967 84.180,250.559 86.160,250.694 86.600 C 252.093 91.188,257.537 99.199,262.095 103.377 C 266.567 107.477,275.828 113.105,276.688 112.246 C 276.812 112.121,276.574 111.905,276.157 111.766 C 267.698 108.945,257.622 99.917,253.428 91.400 C 248.930 82.266,248.726 80.937,248.517 59.400 C 248.373 44.572,248.240 41.241,247.762 40.500 C 247.049 39.394,229.309 39.087,227.900 40.157 M336.299 40.300 C 335.756 40.908,335.656 43.389,335.537 59.179 C 335.462 69.178,335.514 76.828,335.653 76.179 C 335.792 75.531,335.927 67.370,335.953 58.044 C 335.996 42.397,336.054 41.047,336.700 40.557 C 337.855 39.680,354.914 39.774,355.651 40.661 C 356.100 41.202,356.239 46.360,356.414 68.961 C 356.627 96.340,356.637 96.624,357.532 99.200 C 359.955 106.180,363.898 111.715,368.841 115.077 C 371.195 116.678,375.134 118.803,375.725 118.789 C 375.986 118.784,374.940 118.109,373.399 117.289 C 365.842 113.270,360.562 107.168,358.440 100.000 C 358.147 99.010,357.748 97.678,357.553 97.040 C 357.359 96.402,357.199 83.802,357.199 69.040 C 357.197 42.989,357.174 42.162,356.404 40.900 L 355.612 39.600 346.268 39.600 C 337.874 39.600,336.860 39.671,336.299 40.300 M226.265 61.962 C 225.499 63.698,224.429 64.554,222.499 64.978 C 221.789 65.134,221.118 65.408,221.007 65.588 C 220.758 65.991,223.129 65.481,224.209 64.899 C 225.455 64.228,226.716 62.700,227.014 61.500 C 227.402 59.934,227.069 60.140,226.265 61.962 M74.800 69.408 L 74.800 75.615 83.900 75.508 L 93.000 75.400 93.110 69.300 L 93.221 63.200 84.010 63.200 L 74.800 63.200 74.800 69.408 M92.800 69.400 L 92.800 75.200 84.000 75.200 L 75.200 75.200 75.200 69.400 L 75.200 63.600 84.000 63.600 L 92.800 63.600 92.800 69.400 M221.052 77.284 C 221.159 77.458,221.606 77.600,222.043 77.600 C 223.669 77.600,226.391 79.662,226.406 80.905 C 226.409 81.177,226.604 81.670,226.838 82.000 C 227.163 82.457,227.207 82.315,227.022 81.400 C 226.691 79.757,223.967 77.330,222.226 77.127 C 221.472 77.039,220.944 77.110,221.052 77.284 M334.263 80.624 C 333.859 82.371,333.010 85.140,332.377 86.779 C 331.239 89.720,331.023 91.355,332.119 88.733 C 333.769 84.783,335.347 79.261,335.138 78.172 C 335.061 77.774,334.668 78.877,334.263 80.624 M227.351 87.200 C 227.351 89.730,227.416 90.765,227.496 89.500 C 227.575 88.235,227.575 86.165,227.496 84.900 C 227.416 83.635,227.351 84.670,227.351 87.200 M55.000 87.362 C 48.706 88.918,45.892 93.015,46.087 100.341 L 46.200 104.600 84.000 104.600 L 121.800 104.600 121.921 101.200 C 122.153 94.659,120.225 90.871,115.227 88.051 C 113.025 86.809,59.707 86.199,55.000 87.362 M330.537 91.117 C 330.411 91.603,330.148 92.000,329.953 92.000 C 329.759 92.000,329.600 92.190,329.600 92.422 C 329.600 92.819,327.053 96.755,325.643 98.537 C 321.648 103.584,312.809 110.011,307.443 111.771 C 307.026 111.907,306.788 112.121,306.912 112.246 C 307.426 112.759,314.293 109.211,317.802 106.620 C 322.870 102.876,332.119 91.586,331.019 90.486 C 330.881 90.348,330.664 90.632,330.537 91.117 M226.657 93.900 C 226.520 94.725,226.407 95.974,226.404 96.676 C 226.402 97.378,226.220 98.064,226.000 98.200 C 225.780 98.336,225.600 98.801,225.600 99.232 C 225.600 104.129,217.746 113.515,210.600 117.158 C 208.840 118.056,207.631 118.792,207.913 118.795 C 208.669 118.802,212.280 116.908,214.800 115.183 C 221.330 110.711,226.254 102.559,227.050 94.900 C 227.333 92.180,227.057 91.478,226.657 93.900 M277.800 112.800 C 278.901 113.273,279.292 113.273,279.000 112.800 C 278.864 112.580,278.358 112.413,277.876 112.428 C 277.031 112.455,277.029 112.469,277.800 112.800 M304.800 112.800 C 304.267 113.145,304.267 113.188,304.800 113.188 C 305.130 113.188,305.670 113.013,306.000 112.800 C 306.533 112.455,306.533 112.412,306.000 112.412 C 305.670 112.412,305.130 112.587,304.800 112.800 M280.200 113.600 C 281.384 114.109,282.787 114.109,282.000 113.600 C 281.670 113.387,280.950 113.222,280.400 113.234 C 279.484 113.254,279.467 113.285,280.200 113.600 M302.000 113.600 C 301.205 114.114,302.204 114.114,303.400 113.600 L 304.200 113.256 303.400 113.234 C 302.960 113.222,302.330 113.387,302.000 113.600 M13.722 114.802 C 13.019 115.461,12.254 116.000,12.022 116.000 C 11.790 116.000,11.600 116.188,11.600 116.418 C 11.600 116.648,11.159 117.278,10.619 117.817 C 10.080 118.356,9.339 119.428,8.974 120.199 C 8.608 120.969,8.149 121.600,7.954 121.600 C 6.968 121.600,7.746 123.282,9.138 124.161 C 11.400 125.588,12.160 127.481,11.874 130.971 C 11.207 139.107,16.019 146.386,23.541 148.619 C 26.804 149.589,140.368 149.280,143.600 148.293 C 149.038 146.632,154.400 141.818,154.400 138.596 C 154.400 138.305,154.611 137.996,154.870 137.910 C 155.567 137.678,155.539 129.218,154.836 127.741 C 154.537 127.113,154.092 126.153,153.846 125.606 C 152.063 121.633,147.414 118.318,142.000 117.157 C 138.984 116.511,27.680 116.326,23.514 116.961 C 20.759 117.381,19.403 116.921,17.623 114.965 C 16.099 113.290,15.367 113.260,13.722 114.802 M283.600 114.400 C 284.150 114.576,285.320 114.717,286.200 114.713 C 287.722 114.706,287.742 114.690,286.600 114.400 C 284.860 113.957,282.218 113.957,283.600 114.400 M297.400 114.400 L 296.200 114.705 297.600 114.705 C 298.370 114.705,299.540 114.568,300.200 114.400 L 301.400 114.095 300.000 114.095 C 299.230 114.095,298.060 114.232,297.400 114.400 M290.112 115.095 C 291.164 115.177,292.784 115.176,293.712 115.092 C 294.640 115.008,293.780 114.941,291.800 114.942 C 289.820 114.943,289.060 115.012,290.112 115.095 M204.200 119.398 C 203.100 119.687,200.978 120.046,199.484 120.195 C 194.991 120.645,195.200 119.949,195.200 134.478 L 195.200 146.804 201.046 149.622 C 204.262 151.172,206.977 152.356,207.081 152.252 C 207.184 152.149,206.128 151.535,204.734 150.887 C 203.340 150.240,200.805 149.037,199.100 148.214 L 196.000 146.718 196.000 134.173 C 196.000 119.822,195.631 121.073,200.000 120.625 C 203.074 120.310,206.446 119.586,206.980 119.127 C 207.500 118.679,206.604 118.767,204.200 119.398 M376.535 119.096 C 376.838 119.585,378.072 119.854,383.354 120.583 C 388.370 121.275,387.989 120.137,387.979 134.400 L 387.970 146.600 378.156 151.390 C 372.758 154.025,368.492 156.231,368.675 156.292 C 368.935 156.378,382.120 150.112,387.200 147.486 L 388.200 146.970 388.306 134.233 C 388.425 119.894,388.540 120.444,385.400 120.406 C 383.963 120.388,380.611 119.787,377.440 118.979 C 376.679 118.785,376.368 118.825,376.535 119.096 M279.042 132.107 C 274.095 134.942,275.895 143.200,281.459 143.200 L 282.800 143.200 282.800 153.200 C 282.800 163.113,282.793 163.200,281.954 163.200 C 276.386 163.200,274.623 171.555,279.602 174.353 C 282.499 175.981,297.606 175.532,299.471 173.763 C 303.207 170.216,300.952 163.200,296.076 163.200 C 295.275 163.200,295.258 162.969,295.130 150.700 C 294.987 136.946,294.934 136.644,292.220 133.929 C 289.392 131.101,282.467 130.143,279.042 132.107 M289.800 132.683 C 294.192 134.966,294.400 135.776,294.400 150.625 C 294.400 160.364,294.514 163.257,294.900 163.365 C 299.620 164.690,300.954 165.973,300.954 169.191 C 300.954 173.944,299.149 174.797,289.080 174.799 C 279.479 174.800,278.497 174.464,277.177 170.724 C 275.948 167.239,277.988 164.703,283.107 163.353 C 283.503 163.249,283.590 161.006,283.507 153.110 L 283.400 143.000 281.800 142.800 C 275.850 142.056,274.455 134.621,279.800 132.141 C 281.640 131.287,287.751 131.619,289.800 132.683 M209.200 153.377 C 209.200 153.474,210.955 154.393,213.100 155.418 C 215.245 156.444,219.160 158.329,221.800 159.608 C 226.908 162.082,234.083 165.511,241.600 169.072 C 246.482 171.385,248.393 172.304,259.800 177.828 C 263.760 179.746,268.800 182.165,271.000 183.203 C 278.180 186.591,285.335 190.020,288.700 191.684 L 292.000 193.316 295.300 191.698 C 303.545 187.655,312.825 183.200,313.001 183.200 C 313.108 183.200,316.481 181.601,320.498 179.647 C 336.094 172.059,340.511 169.938,341.492 169.565 C 342.053 169.352,342.417 169.083,342.302 168.968 C 342.087 168.753,339.483 169.943,328.000 175.502 C 324.370 177.260,319.690 179.511,317.600 180.505 C 313.924 182.254,309.008 184.611,297.514 190.135 L 292.029 192.771 285.314 189.546 C 281.622 187.772,276.890 185.511,274.800 184.521 C 272.710 183.531,268.660 181.589,265.800 180.206 C 262.940 178.822,258.440 176.655,255.800 175.389 C 253.160 174.124,248.390 171.835,245.200 170.303 C 232.091 164.006,229.675 162.849,227.000 161.589 C 225.460 160.864,220.892 158.679,216.849 156.735 C 209.387 153.146,209.200 153.064,209.200 153.377 M361.160 159.529 C 357.728 161.218,352.172 163.915,348.814 165.521 C 345.457 167.128,342.791 168.524,342.891 168.624 C 342.991 168.724,344.677 168.021,346.636 167.060 C 348.596 166.100,352.180 164.369,354.600 163.213 C 367.023 157.279,368.884 156.315,367.700 156.429 C 367.535 156.445,364.592 157.840,361.160 159.529 M388.000 221.520 L 388.200 283.000 388.301 221.821 C 388.357 188.173,388.267 160.507,388.101 160.341 C 387.936 160.176,387.890 187.706,388.000 221.520 M74.898 211.692 L 75.000 262.600 84.000 262.600 L 93.000 262.600 93.000 211.800 L 93.000 161.000 83.898 160.892 L 74.797 160.785 74.898 211.692 M92.800 211.600 L 92.800 262.000 84.000 262.000 L 75.200 262.000 75.200 211.600 L 75.200 161.200 84.000 161.200 L 92.800 161.200 92.800 211.600 M234.522 223.099 C 236.899 223.170,240.679 223.169,242.922 223.098 C 245.165 223.027,243.220 222.969,238.600 222.969 C 233.980 222.970,232.145 223.028,234.522 223.099 M346.300 223.093 C 347.235 223.177,348.765 223.177,349.700 223.093 C 350.635 223.009,349.870 222.940,348.000 222.940 C 346.130 222.940,345.365 223.009,346.300 223.093 M238.227 235.300 C 238.124 235.795,237.965 238.180,237.875 240.600 C 237.691 245.514,237.005 247.750,234.542 251.461 C 232.789 254.102,232.476 253.361,239.602 263.446 C 239.931 263.911,241.355 265.981,242.766 268.046 C 244.178 270.111,245.516 271.921,245.741 272.070 C 245.966 272.218,246.150 273.531,246.150 274.986 C 246.150 276.824,246.263 277.430,246.521 276.969 C 247.374 275.445,246.600 272.657,244.469 269.580 C 243.334 267.941,241.657 265.520,240.743 264.200 C 239.829 262.880,237.847 260.069,236.340 257.953 C 233.402 253.827,233.289 253.556,234.187 252.811 C 236.512 250.881,238.400 245.028,238.400 239.748 C 238.400 234.619,238.448 234.577,243.927 234.937 C 249.576 235.308,249.810 235.508,253.130 242.800 C 257.461 252.311,265.412 260.471,275.108 265.354 C 278.396 267.010,283.773 268.942,284.457 268.714 C 284.714 268.629,283.322 268.037,281.363 267.400 C 271.363 264.146,259.985 255.121,255.925 247.220 C 255.637 246.659,255.301 246.110,255.177 246.000 C 254.892 245.745,252.692 241.038,252.000 239.200 C 250.634 235.574,248.325 234.400,242.559 234.400 C 238.584 234.400,238.408 234.437,238.227 235.300 M343.607 235.252 C 341.958 236.258,341.483 236.853,340.803 238.768 C 336.428 251.096,326.035 261.764,313.698 266.592 C 312.101 267.217,310.876 267.809,310.975 267.908 C 311.724 268.657,321.238 263.707,325.874 260.156 C 331.694 255.698,340.800 243.537,340.800 240.221 C 340.800 233.571,354.872 233.492,357.737 240.125 C 358.040 240.826,358.493 241.903,358.744 242.519 C 359.074 243.329,359.200 253.898,359.200 280.819 L 359.200 318.000 318.870 318.000 L 278.539 318.000 277.727 317.100 C 277.280 316.605,276.136 315.030,275.185 313.600 C 274.234 312.170,273.308 310.940,273.128 310.867 C 272.947 310.793,272.800 310.558,272.800 310.343 C 272.800 310.129,272.287 309.289,271.660 308.477 C 271.033 307.664,268.031 303.400,264.989 299.000 C 258.379 289.438,258.344 289.398,256.143 288.557 C 254.174 287.805,251.063 288.337,250.616 289.501 C 250.441 289.958,250.511 290.008,250.891 289.698 C 253.161 287.847,257.423 288.638,258.931 291.190 C 259.314 291.840,259.853 292.602,260.128 292.885 C 260.403 293.168,261.984 295.380,263.642 297.800 C 270.570 307.911,275.008 314.208,275.294 314.333 C 275.462 314.407,275.600 314.707,275.600 315.000 C 275.600 315.293,275.735 315.593,275.900 315.667 C 276.065 315.740,276.705 316.476,277.322 317.302 L 278.444 318.804 318.922 318.702 L 359.400 318.600 359.508 281.000 C 359.630 238.588,359.794 241.026,356.600 237.746 C 353.435 234.495,346.905 233.241,343.607 235.252 M224.800 236.800 C 223.591 237.746,224.036 237.857,225.414 236.954 L 226.400 236.308 226.400 239.419 C 226.400 244.959,225.971 245.405,213.600 252.747 C 208.650 255.684,203.658 258.698,202.506 259.444 C 201.355 260.190,200.307 260.800,200.178 260.800 C 200.049 260.800,199.159 261.340,198.200 262.000 C 197.241 262.660,196.341 263.200,196.200 263.200 C 196.059 263.200,195.159 263.740,194.200 264.400 C 193.241 265.060,192.341 265.600,192.200 265.600 C 192.059 265.600,191.159 266.140,190.200 266.800 C 189.241 267.460,188.378 268.000,188.282 268.000 C 188.186 268.000,184.999 269.890,181.200 272.200 C 177.401 274.510,174.214 276.400,174.118 276.400 C 174.022 276.400,173.159 276.940,172.200 277.600 C 171.241 278.260,170.341 278.800,170.200 278.800 C 170.059 278.800,169.159 279.340,168.200 280.000 C 167.241 280.660,166.367 281.200,166.257 281.200 C 166.148 281.200,164.631 282.076,162.887 283.147 C 161.142 284.217,159.014 285.279,158.158 285.505 C 156.655 285.903,156.643 285.919,157.825 285.959 C 158.727 285.989,161.258 284.670,167.425 280.958 C 175.352 276.186,176.568 275.462,179.700 273.646 C 180.415 273.232,185.661 270.082,191.358 266.646 C 197.055 263.211,201.870 260.400,202.058 260.400 C 202.246 260.400,202.400 260.241,202.400 260.047 C 202.400 259.852,202.715 259.593,203.100 259.471 C 203.785 259.254,206.004 257.996,206.400 257.600 C 206.796 257.204,209.015 255.946,209.700 255.729 C 210.085 255.607,210.400 255.348,210.400 255.153 C 210.400 254.959,210.556 254.800,210.746 254.800 C 211.293 254.800,222.911 247.753,223.800 246.882 C 226.319 244.414,226.800 243.215,226.800 239.405 C 226.800 235.699,226.578 235.410,224.800 236.800 M221.600 238.664 C 220.610 239.231,219.322 240.033,218.738 240.447 C 218.154 240.861,217.557 241.200,217.410 241.200 C 217.264 241.200,216.359 241.740,215.400 242.400 C 214.441 243.060,213.541 243.600,213.400 243.600 C 213.259 243.600,212.359 244.140,211.400 244.800 C 210.441 245.460,209.541 246.000,209.400 246.000 C 209.259 246.000,208.359 246.540,207.400 247.200 C 206.441 247.860,205.570 248.400,205.465 248.400 C 205.361 248.400,203.081 249.750,200.400 251.400 C 197.719 253.050,195.439 254.400,195.335 254.400 C 195.230 254.400,194.359 254.940,193.400 255.600 C 192.441 256.260,191.541 256.800,191.400 256.800 C 191.259 256.800,190.359 257.340,189.400 258.000 C 188.441 258.660,187.541 259.200,187.400 259.200 C 187.259 259.200,186.359 259.740,185.400 260.400 C 184.441 261.060,183.463 261.600,183.228 261.600 C 182.993 261.600,182.800 261.788,182.800 262.017 C 182.800 262.441,184.163 261.713,189.729 258.312 C 191.451 257.260,192.953 256.400,193.068 256.400 C 193.183 256.400,193.754 256.061,194.338 255.647 C 194.922 255.233,196.030 254.535,196.800 254.096 C 203.968 250.010,223.600 238.038,223.600 237.753 C 223.600 237.525,223.549 237.549,221.600 238.664 M320.575 248.900 L 319.400 250.200 320.700 249.025 C 321.912 247.930,322.184 247.600,321.875 247.600 C 321.806 247.600,321.221 248.185,320.575 248.900 M180.800 263.200 C 180.250 263.630,179.688 263.986,179.551 263.991 C 179.415 263.996,175.545 266.276,170.951 269.058 C 166.358 271.840,161.970 274.471,161.200 274.905 C 160.430 275.339,159.322 276.033,158.738 276.447 C 158.154 276.861,157.583 277.200,157.468 277.200 C 157.129 277.200,150.665 281.216,149.892 281.906 C 148.639 283.025,152.213 286.050,154.680 285.959 C 155.643 285.923,155.575 285.860,154.200 285.509 C 152.398 285.049,150.000 283.419,150.000 282.654 C 150.000 282.376,157.290 277.780,166.200 272.439 C 175.110 267.099,182.400 262.655,182.400 262.565 C 182.400 262.200,181.747 262.459,180.800 263.200 M307.000 268.646 C 301.537 270.139,294.615 270.231,286.400 268.921 C 285.630 268.798,285.104 268.809,285.230 268.946 C 285.760 269.516,292.504 270.385,296.400 270.385 C 300.954 270.385,309.465 269.069,310.298 268.235 C 310.669 267.864,309.181 268.050,307.000 268.646 M201.464 273.600 C 200.424 274.260,199.476 274.800,199.358 274.800 C 199.240 274.800,198.389 275.295,197.465 275.900 C 196.542 276.505,195.440 277.193,195.017 277.429 C 193.556 278.242,193.290 277.774,203.400 292.213 C 205.820 295.669,207.980 298.790,208.200 299.148 C 208.420 299.507,208.705 299.890,208.832 300.000 C 208.960 300.110,209.984 301.550,211.109 303.200 C 212.233 304.850,215.099 308.990,217.478 312.400 L 221.804 318.600 228.602 318.600 C 236.812 318.600,236.595 319.120,231.425 311.828 C 227.302 306.014,225.547 303.492,221.937 298.200 C 219.048 293.963,219.247 294.219,219.018 294.449 C 218.917 294.549,219.831 296.064,221.048 297.816 C 222.265 299.567,224.178 302.350,225.298 304.000 C 226.419 305.650,227.452 307.090,227.593 307.200 C 227.924 307.456,234.800 317.596,234.800 317.827 C 234.800 317.922,231.935 318.000,228.434 318.000 L 222.068 318.000 220.399 315.700 C 218.204 312.675,208.924 299.372,201.036 287.943 C 198.857 284.784,196.459 281.392,195.708 280.405 L 194.343 278.610 195.471 277.707 C 196.092 277.210,196.748 276.803,196.928 276.802 C 197.108 276.801,198.041 276.260,199.000 275.600 C 199.959 274.940,200.864 274.400,201.010 274.400 C 201.157 274.400,201.783 274.039,202.403 273.598 L 203.529 272.796 204.912 274.698 C 205.673 275.744,207.909 278.940,209.880 281.800 C 216.839 291.895,218.039 293.577,218.479 293.849 C 219.007 294.175,218.763 293.741,216.992 291.200 C 216.301 290.210,214.499 287.600,212.986 285.400 C 211.473 283.200,210.122 281.310,209.984 281.200 C 209.846 281.090,208.589 279.290,207.191 277.200 C 203.511 271.696,203.991 271.998,201.464 273.600 M24.200 274.554 C 9.388 278.156,7.429 298.209,21.200 305.267 L 23.800 306.600 52.463 306.800 L 81.127 307.000 82.629 308.216 C 86.486 311.339,85.127 317.118,80.245 318.347 C 79.052 318.647,72.980 318.800,62.223 318.800 L 46.000 318.800 46.003 323.100 C 46.007 328.890,47.288 331.721,51.043 334.238 C 54.305 336.425,53.995 336.400,77.898 336.400 L 98.484 336.400 98.291 334.900 C 98.186 334.075,97.807 331.870,97.450 330.000 C 96.399 324.492,96.615 320.188,98.346 312.200 C 100.195 303.664,109.348 291.872,117.180 287.937 C 117.741 287.655,118.952 286.924,119.872 286.312 C 120.792 285.701,121.659 285.200,121.800 285.200 C 121.941 285.200,122.841 284.660,123.800 284.000 C 124.759 283.340,125.659 282.800,125.800 282.800 C 125.941 282.800,126.841 282.260,127.800 281.600 C 128.759 280.940,129.632 280.400,129.740 280.400 C 130.091 280.400,136.569 276.309,137.671 275.392 L 138.742 274.501 136.915 274.250 C 133.230 273.745,26.342 274.034,24.200 274.554 M244.514 279.042 C 244.027 279.569,243.826 280.000,244.067 280.000 C 244.452 280.000,246.000 278.509,246.000 278.139 C 246.000 277.763,245.308 278.184,244.514 279.042 M137.114 289.400 C 136.305 289.950,135.530 290.400,135.393 290.400 C 135.256 290.400,134.359 290.940,133.400 291.600 C 132.441 292.260,131.541 292.800,131.400 292.800 C 131.259 292.800,130.359 293.340,129.400 294.000 C 128.441 294.660,127.536 295.200,127.390 295.200 C 127.243 295.200,126.646 295.539,126.062 295.953 C 125.478 296.367,124.280 297.105,123.400 297.593 C 119.367 299.828,114.951 304.022,112.830 307.630 C 110.422 311.727,109.185 314.875,109.069 317.200 L 109.000 318.600 144.100 318.702 C 183.252 318.816,180.387 319.039,178.065 316.058 C 177.441 315.256,176.150 313.430,175.195 312.000 C 174.241 310.570,173.357 309.310,173.230 309.200 C 173.104 309.090,172.820 308.702,172.600 308.337 C 171.942 307.246,167.175 300.358,165.490 298.064 C 164.195 296.300,163.771 295.974,163.061 296.195 C 156.635 298.191,150.935 297.684,146.528 294.723 C 145.608 294.106,144.715 293.600,144.543 293.600 C 144.116 293.600,140.000 289.218,140.000 288.764 C 140.000 288.085,138.592 288.396,137.114 289.400 M142.798 292.675 C 148.175 297.565,157.035 299.295,163.200 296.661 C 163.599 296.490,164.092 296.840,164.671 297.702 C 165.150 298.416,167.810 302.240,170.581 306.200 C 173.353 310.160,176.343 314.435,177.225 315.700 L 178.830 318.000 144.215 318.000 L 109.600 318.000 109.606 316.900 C 109.630 312.286,115.584 303.394,121.164 299.638 C 124.096 297.664,135.315 290.897,137.550 289.753 L 139.300 288.858 140.348 290.129 C 140.924 290.828,142.026 291.974,142.798 292.675 M376.600 294.800 C 376.096 295.017,376.022 295.144,376.400 295.144 C 376.730 295.144,377.360 294.989,377.800 294.800 C 378.304 294.583,378.378 294.456,378.000 294.456 C 377.670 294.456,377.040 294.611,376.600 294.800 M109.325 330.250 C 108.975 331.163,111.737 338.255,112.811 339.200 C 112.936 339.310,113.470 340.030,113.998 340.800 C 116.792 344.879,126.305 351.828,127.483 350.650 C 127.610 350.523,127.374 350.310,126.957 350.176 C 126.277 349.959,125.222 349.445,121.980 347.753 C 117.292 345.307,109.686 334.825,109.606 330.700 C 109.603 330.535,165.760 330.400,234.400 330.400 L 359.200 330.400 359.200 336.781 C 359.200 340.639,359.020 343.605,358.744 344.281 C 357.526 347.267,357.158 347.888,355.926 349.028 C 353.164 351.586,352.618 351.765,346.800 352.022 L 341.400 352.261 346.451 352.331 C 353.496 352.427,356.415 350.938,358.616 346.127 C 359.593 343.993,360.139 332.270,359.357 330.233 C 358.978 329.246,109.704 329.263,109.325 330.250 M74.979 348.111 C 74.868 348.400,74.827 351.239,74.889 354.418 L 75.000 360.200 84.000 360.200 L 93.000 360.200 93.000 354.000 L 93.000 347.800 84.090 347.692 C 77.019 347.607,75.139 347.693,74.979 348.111 M92.800 353.800 L 92.800 359.600 84.000 359.600 L 75.200 359.600 75.200 353.800 L 75.200 348.000 84.000 348.000 L 92.800 348.000 92.800 353.800 M128.059 350.969 C 128.529 351.481,132.571 352.391,134.200 352.352 C 135.510 352.321,135.293 352.224,133.000 351.820 C 131.460 351.548,129.660 351.182,129.000 351.007 C 128.340 350.831,127.916 350.814,128.059 350.969 M188.100 352.700 C 216.205 352.757,262.195 352.757,290.300 352.700 C 318.405 352.643,295.410 352.597,239.200 352.597 C 182.990 352.597,159.995 352.643,188.100 352.700 " stroke="none" fill="#515978" fill-rule="evenodd"></path></g></svg>