<svg id="svg" version="1.1" xmlns="http://www.w3.org/2000/svg" xmlns:xlink="http://www.w3.org/1999/xlink" width="400" height="400" viewBox="0, 0, 400,400"><g id="svgg"><path id="path0" d="M62.895 35.100 L 63.000 49.000 66.541 49.116 C 69.848 49.225,70.174 49.162,71.476 48.169 L 72.870 47.106 72.728 41.053 C 72.547 33.363,72.557 33.385,65.075 23.437 C 64.069 22.099,63.221 21.200,62.966 21.200 C 62.869 21.200,62.837 27.455,62.895 35.100 M84.549 33.700 C 84.677 34.635,84.896 37.560,85.035 40.200 C 85.315 45.506,85.157 45.178,88.799 48.004 C 89.788 48.772,90.958 49.698,91.399 50.061 C 91.839 50.425,94.180 52.285,96.600 54.195 C 99.020 56.105,101.361 57.968,101.801 58.334 C 102.242 58.700,103.411 59.630,104.400 60.400 C 105.389 61.170,106.468 62.016,106.799 62.281 C 110.242 65.035,120.597 73.268,121.790 74.200 C 122.634 74.860,123.879 75.850,124.557 76.400 C 125.991 77.563,125.359 77.060,133.000 83.125 C 139.742 88.475,169.071 111.775,170.001 112.519 C 170.332 112.784,171.411 113.630,172.400 114.400 C 173.389 115.170,174.558 116.096,174.999 116.457 C 183.989 123.832,191.120 129.251,192.243 129.561 C 197.291 130.955,201.977 125.165,199.122 121.062 C 198.167 119.688,197.680 119.250,193.200 115.729 C 189.890 113.128,182.543 107.299,181.600 106.525 C 180.858 105.916,160.677 89.931,151.253 82.487 C 147.432 79.469,144.097 76.820,143.843 76.600 C 143.588 76.380,142.575 75.572,141.590 74.806 C 140.606 74.039,139.530 73.190,139.200 72.920 C 138.870 72.651,133.470 68.366,127.200 63.400 C 120.930 58.434,115.529 54.152,115.199 53.885 C 114.868 53.618,113.789 52.770,112.800 52.000 C 111.811 51.230,110.642 50.302,110.201 49.939 C 109.761 49.575,107.420 47.715,105.000 45.805 C 102.580 43.895,100.239 42.032,99.799 41.666 C 99.358 41.300,98.188 40.373,97.199 39.606 C 96.209 38.839,95.205 38.029,94.966 37.806 C 92.592 35.586,86.246 32.000,84.690 32.000 C 84.480 32.000,84.418 32.746,84.549 33.700 M340.600 36.468 C 336.807 37.747,335.268 38.799,318.600 51.509 C 317.060 52.683,315.528 53.859,315.197 54.122 C 314.865 54.385,312.795 55.947,310.597 57.593 C 308.398 59.239,306.510 60.688,306.400 60.812 C 306.290 60.937,304.040 62.650,301.400 64.620 C 298.760 66.589,295.250 69.238,293.600 70.507 C 291.950 71.777,290.420 72.952,290.200 73.119 C 286.954 75.586,272.202 86.775,269.808 88.585 C 268.052 89.913,266.342 91.217,266.008 91.482 C 265.325 92.023,257.067 98.289,249.803 103.776 C 247.165 105.769,244.735 107.622,244.403 107.892 C 244.071 108.163,243.457 108.631,243.038 108.932 C 242.297 109.465,242.310 109.584,243.511 113.440 C 244.189 115.618,244.955 118.345,245.212 119.500 C 245.756 121.944,245.782 121.955,247.609 120.467 C 248.374 119.844,252.960 116.338,257.800 112.676 C 262.640 109.014,269.750 103.619,273.600 100.688 C 283.228 93.358,290.130 88.120,295.800 83.841 C 298.440 81.849,300.690 80.121,300.800 80.002 C 301.016 79.767,306.796 75.392,318.200 66.831 C 322.160 63.858,325.490 61.330,325.600 61.213 C 325.854 60.942,327.446 59.722,335.600 53.546 C 353.359 40.094,354.124 39.506,354.474 39.019 C 355.776 37.206,344.538 35.140,340.600 36.468 M233.000 66.841 C 228.156 67.143,226.779 67.360,222.600 68.479 C 214.630 70.612,203.748 76.458,195.339 83.123 L 193.279 84.756 193.850 86.415 C 200.072 104.475,223.884 108.670,235.854 93.815 C 240.229 88.387,241.200 84.883,241.200 74.534 L 241.200 66.400 239.700 66.458 C 238.875 66.490,235.860 66.662,233.000 66.841 M227.664 113.632 C 224.124 114.852,218.311 115.399,213.769 114.939 C 209.045 114.460,209.376 114.314,210.337 116.456 C 214.735 126.254,210.202 136.527,199.400 141.244 C 198.960 141.436,197.179 141.730,195.442 141.897 C 193.293 142.103,192.179 142.392,191.954 142.800 C 191.772 143.130,190.987 144.750,190.208 146.400 C 187.939 151.208,186.843 152.989,182.865 158.331 L 180.683 161.262 183.268 163.931 C 184.690 165.399,189.824 170.650,194.676 175.600 C 199.527 180.550,204.590 185.725,205.926 187.100 C 207.263 188.475,208.523 189.600,208.727 189.600 C 209.283 189.600,213.510 184.965,217.744 179.711 C 221.062 175.594,222.450 175.016,225.998 176.277 C 227.957 176.972,229.200 176.566,229.200 175.229 C 229.200 174.993,229.380 174.800,229.600 174.800 C 229.820 174.800,230.000 174.468,230.000 174.062 C 230.000 173.656,230.360 172.998,230.800 172.600 C 231.240 172.202,231.600 171.634,231.600 171.338 C 231.600 171.042,231.780 170.800,232.000 170.800 C 232.220 170.800,232.400 170.440,232.400 170.000 C 232.400 169.560,232.580 169.200,232.800 169.200 C 233.020 169.200,233.200 168.935,233.200 168.612 C 233.200 168.289,233.560 167.383,234.000 166.600 C 234.440 165.817,234.800 164.821,234.800 164.388 C 234.800 163.955,234.980 163.600,235.200 163.600 C 236.042 163.600,235.532 162.958,233.840 161.889 C 230.626 159.859,230.175 157.292,231.996 151.400 C 232.403 150.080,232.950 147.740,233.209 146.200 C 233.469 144.660,233.843 142.536,234.041 141.480 C 234.532 138.856,234.495 127.188,233.989 124.877 C 233.762 123.845,233.389 122.100,233.159 121.000 C 232.515 117.922,230.529 112.745,230.032 112.848 C 229.905 112.874,228.839 113.227,227.664 113.632 M170.200 171.050 C 169.540 171.612,166.840 173.497,164.200 175.238 C 157.884 179.405,158.229 179.079,158.961 180.196 C 159.293 180.704,162.028 185.233,165.036 190.260 C 168.045 195.287,171.023 200.152,171.654 201.072 C 172.284 201.992,172.800 202.824,172.800 202.921 C 172.800 203.222,176.444 209.180,176.740 209.363 C 177.978 210.128,197.725 200.063,198.984 198.025 C 199.113 197.817,194.930 193.271,189.690 187.923 C 184.449 182.575,178.386 176.355,176.217 174.100 C 171.869 169.579,171.906 169.598,170.200 171.050 M115.067 370.667 C 114.920 370.813,114.800 373.699,114.800 377.080 C 114.800 383.764,115.089 385.054,116.980 386.800 L 118.063 387.800 130.332 387.915 C 137.079 387.978,144.760 387.978,147.400 387.915 L 152.200 387.800 150.000 386.933 C 148.790 386.456,142.490 384.337,136.000 382.223 C 129.510 380.109,123.908 378.156,123.551 377.883 C 122.155 376.815,121.203 374.634,121.201 372.500 L 121.200 370.400 118.267 370.400 C 116.653 370.400,115.213 370.520,115.067 370.667 " stroke="none" fill="#ddacbe" fill-rule="evenodd"></path><path id="path1" d="M62.649 21.015 C 62.292 21.948,62.340 48.716,62.700 48.938 C 62.865 49.041,62.950 42.845,62.890 35.171 C 62.786 21.960,62.818 21.230,63.490 21.446 C 63.908 21.581,64.035 21.534,63.800 21.333 C 63.580 21.145,63.287 20.850,63.149 20.678 C 63.012 20.506,62.787 20.658,62.649 21.015 M344.705 35.883 C 345.202 35.979,345.922 35.975,346.305 35.875 C 346.687 35.775,346.280 35.696,345.400 35.701 C 344.520 35.705,344.207 35.787,344.705 35.883 M84.946 41.000 C 84.947 43.200,85.014 44.049,85.095 42.887 C 85.176 41.724,85.176 39.924,85.093 38.887 C 85.011 37.849,84.945 38.800,84.946 41.000 M72.951 42.000 C 72.951 44.530,73.016 45.565,73.096 44.300 C 73.175 43.035,73.175 40.965,73.096 39.700 C 73.016 38.435,72.951 39.470,72.951 42.000 M63.300 61.065 C 62.915 61.220,62.798 64.182,62.790 73.933 C 62.778 89.921,62.540 90.960,58.624 92.077 C 55.913 92.850,56.000 92.560,56.000 100.800 C 56.000 108.925,55.991 108.892,58.281 109.381 C 59.751 109.696,61.379 110.867,62.103 112.131 C 62.461 112.757,62.667 117.078,62.840 127.600 C 63.091 142.844,63.150 143.373,65.054 147.498 C 66.232 150.051,67.983 152.423,72.170 157.137 C 74.386 159.632,77.075 162.692,78.144 163.937 C 79.212 165.182,80.653 166.830,81.344 167.600 C 83.443 169.938,96.569 184.760,101.170 189.988 C 102.617 191.632,104.581 193.828,105.536 194.868 L 107.272 196.760 109.248 193.804 C 111.862 189.897,115.574 186.242,119.666 183.546 C 122.970 181.369,123.575 181.047,128.171 179.025 C 129.490 178.444,130.377 177.838,130.171 177.657 C 129.561 177.123,117.604 166.067,114.793 163.438 C 113.360 162.097,110.930 159.840,109.393 158.423 C 107.857 157.006,105.248 154.576,103.596 153.023 C 101.944 151.470,99.423 149.120,97.994 147.800 C 83.857 134.742,84.246 135.187,83.567 131.300 C 83.365 130.145,83.020 128.210,82.800 127.000 C 82.580 125.790,82.220 123.810,82.000 122.600 C 81.780 121.390,81.420 119.410,81.200 118.200 C 80.980 116.990,80.620 115.010,80.400 113.800 C 80.180 112.590,79.820 110.610,79.600 109.400 C 79.380 108.190,79.020 106.210,78.800 105.000 C 78.580 103.790,78.230 101.855,78.023 100.700 C 75.543 86.877,72.827 71.966,71.996 67.600 C 71.556 65.290,71.197 63.098,71.198 62.729 C 71.203 61.090,65.969 59.988,63.300 61.065 M127.200 63.325 C 127.200 63.424,127.861 64.009,128.668 64.625 C 129.476 65.241,130.011 65.541,129.856 65.291 C 129.540 64.779,127.200 63.047,127.200 63.325 M241.199 73.919 L 241.398 81.800 241.508 74.229 C 241.569 70.065,241.479 66.519,241.309 66.348 C 241.139 66.178,241.090 69.585,241.199 73.919 M234.300 66.689 C 235.015 66.778,236.185 66.778,236.900 66.689 C 237.615 66.601,237.030 66.528,235.600 66.528 C 234.170 66.528,233.585 66.601,234.300 66.689 M312.800 70.849 C 311.406 72.071,311.405 72.072,312.688 71.219 C 313.396 70.748,314.082 70.191,314.212 69.981 C 314.597 69.357,314.277 69.554,312.800 70.849 M140.544 73.909 C 140.860 74.421,143.200 76.153,143.200 75.875 C 143.200 75.776,142.539 75.191,141.732 74.575 C 140.924 73.959,140.389 73.659,140.544 73.909 M229.492 112.641 C 229.360 112.774,228.025 113.213,226.526 113.617 C 225.026 114.021,224.177 114.363,224.638 114.376 C 225.099 114.389,226.528 114.053,227.815 113.628 C 229.998 112.908,230.190 112.901,230.699 113.528 C 231.178 114.118,231.191 114.091,230.808 113.300 C 230.372 112.400,229.946 112.187,229.492 112.641 M209.379 114.433 C 209.231 114.673,209.321 115.079,209.579 115.335 C 209.936 115.690,209.984 115.634,209.782 115.102 C 209.551 114.496,209.693 114.437,210.858 114.659 C 212.418 114.956,212.312 114.635,210.725 114.255 C 210.102 114.106,209.536 114.181,209.379 114.433 M215.712 115.095 C 216.764 115.177,218.384 115.176,219.312 115.092 C 220.240 115.008,219.380 114.941,217.400 114.942 C 215.420 114.943,214.660 115.012,215.712 115.095 M211.485 122.402 C 211.708 127.039,211.903 127.659,211.925 123.800 C 211.936 122.040,211.804 120.241,211.632 119.802 C 211.461 119.364,211.395 120.534,211.485 122.402 M232.856 119.600 C 232.856 119.930,233.011 120.560,233.200 121.000 C 233.417 121.504,233.544 121.578,233.544 121.200 C 233.544 120.870,233.389 120.240,233.200 119.800 C 232.983 119.296,232.856 119.222,232.856 119.600 M233.680 123.400 C 233.680 123.840,233.824 124.650,234.000 125.200 C 234.254 125.992,234.320 126.033,234.320 125.400 C 234.320 124.960,234.176 124.150,234.000 123.600 C 233.746 122.808,233.680 122.767,233.680 123.400 M234.554 133.200 C 234.554 135.950,234.618 137.075,234.696 135.700 C 234.774 134.325,234.774 132.075,234.696 130.700 C 234.618 129.325,234.554 130.450,234.554 133.200 M209.200 132.661 C 209.200 132.878,208.556 133.808,207.769 134.728 C 206.982 135.648,206.487 136.394,206.669 136.388 C 207.180 136.369,209.744 132.811,209.455 132.522 C 209.315 132.382,209.200 132.444,209.200 132.661 M203.800 138.650 C 203.081 139.262,202.934 139.505,203.433 139.257 C 204.166 138.893,205.541 137.576,205.149 137.614 C 205.067 137.622,204.460 138.088,203.800 138.650 M233.818 142.218 C 233.665 143.239,233.622 144.155,233.722 144.255 C 233.822 144.355,234.029 143.602,234.182 142.582 C 234.335 141.561,234.378 140.645,234.278 140.545 C 234.178 140.445,233.971 141.198,233.818 142.218 M192.100 141.865 C 191.825 141.976,191.600 142.254,191.600 142.482 C 191.600 142.766,191.762 142.763,192.110 142.475 C 192.391 142.242,193.516 141.982,194.610 141.898 L 196.600 141.744 194.600 141.704 C 193.500 141.681,192.375 141.754,192.100 141.865 M233.050 146.850 C 232.717 148.517,233.040 148.840,233.400 147.200 C 233.552 146.509,233.593 145.859,233.491 145.758 C 233.389 145.656,233.191 146.147,233.050 146.850 M230.901 157.000 C 230.905 157.880,230.987 158.193,231.083 157.695 C 231.179 157.198,231.175 156.478,231.075 156.095 C 230.975 155.713,230.896 156.120,230.901 157.000 M182.041 158.893 L 180.282 161.275 183.237 164.138 L 186.193 167.000 183.430 164.123 L 180.667 161.246 182.390 159.013 C 183.338 157.785,184.043 156.719,183.956 156.645 C 183.870 156.571,183.008 157.583,182.041 158.893 M171.600 169.881 C 171.930 170.000,172.830 170.661,173.600 171.349 L 175.000 172.600 173.622 171.100 C 172.863 170.275,171.963 169.614,171.622 169.632 C 171.084 169.659,171.081 169.692,171.600 169.881 M188.800 169.837 C 188.800 170.041,192.265 173.626,196.500 177.804 L 204.200 185.400 196.600 177.615 C 192.420 173.333,188.955 169.748,188.900 169.648 C 188.845 169.548,188.800 169.633,188.800 169.837 M221.863 175.900 C 221.762 176.065,222.546 176.201,223.605 176.202 C 224.664 176.203,225.321 176.071,225.065 175.908 C 224.456 175.521,222.099 175.515,221.863 175.900 M219.570 177.500 L 218.600 178.600 219.800 177.600 C 220.460 177.050,221.075 176.555,221.167 176.500 C 221.258 176.445,221.155 176.400,220.936 176.400 C 220.718 176.400,220.103 176.895,219.570 177.500 M185.000 183.200 C 188.074 186.280,190.679 188.800,190.789 188.800 C 190.899 188.800,188.474 186.280,185.400 183.200 C 182.326 180.120,179.721 177.600,179.611 177.600 C 179.501 177.600,181.926 180.120,185.000 183.200 M214.026 184.122 L 213.051 185.400 214.326 184.225 C 215.651 183.003,215.803 182.785,215.300 182.822 C 215.135 182.834,214.562 183.419,214.026 184.122 M145.200 184.903 C 144.650 185.149,143.390 185.698,142.400 186.122 C 141.410 186.546,140.060 187.128,139.400 187.415 C 138.740 187.703,137.213 188.326,136.007 188.800 C 134.801 189.274,132.860 190.098,131.695 190.631 C 130.530 191.164,129.430 191.600,129.250 191.600 C 128.452 191.600,123.941 194.895,121.955 196.929 C 118.237 200.737,116.082 205.812,115.219 212.790 C 114.739 216.672,114.643 291.406,115.066 332.534 L 115.331 358.400 120.002 358.400 L 124.672 358.400 125.120 356.900 C 125.366 356.075,125.657 354.860,125.766 354.200 C 125.875 353.540,126.161 352.100,126.400 351.000 C 126.640 349.900,127.008 348.145,127.218 347.100 C 127.428 346.055,127.772 344.345,127.982 343.300 C 128.192 342.255,128.536 340.590,128.746 339.600 C 128.957 338.610,129.333 336.810,129.582 335.600 C 129.831 334.390,130.214 332.590,130.434 331.600 C 130.653 330.610,131.002 328.900,131.210 327.800 C 131.417 326.700,131.770 324.990,131.994 324.000 C 132.219 323.010,132.573 321.300,132.782 320.200 C 132.991 319.100,133.988 314.240,134.996 309.400 C 136.005 304.560,137.203 298.800,137.658 296.600 C 138.114 294.400,138.650 291.880,138.850 291.000 C 139.050 290.120,139.383 288.500,139.590 287.400 C 139.798 286.300,140.147 284.590,140.366 283.600 C 140.586 282.610,140.969 280.810,141.218 279.600 C 141.467 278.390,141.843 276.590,142.054 275.600 C 142.264 274.610,142.608 272.945,142.818 271.900 C 143.028 270.855,143.372 269.145,143.582 268.100 C 143.792 267.055,144.152 265.345,144.382 264.300 C 145.447 259.460,145.657 258.471,146.016 256.600 C 146.227 255.500,146.572 253.790,146.783 252.800 C 146.993 251.810,147.369 250.010,147.618 248.800 C 147.867 247.590,148.235 245.835,148.435 244.900 C 149.361 240.587,149.553 239.660,149.948 237.600 C 150.555 234.429,153.061 222.415,153.409 221.000 C 154.129 218.078,155.756 216.849,161.600 214.813 C 165.012 213.624,164.991 213.658,163.601 211.465 C 162.940 210.424,162.400 209.398,162.400 209.186 C 162.400 208.974,162.241 208.800,162.047 208.800 C 161.852 208.800,161.587 208.485,161.458 208.100 C 161.328 207.715,160.901 206.860,160.509 206.200 C 150.996 190.196,147.355 184.404,146.822 184.427 C 146.480 184.442,145.750 184.656,145.200 184.903 M210.778 187.840 C 210.020 188.632,209.040 189.431,208.600 189.615 C 208.045 189.847,207.989 189.957,208.417 189.975 C 208.756 189.989,209.828 189.190,210.800 188.200 C 211.772 187.210,212.474 186.400,212.362 186.400 C 212.249 186.400,211.537 187.048,210.778 187.840 M135.800 388.000 L 119.400 388.213 135.676 388.307 C 146.198 388.367,152.040 388.259,152.200 388.000 C 152.336 387.780,152.392 387.642,152.324 387.693 C 152.256 387.745,144.820 387.883,135.800 388.000 " stroke="none" fill="#60638b" fill-rule="evenodd"></path><path id="path2" d="M187.898 12.434 C 179.802 14.342,174.865 22.738,177.005 30.956 C 178.218 35.611,182.800 40.696,182.800 37.387 C 182.800 32.527,196.936 16.400,201.195 16.400 C 202.173 16.400,201.271 15.355,199.231 14.124 C 195.981 12.163,191.735 11.530,187.898 12.434 M210.692 25.385 C 201.035 28.731,194.856 35.766,192.984 45.548 C 192.286 49.197,192.135 68.989,192.803 69.402 C 193.188 69.640,195.010 68.544,196.507 67.175 C 196.895 66.819,197.705 66.280,198.307 65.976 C 198.908 65.673,200.120 64.955,201.000 64.380 C 202.424 63.451,206.619 61.356,210.893 59.439 C 216.133 57.089,224.154 55.329,232.200 54.764 C 244.244 53.919,247.522 51.181,246.156 43.107 C 244.834 35.289,238.808 29.063,229.400 25.795 C 224.537 24.105,214.990 23.896,210.692 25.385 " stroke="none" fill="#e92323" fill-rule="evenodd"></path><path id="path3" d="M183.800 0.271 C 183.140 0.376,182.429 0.628,182.220 0.831 C 182.011 1.034,181.426 1.200,180.920 1.200 C 180.414 1.200,180.000 1.380,180.000 1.600 C 180.000 1.820,179.640 2.000,179.200 2.000 C 178.760 2.000,178.400 2.180,178.400 2.400 C 178.400 2.620,178.040 2.800,177.600 2.800 C 177.160 2.800,176.800 2.980,176.800 3.200 C 176.800 3.420,176.620 3.600,176.400 3.600 C 176.181 3.600,175.259 4.320,174.352 5.200 C 173.445 6.080,172.455 6.800,172.152 6.800 C 171.848 6.800,171.600 6.942,171.600 7.116 C 171.600 7.290,170.880 8.228,170.000 9.200 C 169.120 10.172,168.400 11.200,168.400 11.484 C 168.400 11.768,168.253 12.000,168.074 12.000 C 167.608 12.000,166.000 15.131,166.000 16.038 C 166.000 16.457,165.820 16.800,165.600 16.800 C 165.380 16.800,165.200 17.340,165.200 18.000 C 165.200 18.660,165.020 19.200,164.800 19.200 C 164.580 19.200,164.400 20.179,164.400 21.376 C 164.400 22.573,164.220 23.664,164.000 23.800 C 163.780 23.936,163.600 25.387,163.600 27.024 C 163.600 28.741,163.769 30.000,164.000 30.000 C 164.220 30.000,164.400 30.979,164.400 32.176 C 164.400 33.373,164.580 34.464,164.800 34.600 C 165.020 34.736,165.200 35.276,165.200 35.800 C 165.200 36.324,165.380 36.864,165.600 37.000 C 165.820 37.136,166.000 37.597,166.000 38.024 C 166.000 38.451,166.180 38.800,166.400 38.800 C 166.620 38.800,166.800 39.160,166.800 39.600 C 166.800 40.040,166.980 40.400,167.200 40.400 C 167.420 40.400,167.600 40.670,167.600 41.000 C 167.600 41.330,167.780 41.600,168.000 41.600 C 168.220 41.600,168.400 41.888,168.400 42.240 C 168.400 42.591,168.895 43.356,169.500 43.940 C 170.105 44.523,170.845 45.475,171.144 46.056 C 171.443 46.637,172.163 47.357,172.744 47.656 C 173.325 47.955,174.277 48.695,174.860 49.300 C 175.444 49.905,176.119 50.400,176.360 50.400 C 176.602 50.400,176.800 50.580,176.800 50.800 C 176.800 51.020,177.160 51.200,177.600 51.200 C 178.040 51.200,178.400 51.359,178.400 51.553 C 178.400 51.748,178.760 52.001,179.200 52.116 C 179.984 52.321,180.000 52.662,180.000 68.739 C 180.000 79.250,180.144 85.242,180.400 85.400 C 180.620 85.536,180.800 86.321,180.800 87.144 C 180.800 87.967,181.016 88.856,181.280 89.120 C 181.653 89.493,181.602 89.600,181.049 89.600 C 180.657 89.600,179.646 88.880,178.800 88.000 C 177.954 87.120,177.061 86.400,176.815 86.400 C 176.569 86.400,175.683 85.680,174.846 84.800 C 174.009 83.920,173.182 83.200,173.009 83.200 C 172.836 83.200,172.403 82.876,172.047 82.481 C 171.691 82.086,170.770 81.323,170.000 80.785 C 169.230 80.248,168.078 79.312,167.441 78.704 C 166.803 78.097,166.120 77.600,165.922 77.600 C 165.725 77.600,165.130 77.195,164.601 76.700 C 162.977 75.182,162.452 74.800,161.986 74.800 C 161.739 74.800,160.846 74.080,160.000 73.200 C 159.154 72.320,158.341 71.600,158.192 71.600 C 158.043 71.600,157.417 71.060,156.800 70.400 C 156.183 69.740,155.481 69.200,155.240 69.200 C 154.998 69.200,154.800 69.020,154.800 68.800 C 154.800 68.580,154.620 68.400,154.400 68.400 C 154.181 68.400,153.259 67.680,152.352 66.800 C 151.445 65.920,150.527 65.200,150.312 65.200 C 150.097 65.200,149.417 64.660,148.800 64.000 C 148.183 63.340,147.519 62.800,147.324 62.800 C 147.128 62.800,146.172 62.080,145.200 61.200 C 144.228 60.320,143.291 59.600,143.119 59.600 C 142.830 59.600,141.407 58.489,140.175 57.300 C 139.890 57.025,139.554 56.800,139.429 56.800 C 139.304 56.800,138.459 56.080,137.552 55.200 C 136.645 54.320,135.745 53.600,135.552 53.600 C 135.359 53.600,134.459 52.880,133.552 52.000 C 132.645 51.120,131.739 50.400,131.538 50.400 C 131.338 50.400,130.543 49.770,129.773 49.000 C 129.003 48.230,128.205 47.600,128.000 47.600 C 127.795 47.600,126.997 46.970,126.227 46.200 C 125.457 45.430,124.719 44.800,124.587 44.800 C 124.455 44.800,123.684 44.172,122.873 43.403 C 122.063 42.635,121.197 42.005,120.948 42.003 C 120.700 42.002,119.755 41.280,118.848 40.400 C 117.941 39.520,117.005 38.800,116.768 38.800 C 116.531 38.800,115.646 38.080,114.800 37.200 C 113.954 36.320,113.063 35.600,112.818 35.600 C 112.573 35.600,111.773 35.015,111.040 34.300 C 109.636 32.932,109.287 32.637,106.413 30.394 C 105.431 29.628,104.173 28.595,103.617 28.100 C 103.062 27.605,102.496 27.200,102.358 27.200 C 102.221 27.200,101.499 26.660,100.754 26.001 C 100.009 25.341,98.905 24.577,98.300 24.303 C 97.695 24.029,97.200 23.669,97.200 23.502 C 97.200 23.336,96.840 23.200,96.400 23.200 C 95.960 23.200,95.600 23.020,95.600 22.800 C 95.600 22.580,95.240 22.400,94.800 22.400 C 94.360 22.400,94.000 22.220,94.000 22.000 C 94.000 21.780,93.640 21.600,93.200 21.600 C 92.760 21.600,92.400 21.420,92.400 21.200 C 92.400 20.980,91.961 20.800,91.424 20.800 C 90.887 20.800,90.336 20.620,90.200 20.400 C 90.064 20.180,89.333 20.000,88.576 20.000 C 87.819 20.000,87.200 19.820,87.200 19.600 C 87.200 19.356,85.394 19.200,82.582 19.200 C 77.865 19.200,76.000 18.520,76.000 16.801 C 76.000 16.562,75.817 16.149,75.593 15.883 C 74.070 14.077,73.600 13.443,73.600 13.191 C 73.600 12.560,69.903 9.260,68.693 8.812 C 67.982 8.549,67.087 8.168,66.705 7.967 C 65.820 7.499,59.200 7.484,59.200 7.949 C 59.200 8.141,58.480 8.413,57.600 8.554 C 56.720 8.694,56.000 8.975,56.000 9.178 C 56.000 9.380,55.626 9.665,55.168 9.810 C 54.136 10.138,52.000 12.328,52.000 13.059 C 52.000 13.357,51.820 13.600,51.600 13.600 C 51.380 13.600,51.200 13.960,51.200 14.400 C 51.200 14.840,51.020 15.200,50.800 15.200 C 50.536 15.200,50.400 27.933,50.400 52.600 C 50.400 77.267,50.536 90.000,50.800 90.000 C 51.020 90.000,51.200 90.258,51.200 90.573 C 51.200 90.888,51.560 91.260,52.000 91.400 C 52.440 91.540,52.800 91.822,52.800 92.027 C 52.800 92.232,53.072 92.400,53.405 92.400 C 53.738 92.400,54.350 92.612,54.764 92.870 C 55.370 93.249,55.647 93.210,56.187 92.670 C 56.556 92.302,57.311 92.000,57.867 92.000 C 58.422 92.000,59.402 91.626,60.044 91.168 C 62.371 89.511,62.400 89.308,62.400 74.420 L 62.400 60.800 66.747 60.800 L 71.095 60.800 71.377 62.500 C 71.533 63.435,71.834 65.100,72.046 66.200 C 72.418 68.128,72.770 70.035,73.582 74.500 C 73.791 75.655,74.151 77.635,74.382 78.900 C 74.612 80.165,74.988 82.235,75.218 83.500 C 75.449 84.765,75.796 86.700,75.991 87.800 C 76.186 88.900,76.455 90.340,76.589 91.000 C 76.723 91.660,77.020 93.280,77.249 94.600 C 77.478 95.920,77.822 97.810,78.013 98.800 C 78.205 99.790,78.543 101.590,78.765 102.800 C 78.987 104.010,79.534 106.980,79.980 109.400 C 80.426 111.820,81.425 117.400,82.201 121.800 C 84.688 135.919,84.044 134.120,87.995 138.000 C 90.908 140.861,103.191 152.342,106.182 155.000 C 107.437 156.114,115.929 164.014,119.575 167.457 C 121.239 169.029,123.659 171.279,124.954 172.457 C 131.805 178.693,131.647 177.896,126.476 180.153 C 119.529 183.186,108.800 192.168,108.800 194.951 C 108.800 196.204,107.460 197.198,106.694 196.513 C 106.020 195.910,99.786 188.966,96.400 185.046 C 95.052 183.485,94.873 183.283,92.800 180.978 C 91.810 179.877,89.817 177.632,88.370 175.988 C 83.148 170.054,78.271 164.546,75.811 161.800 C 68.220 153.330,65.567 149.831,64.440 146.800 C 64.154 146.030,63.781 145.040,63.613 144.600 C 62.585 141.913,62.400 139.196,62.400 126.774 C 62.400 112.330,62.365 112.084,60.044 110.432 C 59.402 109.974,58.422 109.600,57.867 109.600 C 57.311 109.600,56.573 109.316,56.226 108.969 C 55.307 108.050,53.497 108.583,51.811 110.269 L 50.400 111.680 50.400 127.840 C 50.400 138.347,50.540 144.000,50.800 144.000 C 51.020 144.000,51.200 144.709,51.200 145.576 C 51.200 146.443,51.380 147.264,51.600 147.400 C 51.820 147.536,52.000 148.076,52.000 148.600 C 52.000 149.124,52.180 149.664,52.400 149.800 C 52.620 149.936,52.800 150.487,52.800 151.024 C 52.800 151.561,52.980 152.000,53.200 152.000 C 53.420 152.000,53.600 152.360,53.600 152.800 C 53.600 153.240,53.780 153.600,54.000 153.600 C 54.220 153.600,54.400 153.960,54.400 154.400 C 54.400 154.840,54.580 155.200,54.800 155.200 C 55.020 155.200,55.200 155.468,55.200 155.795 C 55.200 156.400,55.876 157.351,57.500 159.032 C 57.995 159.544,58.400 160.159,58.400 160.399 C 58.400 160.905,58.817 161.437,61.005 163.723 C 61.888 164.645,63.054 166.030,63.596 166.800 C 64.137 167.570,65.620 169.225,66.890 170.478 C 68.161 171.731,69.200 172.864,69.200 172.997 C 69.200 173.130,70.460 174.481,72.000 176.000 C 73.540 177.519,74.802 178.905,74.805 179.081 C 74.811 179.487,76.928 182.058,79.000 184.178 C 79.880 185.078,81.114 186.499,81.743 187.337 C 83.221 189.306,85.519 191.600,86.013 191.600 C 86.226 191.600,86.400 191.856,86.400 192.169 C 86.400 192.483,87.615 193.974,89.100 195.484 C 90.585 196.994,92.340 199.017,93.000 199.981 C 93.660 200.944,95.235 202.784,96.500 204.069 C 97.765 205.354,98.800 206.506,98.800 206.629 C 98.800 206.751,99.700 207.729,100.800 208.800 C 102.713 210.663,103.635 213.200,102.400 213.200 C 102.135 213.200,102.000 242.200,102.000 299.400 C 102.000 356.600,102.135 385.600,102.400 385.600 C 102.620 385.600,102.800 386.140,102.800 386.800 L 102.800 388.000 52.659 388.000 L 2.519 388.000 1.259 389.203 C -0.523 390.907,-0.680 397.284,1.018 398.982 L 2.036 400.000 200.000 400.000 L 397.964 400.000 398.982 398.982 C 400.680 397.284,400.523 390.907,398.741 389.203 L 397.481 388.000 282.712 388.000 C 162.779 388.000,166.800 388.052,166.800 386.508 C 166.800 385.906,165.814 384.006,165.500 384.003 C 165.335 384.001,165.200 383.733,165.200 383.407 C 165.200 382.649,163.216 380.349,160.508 377.970 C 158.880 376.538,155.267 374.800,153.921 374.800 C 153.305 374.800,152.800 374.620,152.800 374.400 C 152.800 374.180,152.260 374.000,151.600 374.000 C 150.940 374.000,150.400 373.820,150.400 373.600 C 150.400 373.380,149.860 373.200,149.200 373.200 C 148.540 373.200,148.000 373.020,148.000 372.800 C 148.000 372.580,147.460 372.400,146.800 372.400 C 146.140 372.400,145.600 372.220,145.600 372.000 C 145.600 371.780,145.060 371.600,144.400 371.600 C 143.740 371.600,143.200 371.420,143.200 371.200 C 143.200 370.980,142.660 370.800,142.000 370.800 C 141.340 370.800,140.800 370.620,140.800 370.400 C 140.800 370.180,140.260 370.000,139.600 370.000 C 138.940 370.000,138.400 369.820,138.400 369.600 C 138.400 369.380,137.972 369.200,137.449 369.200 C 136.343 369.200,135.079 367.978,135.900 367.702 C 136.186 367.605,136.400 366.864,136.400 365.967 C 136.400 365.105,136.580 364.400,136.800 364.400 C 137.020 364.400,137.200 363.601,137.200 362.624 C 137.200 361.647,137.380 360.736,137.600 360.600 C 137.820 360.464,138.000 359.679,138.000 358.856 C 138.000 358.033,138.162 357.189,138.359 356.980 C 138.556 356.771,138.831 355.790,138.969 354.800 C 139.586 350.363,139.703 349.778,140.041 349.420 C 140.238 349.211,140.400 348.277,140.400 347.344 C 140.400 346.411,140.558 345.549,140.752 345.430 C 140.946 345.310,141.232 343.679,141.388 341.806 C 141.544 339.933,141.836 338.400,142.036 338.400 C 142.236 338.400,142.400 337.590,142.400 336.600 C 142.400 335.610,142.580 334.800,142.800 334.800 C 143.020 334.800,143.200 333.900,143.200 332.800 C 143.200 331.700,143.380 330.800,143.600 330.800 C 143.820 330.800,144.000 329.900,144.000 328.800 C 144.000 327.700,144.180 326.800,144.400 326.800 C 144.620 326.800,144.800 325.990,144.800 325.000 C 144.800 324.010,144.980 323.200,145.200 323.200 C 145.420 323.200,145.600 322.390,145.600 321.400 C 145.600 320.410,145.780 319.600,146.000 319.600 C 146.220 319.600,146.400 318.790,146.400 317.800 C 146.400 316.810,146.580 316.000,146.800 316.000 C 147.020 316.000,147.200 315.100,147.200 314.000 C 147.200 312.900,147.380 312.000,147.600 312.000 C 147.820 312.000,148.000 311.201,148.000 310.224 C 148.000 309.247,148.180 308.336,148.400 308.200 C 148.620 308.064,148.800 307.153,148.800 306.176 C 148.800 305.199,148.980 304.400,149.200 304.400 C 149.420 304.400,149.600 303.601,149.600 302.624 C 149.600 301.647,149.780 300.736,150.000 300.600 C 150.220 300.464,150.400 299.654,150.400 298.800 C 150.400 297.946,150.580 297.136,150.800 297.000 C 151.020 296.864,151.200 295.953,151.200 294.976 C 151.200 293.999,151.380 293.200,151.600 293.200 C 151.820 293.200,152.000 292.401,152.000 291.424 C 152.000 290.447,152.180 289.536,152.400 289.400 C 152.620 289.264,152.800 288.353,152.800 287.376 C 152.800 286.399,152.980 285.600,153.200 285.600 C 153.420 285.600,153.600 284.700,153.600 283.600 C 153.600 282.500,153.762 281.600,153.960 281.600 C 154.158 281.600,154.419 280.835,154.541 279.900 C 155.002 276.364,155.260 274.975,155.600 274.200 C 155.929 273.449,156.102 272.531,156.656 268.600 C 156.780 267.720,157.044 266.829,157.241 266.620 C 157.438 266.411,157.600 265.477,157.600 264.544 C 157.600 263.611,157.764 262.746,157.964 262.622 C 158.165 262.498,158.456 260.868,158.612 258.999 C 158.767 257.129,159.053 255.600,159.247 255.600 C 159.441 255.600,159.600 254.790,159.600 253.800 C 159.600 252.810,159.780 252.000,160.000 252.000 C 160.220 252.000,160.400 251.100,160.400 250.000 C 160.400 248.900,160.580 248.000,160.800 248.000 C 161.020 248.000,161.200 247.100,161.200 246.000 C 161.200 244.900,161.380 244.000,161.600 244.000 C 161.820 244.000,162.000 243.190,162.000 242.200 C 162.000 241.210,162.180 240.400,162.400 240.400 C 162.620 240.400,162.800 239.691,162.800 238.824 C 162.800 237.957,162.980 237.136,163.200 237.000 C 163.420 236.864,163.600 235.953,163.600 234.976 C 163.600 233.999,163.780 233.200,164.000 233.200 C 164.220 233.200,164.400 232.300,164.400 231.200 C 164.400 230.100,164.580 229.200,164.800 229.200 C 165.020 229.200,165.200 228.660,165.200 228.000 C 165.200 226.994,165.358 226.800,166.176 226.800 C 166.713 226.800,167.264 226.620,167.400 226.400 C 167.536 226.180,167.997 226.000,168.424 226.000 C 168.851 226.000,169.200 225.820,169.200 225.600 C 169.200 225.380,169.668 225.200,170.240 225.200 C 171.179 225.200,173.028 224.551,174.895 223.566 C 175.277 223.365,175.862 223.200,176.195 223.200 C 176.528 223.200,176.800 223.020,176.800 222.800 C 176.800 222.580,177.340 222.400,178.000 222.400 C 178.660 222.400,179.200 222.220,179.200 222.000 C 179.200 221.780,179.560 221.600,180.000 221.600 C 180.440 221.600,180.800 221.420,180.800 221.200 C 180.800 220.980,181.239 220.800,181.776 220.800 C 182.313 220.800,182.864 220.620,183.000 220.400 C 183.136 220.180,183.597 220.000,184.024 220.000 C 184.451 220.000,184.800 219.820,184.800 219.600 C 184.800 219.380,185.160 219.200,185.600 219.200 C 186.040 219.200,186.400 219.020,186.400 218.800 C 186.400 218.580,186.749 218.400,187.176 218.400 C 187.603 218.400,188.064 218.220,188.200 218.000 C 188.336 217.780,188.797 217.600,189.224 217.600 C 189.651 217.600,190.000 217.420,190.000 217.200 C 190.000 216.980,190.360 216.800,190.800 216.800 C 191.240 216.800,191.600 216.620,191.600 216.400 C 191.600 216.180,191.960 216.000,192.400 216.000 C 192.840 216.000,193.200 215.820,193.200 215.600 C 193.200 215.380,193.560 215.200,194.000 215.200 C 194.440 215.200,194.800 215.020,194.800 214.800 C 194.800 214.580,195.120 214.400,195.512 214.400 C 195.903 214.400,196.483 214.040,196.800 213.600 C 197.117 213.160,197.697 212.800,198.088 212.800 C 198.480 212.800,198.800 212.620,198.800 212.400 C 198.800 212.180,199.160 212.000,199.600 212.000 C 200.040 212.000,200.400 211.820,200.400 211.600 C 200.400 211.380,200.636 211.200,200.925 211.200 C 201.213 211.200,201.836 210.840,202.308 210.400 C 202.780 209.960,203.429 209.600,203.750 209.600 C 204.071 209.600,204.393 209.462,204.467 209.293 C 204.540 209.124,205.575 208.366,206.766 207.609 C 207.957 206.852,209.344 205.820,209.847 205.316 C 210.351 204.812,210.957 204.400,211.192 204.400 C 211.428 204.400,212.431 203.590,213.421 202.600 C 214.411 201.610,215.370 200.800,215.552 200.800 C 216.034 200.800,221.926 194.942,223.800 192.600 C 224.680 191.501,225.895 190.079,226.500 189.441 C 227.105 188.803,227.600 188.126,227.600 187.937 C 227.600 187.748,228.140 187.028,228.800 186.337 C 231.176 183.850,229.897 175.127,227.454 177.155 C 227.088 177.459,226.802 177.442,226.457 177.097 C 226.191 176.831,224.938 176.613,223.670 176.613 C 221.053 176.613,220.593 176.922,217.977 180.434 C 214.846 184.640,209.211 190.379,208.487 190.101 C 208.118 189.960,206.462 188.473,204.808 186.799 C 178.841 160.510,179.394 161.126,180.789 160.000 C 182.931 158.272,191.200 144.433,191.200 142.578 C 191.200 141.684,192.589 141.200,195.155 141.200 C 198.050 141.200,200.309 140.416,203.466 138.317 C 205.448 136.998,208.390 134.005,208.396 133.300 C 208.398 133.025,208.536 132.800,208.702 132.800 C 208.869 132.800,209.244 132.215,209.536 131.500 C 209.828 130.785,210.213 129.840,210.392 129.400 C 211.096 127.663,211.689 124.042,211.479 122.756 C 211.028 119.990,210.505 118.149,209.637 116.261 C 208.488 113.764,208.487 113.764,213.308 114.341 C 217.499 114.842,222.673 114.399,227.000 113.169 C 230.480 112.180,230.810 112.315,231.997 115.200 C 236.088 125.143,236.229 139.451,232.367 152.600 C 231.006 157.234,232.123 161.600,234.671 161.600 C 234.953 161.600,235.298 162.050,235.436 162.600 C 235.700 163.651,238.046 164.096,238.600 163.200 C 238.736 162.980,239.205 162.800,239.642 162.800 C 240.583 162.800,242.400 161.099,242.400 160.218 C 242.400 159.878,242.580 159.600,242.800 159.600 C 243.020 159.600,243.200 159.060,243.200 158.400 C 243.200 157.740,243.380 157.200,243.600 157.200 C 243.820 157.200,244.000 156.570,244.000 155.800 C 244.000 155.030,244.180 154.400,244.400 154.400 C 244.620 154.400,244.800 153.680,244.800 152.800 C 244.800 151.920,244.980 151.200,245.200 151.200 C 245.420 151.200,245.600 150.300,245.600 149.200 C 245.600 148.100,245.780 147.200,246.000 147.200 C 246.233 147.200,246.400 145.867,246.400 144.000 C 246.400 142.133,246.567 140.800,246.800 140.800 C 247.020 140.800,247.200 139.810,247.200 138.600 C 247.200 137.070,247.357 136.400,247.716 136.400 C 248.000 136.400,249.028 135.680,250.000 134.800 C 250.972 133.920,251.928 133.200,252.124 133.200 C 252.319 133.200,252.983 132.660,253.600 132.000 C 254.217 131.340,254.892 130.800,255.101 130.800 C 255.310 130.800,256.046 130.260,256.737 129.600 C 257.428 128.940,258.102 128.400,258.236 128.400 C 258.370 128.400,258.983 127.860,259.600 127.200 C 260.217 126.540,260.926 126.000,261.177 126.000 C 261.428 126.000,261.851 125.817,262.117 125.593 C 263.867 124.117,264.552 123.599,264.761 123.594 C 264.893 123.590,265.609 123.050,266.354 122.394 C 267.099 121.737,267.856 121.200,268.036 121.200 C 268.216 121.200,268.814 120.750,269.364 120.200 C 269.914 119.650,270.460 119.200,270.577 119.200 C 270.833 119.200,272.148 118.141,273.432 116.900 C 273.944 116.405,274.463 116.000,274.585 116.000 C 274.707 116.000,275.372 115.460,276.063 114.800 C 276.754 114.140,277.490 113.600,277.699 113.600 C 277.908 113.600,278.583 113.060,279.200 112.400 C 279.817 111.740,280.537 111.200,280.800 111.200 C 281.063 111.200,281.783 110.660,282.400 110.000 C 283.017 109.340,283.766 108.800,284.065 108.800 C 284.364 108.800,285.056 108.390,285.604 107.889 C 286.152 107.387,287.230 106.535,288.000 105.994 C 289.653 104.834,290.381 104.244,292.315 102.500 C 293.108 101.785,293.903 101.200,294.082 101.200 C 294.261 101.200,294.972 100.660,295.663 100.000 C 296.354 99.340,297.090 98.800,297.299 98.800 C 297.508 98.800,298.183 98.260,298.800 97.600 C 299.417 96.940,300.137 96.400,300.400 96.400 C 300.663 96.400,301.383 95.860,302.000 95.200 C 302.617 94.540,303.292 94.000,303.501 94.000 C 303.710 94.000,304.446 93.460,305.137 92.800 C 305.828 92.140,306.576 91.600,306.800 91.600 C 307.024 91.600,307.772 91.060,308.463 90.400 C 309.154 89.740,309.849 89.200,310.009 89.200 C 310.169 89.200,310.987 88.570,311.828 87.800 C 312.669 87.030,313.519 86.400,313.718 86.400 C 313.916 86.400,314.583 85.860,315.200 85.200 C 315.817 84.540,316.537 84.000,316.800 84.000 C 317.063 84.000,317.783 83.460,318.400 82.800 C 319.017 82.140,319.692 81.600,319.901 81.600 C 320.110 81.600,320.846 81.060,321.537 80.400 C 322.228 79.740,322.910 79.200,323.053 79.200 C 323.196 79.200,323.829 78.660,324.460 78.000 C 325.091 77.340,325.809 76.800,326.057 76.800 C 326.304 76.800,326.797 76.467,327.153 76.059 C 327.509 75.652,328.340 75.040,329.000 74.700 C 329.660 74.359,330.783 73.523,331.496 72.840 C 332.209 72.158,332.948 71.600,333.137 71.600 C 333.326 71.600,334.046 71.060,334.737 70.400 C 335.428 69.740,336.148 69.200,336.337 69.200 C 336.526 69.200,337.246 68.660,337.937 68.000 C 338.628 67.340,339.310 66.800,339.453 66.800 C 339.596 66.800,340.229 66.260,340.860 65.600 C 341.491 64.940,342.203 64.400,342.443 64.400 C 342.683 64.400,343.383 63.860,344.000 63.200 C 344.617 62.540,345.337 62.000,345.600 62.000 C 345.863 62.000,346.558 61.505,347.142 60.900 C 347.727 60.295,348.834 59.453,349.603 59.028 C 350.371 58.604,351.291 57.929,351.647 57.528 C 352.003 57.128,352.453 56.799,352.647 56.798 C 352.841 56.797,353.575 56.257,354.278 55.598 C 354.981 54.939,355.654 54.400,355.774 54.400 C 355.991 54.400,357.228 53.438,358.216 52.500 C 358.506 52.225,358.863 52.000,359.011 52.000 C 359.158 52.000,359.783 51.460,360.400 50.800 C 361.017 50.140,361.737 49.600,362.000 49.600 C 362.263 49.600,362.983 49.060,363.600 48.400 C 364.217 47.740,364.892 47.200,365.101 47.200 C 365.310 47.200,366.046 46.660,366.737 46.000 C 367.428 45.340,368.129 44.799,368.296 44.799 C 368.463 44.798,368.960 44.259,369.400 43.600 C 369.840 42.941,370.335 42.402,370.500 42.401 C 370.665 42.401,370.800 41.050,370.800 39.400 C 370.800 37.667,370.631 36.400,370.400 36.400 C 370.180 36.400,370.000 36.110,370.000 35.756 C 370.000 34.939,363.434 28.400,362.613 28.400 C 362.276 28.400,362.000 28.239,362.000 28.042 C 362.000 27.489,356.838 25.129,355.126 24.899 C 354.287 24.787,353.600 24.538,353.600 24.347 C 353.600 24.156,352.700 24.000,351.600 24.000 C 350.500 24.000,349.600 23.820,349.600 23.600 C 349.600 23.359,347.933 23.200,345.400 23.200 C 342.867 23.200,341.200 23.359,341.200 23.600 C 341.200 23.820,340.311 24.000,339.224 24.000 C 338.137 24.000,337.136 24.180,337.000 24.400 C 336.864 24.620,336.221 24.800,335.572 24.800 C 334.284 24.800,328.400 27.459,328.400 28.041 C 328.400 28.238,328.209 28.400,327.977 28.400 C 327.513 28.400,324.585 30.584,323.553 31.700 C 323.197 32.085,322.729 32.400,322.512 32.400 C 322.296 32.400,321.554 32.940,320.863 33.600 C 320.172 34.260,319.463 34.800,319.288 34.800 C 319.112 34.800,318.172 35.520,317.200 36.400 C 316.228 37.280,315.272 38.000,315.076 38.000 C 314.881 38.000,314.217 38.540,313.600 39.200 C 312.983 39.860,312.280 40.400,312.036 40.400 C 311.792 40.400,311.028 40.940,310.337 41.600 C 309.646 42.260,308.936 42.800,308.759 42.800 C 308.581 42.800,307.986 43.250,307.436 43.800 C 306.886 44.350,306.275 44.800,306.078 44.800 C 305.880 44.800,305.154 45.340,304.463 46.000 C 303.772 46.660,303.063 47.200,302.888 47.200 C 302.712 47.200,301.772 47.920,300.800 48.800 C 299.828 49.680,298.888 50.400,298.712 50.400 C 298.537 50.400,297.828 50.940,297.137 51.600 C 296.446 52.260,295.710 52.800,295.501 52.800 C 295.292 52.800,294.617 53.340,294.000 54.000 C 293.383 54.660,292.753 55.200,292.600 55.200 C 292.447 55.200,291.817 55.740,291.200 56.400 C 290.583 57.060,289.874 57.600,289.623 57.600 C 289.372 57.600,288.949 57.783,288.683 58.007 C 286.869 59.537,286.242 60.000,285.981 60.000 C 285.818 60.000,285.107 60.540,284.400 61.200 C 283.693 61.860,282.977 62.400,282.808 62.400 C 282.639 62.400,281.813 63.030,280.972 63.800 C 280.131 64.570,279.302 65.200,279.129 65.200 C 278.956 65.200,278.316 65.646,277.707 66.192 C 277.098 66.737,275.890 67.817,275.022 68.592 C 274.154 69.366,273.281 70.000,273.082 70.000 C 272.884 70.000,272.217 70.540,271.600 71.200 C 270.983 71.860,270.263 72.400,270.000 72.400 C 269.737 72.400,269.017 72.940,268.400 73.600 C 267.783 74.260,267.068 74.800,266.811 74.800 C 266.553 74.800,266.092 75.025,265.785 75.300 C 264.788 76.194,264.202 76.647,263.549 77.027 C 262.702 77.520,260.195 79.525,258.706 80.900 C 258.051 81.505,257.377 82.000,257.208 82.000 C 257.039 82.000,256.203 82.640,255.350 83.423 C 253.754 84.888,253.042 84.590,253.975 82.847 C 254.246 82.341,254.400 78.034,254.400 70.973 C 254.400 60.877,254.463 59.836,255.109 59.247 C 255.499 58.891,256.444 57.349,257.209 55.821 L 258.600 53.042 258.600 45.621 C 258.600 39.471,258.476 37.858,257.878 36.200 C 256.831 33.303,254.364 28.400,253.952 28.400 C 253.759 28.400,253.600 28.177,253.600 27.903 C 253.600 27.211,245.303 19.200,244.586 19.200 C 244.264 19.200,244.000 19.050,244.000 18.868 C 244.000 18.685,243.505 18.280,242.900 17.968 C 242.295 17.656,241.710 17.309,241.600 17.195 C 241.372 16.961,237.905 15.298,236.400 14.703 C 235.850 14.485,235.087 14.148,234.705 13.953 C 234.323 13.759,233.659 13.600,233.229 13.600 C 232.799 13.600,232.336 13.420,232.200 13.200 C 232.064 12.980,231.344 12.800,230.600 12.800 C 229.856 12.800,229.136 12.620,229.000 12.400 C 228.864 12.180,227.593 12.000,226.176 12.000 C 224.725 12.000,223.600 11.825,223.600 11.600 C 223.600 11.357,221.832 11.200,219.095 11.200 C 214.677 11.200,214.574 11.179,213.795 10.131 C 212.763 8.745,209.323 5.200,209.009 5.200 C 208.876 5.200,208.380 4.840,207.908 4.400 C 207.436 3.960,206.813 3.600,206.525 3.600 C 206.236 3.600,206.000 3.420,206.000 3.200 C 206.000 2.980,205.730 2.800,205.400 2.800 C 205.070 2.800,204.800 2.620,204.800 2.400 C 204.800 2.180,204.350 2.000,203.800 2.000 C 203.250 2.000,202.800 1.820,202.800 1.600 C 202.800 1.380,202.455 1.200,202.033 1.200 C 201.612 1.200,201.192 0.975,201.100 0.700 C 200.931 0.192,186.537 -0.165,183.800 0.271 M196.430 12.441 C 199.547 13.464,201.970 15.041,201.994 16.062 C 201.997 16.206,200.965 16.905,199.700 17.615 C 192.183 21.837,185.680 29.811,182.668 38.500 C 182.303 39.552,181.859 39.370,180.082 37.443 C 169.398 25.852,181.394 7.505,196.430 12.441 M67.090 25.300 C 72.907 33.129,73.236 33.970,73.481 41.649 L 73.643 46.697 72.261 48.163 L 70.878 49.629 66.739 49.514 L 62.600 49.400 62.495 35.202 C 62.397 22.023,62.459 20.000,62.963 20.000 C 63.067 20.000,64.924 22.385,67.090 25.300 M226.975 24.865 C 228.941 25.317,230.831 25.825,231.175 25.993 C 232.233 26.512,235.337 28.082,236.567 28.720 C 238.542 29.745,243.437 34.877,244.553 37.093 C 249.658 47.233,245.925 54.791,235.806 54.804 C 233.024 54.807,225.864 55.648,222.400 56.378 C 221.410 56.586,220.060 56.870,219.400 57.009 C 218.740 57.147,217.840 57.402,217.400 57.575 C 216.960 57.748,215.880 58.106,215.000 58.371 C 214.120 58.636,213.040 59.003,212.600 59.186 C 209.532 60.462,208.252 61.043,205.600 62.365 C 202.741 63.789,196.977 67.309,194.023 69.434 C 191.994 70.893,191.944 70.585,192.140 57.705 C 192.313 46.293,192.553 43.000,193.242 42.574 C 193.439 42.452,193.600 42.022,193.600 41.617 C 193.600 40.752,195.433 37.168,197.158 34.662 C 199.746 30.900,204.695 27.192,209.800 25.188 C 214.016 23.534,220.646 23.409,226.975 24.865 M88.953 33.004 C 90.079 33.542,92.637 35.292,94.637 36.891 C 96.637 38.491,98.871 40.250,99.600 40.800 C 100.330 41.350,101.123 41.987,101.363 42.216 C 101.604 42.445,102.177 42.895,102.637 43.216 C 103.098 43.537,104.268 44.457,105.237 45.260 C 106.207 46.063,110.150 49.195,114.000 52.220 C 117.850 55.246,121.090 57.829,121.200 57.961 C 121.310 58.092,122.210 58.828,123.200 59.594 C 124.190 60.361,125.270 61.205,125.600 61.469 C 128.386 63.697,142.969 75.216,143.996 76.000 C 144.717 76.550,145.619 77.270,146.000 77.600 C 146.381 77.930,147.282 78.650,148.001 79.200 C 149.650 80.460,153.219 83.278,156.033 85.543 C 157.225 86.502,158.813 87.762,159.563 88.343 C 160.312 88.924,161.479 89.850,162.157 90.400 C 163.655 91.616,163.744 91.687,168.045 95.081 C 171.421 97.745,172.040 98.233,176.972 102.107 C 180.552 104.919,183.530 107.301,184.523 108.145 C 185.005 108.555,186.030 109.364,186.800 109.943 C 187.570 110.522,188.290 111.091,188.400 111.208 C 188.510 111.325,189.410 112.043,190.400 112.805 C 191.390 113.566,192.399 114.371,192.643 114.594 C 192.886 114.817,194.351 115.986,195.898 117.191 C 201.261 121.371,202.041 125.835,197.942 128.898 C 194.501 131.470,192.073 131.071,187.600 127.200 C 187.219 126.870,186.311 126.150,185.582 125.600 C 184.853 125.050,182.354 123.080,180.029 121.222 C 177.703 119.365,174.540 116.845,173.000 115.623 C 171.460 114.402,170.110 113.311,170.000 113.200 C 169.890 113.089,168.810 112.245,167.600 111.325 C 166.390 110.405,165.034 109.325,164.586 108.926 C 164.138 108.527,162.968 107.572,161.986 106.806 C 161.004 106.039,159.930 105.195,159.600 104.931 C 159.270 104.667,155.850 101.957,152.000 98.908 C 148.150 95.860,144.640 93.065,144.200 92.698 C 143.760 92.331,140.160 89.475,136.200 86.350 C 132.240 83.225,128.910 80.555,128.800 80.415 C 128.690 80.276,127.970 79.724,127.200 79.189 C 126.430 78.655,125.416 77.853,124.947 77.409 C 124.477 76.964,122.348 75.250,120.216 73.600 C 118.083 71.950,113.857 68.620,110.826 66.200 C 107.794 63.780,104.724 61.350,104.003 60.800 C 103.283 60.250,102.381 59.530,102.000 59.200 C 101.619 58.870,100.711 58.150,99.982 57.600 C 98.765 56.682,97.513 55.678,95.405 53.933 C 94.962 53.566,93.070 52.065,91.200 50.597 C 89.330 49.130,87.060 47.317,86.156 46.570 L 84.512 45.211 84.258 39.706 C 84.119 36.678,83.889 33.588,83.748 32.840 L 83.492 31.480 85.198 31.753 C 86.137 31.903,87.826 32.466,88.953 33.004 M350.771 36.091 C 356.485 38.366,356.489 38.384,352.200 41.599 C 350.880 42.588,349.710 43.494,349.600 43.611 C 349.423 43.800,346.263 46.196,334.600 54.984 C 332.840 56.310,331.310 57.487,331.200 57.599 C 331.090 57.710,329.920 58.611,328.600 59.600 C 327.280 60.589,326.110 61.497,326.000 61.618 C 325.890 61.739,325.170 62.271,324.400 62.800 C 323.630 63.329,322.910 63.867,322.800 63.997 C 322.690 64.126,319.720 66.380,316.200 69.004 C 312.680 71.629,309.710 73.881,309.600 74.008 C 309.490 74.135,308.770 74.671,308.000 75.200 C 307.230 75.729,306.510 76.260,306.400 76.381 C 306.290 76.501,305.480 77.152,304.600 77.826 C 303.720 78.500,301.830 79.949,300.400 81.045 C 298.970 82.142,294.470 85.546,290.400 88.611 C 286.330 91.675,282.910 94.280,282.800 94.400 C 282.690 94.520,279.720 96.772,276.200 99.404 C 272.680 102.037,269.710 104.286,269.600 104.403 C 269.490 104.519,267.600 105.958,265.400 107.600 C 263.200 109.242,261.310 110.687,261.200 110.812 C 261.090 110.937,260.370 111.471,259.600 112.000 C 258.830 112.529,258.110 113.070,258.000 113.203 C 257.747 113.509,246.769 121.771,246.112 122.151 C 245.519 122.493,244.400 120.026,244.400 118.375 C 244.400 117.755,244.220 117.136,244.000 117.000 C 243.780 116.864,243.600 116.322,243.600 115.795 C 243.600 115.269,243.398 114.334,243.150 113.719 C 242.337 111.695,242.075 111.009,241.845 110.291 C 241.570 109.431,242.568 108.404,246.000 106.014 C 246.770 105.477,247.490 104.934,247.600 104.806 C 247.710 104.678,249.960 102.962,252.600 100.994 C 255.240 99.026,257.490 97.313,257.600 97.188 C 257.710 97.064,258.430 96.529,259.200 96.000 C 259.970 95.471,260.690 94.931,260.800 94.800 C 260.910 94.669,261.630 94.129,262.400 93.600 C 263.170 93.071,263.890 92.527,264.000 92.391 C 264.253 92.077,267.486 89.602,276.800 82.589 C 280.870 79.525,284.290 76.915,284.400 76.790 C 284.510 76.664,285.230 76.129,286.000 75.600 C 286.770 75.071,287.490 74.536,287.600 74.412 C 287.710 74.287,289.960 72.559,292.600 70.573 C 304.421 61.678,309.014 58.196,309.200 57.986 C 309.310 57.863,310.030 57.329,310.800 56.800 C 311.570 56.271,312.290 55.729,312.400 55.596 C 312.510 55.463,315.390 53.249,318.800 50.676 C 322.210 48.103,325.610 45.504,326.356 44.899 C 327.102 44.295,327.909 43.726,328.149 43.636 C 328.389 43.545,328.830 43.228,329.127 42.930 C 329.425 42.632,330.329 41.896,331.134 41.294 C 331.940 40.692,332.959 39.873,333.400 39.474 C 337.157 36.067,346.258 34.295,350.771 36.091 M84.473 60.900 C 84.947 61.175,86.046 62.075,86.915 62.900 C 87.785 63.725,88.661 64.400,88.862 64.400 C 89.062 64.400,89.826 64.985,90.558 65.700 C 92.171 67.276,95.167 69.741,95.731 69.957 C 95.956 70.043,96.745 70.718,97.483 71.457 C 98.222 72.196,98.982 72.800,99.171 72.800 C 99.360 72.800,100.095 73.318,100.804 73.951 C 102.892 75.816,103.144 76.000,103.614 76.000 C 103.861 76.000,104.754 76.720,105.600 77.600 C 106.446 78.480,107.318 79.200,107.538 79.200 C 107.758 79.200,108.644 79.920,109.507 80.800 C 110.369 81.680,111.211 82.400,111.377 82.400 C 111.543 82.400,112.183 82.940,112.800 83.600 C 113.417 84.260,114.090 84.800,114.297 84.800 C 114.504 84.800,115.530 85.610,116.578 86.600 C 117.626 87.590,118.637 88.400,118.824 88.400 C 119.011 88.400,119.577 88.813,120.082 89.319 C 120.587 89.824,121.629 90.589,122.397 91.019 C 123.166 91.448,124.273 92.295,124.858 92.900 C 125.442 93.505,126.029 94.000,126.160 94.000 C 126.292 94.000,127.141 94.720,128.048 95.600 C 128.955 96.480,129.855 97.200,130.048 97.200 C 130.241 97.200,131.141 97.920,132.048 98.800 C 132.955 99.680,133.855 100.400,134.048 100.400 C 134.241 100.400,135.141 101.120,136.048 102.000 C 136.955 102.880,137.860 103.600,138.060 103.600 C 138.259 103.600,139.003 104.137,139.711 104.793 C 142.381 107.264,144.312 108.800,144.748 108.800 C 144.997 108.800,145.200 108.980,145.200 109.200 C 145.200 109.420,145.380 109.600,145.600 109.600 C 145.819 109.600,146.741 110.320,147.648 111.200 C 148.555 112.080,149.473 112.800,149.688 112.800 C 149.903 112.800,150.583 113.340,151.200 114.000 C 151.817 114.660,152.497 115.200,152.712 115.200 C 152.927 115.200,153.845 115.920,154.752 116.800 C 155.659 117.680,156.546 118.400,156.722 118.400 C 156.899 118.400,157.695 118.985,158.491 119.700 C 161.479 122.384,163.749 124.218,164.758 124.765 C 165.331 125.076,166.277 125.841,166.860 126.465 C 167.444 127.089,168.133 127.600,168.392 127.600 C 168.651 127.600,169.554 128.320,170.400 129.200 C 171.246 130.080,172.137 130.800,172.382 130.800 C 172.627 130.800,173.427 131.385,174.162 132.100 C 175.561 133.463,178.089 135.620,179.328 136.508 C 180.068 137.039,179.528 140.400,178.703 140.400 C 178.536 140.400,178.400 140.760,178.400 141.200 C 178.400 141.640,178.265 142.001,178.100 142.003 C 177.935 142.005,177.607 142.410,177.371 142.903 C 176.220 145.307,174.609 148.000,174.321 148.000 C 174.145 148.000,174.000 148.248,174.000 148.552 C 174.000 148.855,173.280 149.845,172.400 150.752 C 171.520 151.659,170.800 152.560,170.800 152.754 C 170.800 153.338,165.852 158.248,164.581 158.925 C 163.932 159.271,162.825 160.105,162.122 160.777 C 161.419 161.450,160.654 162.000,160.422 162.000 C 160.190 162.000,160.000 162.138,160.000 162.306 C 160.000 162.474,159.280 163.056,158.400 163.600 C 157.520 164.144,156.800 164.726,156.800 164.894 C 156.800 165.062,156.564 165.200,156.275 165.200 C 155.987 165.200,155.364 165.560,154.892 166.000 C 154.420 166.440,153.756 166.800,153.417 166.800 C 153.078 166.800,152.800 166.980,152.800 167.200 C 152.800 167.420,152.440 167.600,152.000 167.600 C 151.560 167.600,151.200 167.780,151.200 168.000 C 151.200 168.220,150.840 168.400,150.400 168.400 C 149.960 168.400,149.599 168.535,149.597 168.700 C 149.593 169.059,147.656 170.000,146.920 170.000 C 146.634 170.000,146.400 170.180,146.400 170.400 C 146.400 170.620,146.040 170.800,145.600 170.800 C 145.160 170.800,144.800 170.980,144.800 171.200 C 144.800 171.420,144.455 171.600,144.033 171.600 C 143.612 171.600,143.200 171.801,143.118 172.046 C 143.036 172.291,141.430 170.986,139.549 169.146 C 137.668 167.306,134.565 164.360,132.654 162.600 C 130.742 160.840,128.197 158.455,126.998 157.300 C 125.799 156.145,124.731 155.200,124.625 155.200 C 124.520 155.200,122.151 152.950,119.360 150.200 C 116.570 147.450,114.147 145.200,113.976 145.200 C 113.547 145.200,110.184 142.103,106.946 138.725 C 105.017 136.714,102.897 134.800,102.598 134.800 C 101.666 134.800,95.600 127.870,95.600 126.806 C 95.600 126.143,95.420 125.600,95.200 125.600 C 94.978 125.600,94.800 124.533,94.800 123.200 C 94.800 121.867,94.622 120.800,94.400 120.800 C 94.180 120.800,94.000 119.900,94.000 118.800 C 94.000 117.700,93.820 116.800,93.600 116.800 C 93.380 116.800,93.200 115.810,93.200 114.600 C 93.200 113.390,93.020 112.400,92.800 112.400 C 92.580 112.400,92.400 111.500,92.400 110.400 C 92.400 109.300,92.253 108.400,92.073 108.400 C 91.893 108.400,91.544 106.555,91.298 104.300 C 91.051 102.045,90.651 99.120,90.409 97.800 C 90.167 96.480,89.876 94.680,89.762 93.800 C 89.648 92.920,89.394 91.840,89.198 91.400 C 89.002 90.960,88.742 89.745,88.621 88.700 C 88.068 83.944,87.899 82.976,87.561 82.620 C 87.363 82.411,87.200 81.387,87.200 80.344 C 87.200 79.301,87.020 78.336,86.800 78.200 C 86.580 78.064,86.400 77.063,86.400 75.976 C 86.400 74.889,86.220 74.000,86.000 74.000 C 85.780 74.000,85.600 73.111,85.600 72.024 C 85.600 70.937,85.420 69.936,85.200 69.800 C 84.980 69.664,84.800 68.573,84.800 67.376 C 84.800 66.179,84.620 65.200,84.400 65.200 C 84.180 65.200,84.000 64.336,84.000 63.280 C 84.000 62.224,83.784 61.144,83.520 60.880 C 82.896 60.256,83.380 60.266,84.473 60.900 M241.851 66.659 C 242.366 68.714,241.684 83.660,240.986 85.600 C 235.298 101.411,218.154 108.236,204.488 100.129 C 200.774 97.925,195.200 92.104,195.200 90.428 C 195.200 90.193,195.020 90.000,194.800 90.000 C 194.580 90.000,194.400 89.728,194.400 89.395 C 194.400 89.062,194.192 88.387,193.938 87.895 C 192.371 84.863,192.394 84.741,194.900 82.755 C 197.717 80.522,205.070 75.600,205.587 75.600 C 205.814 75.600,206.001 75.465,206.003 75.300 C 206.005 75.135,206.410 74.799,206.903 74.554 C 207.396 74.309,209.193 73.378,210.895 72.485 C 218.377 68.561,224.545 66.869,233.151 66.380 C 236.534 66.188,239.399 65.934,239.518 65.815 C 240.179 65.154,241.602 65.669,241.851 66.659 M181.842 179.076 C 187.099 184.508,193.212 190.773,195.428 192.999 C 197.643 195.225,199.568 197.339,199.705 197.697 C 199.948 198.329,193.155 203.200,192.032 203.200 C 191.794 203.200,191.600 203.380,191.600 203.600 C 191.600 203.820,191.313 204.000,190.962 204.000 C 190.611 204.000,189.846 204.323,189.262 204.718 C 188.231 205.415,185.128 206.941,183.300 207.651 C 182.805 207.843,181.905 208.204,181.300 208.454 C 180.695 208.703,179.750 209.084,179.200 209.300 C 178.650 209.516,177.904 209.842,177.542 210.024 C 176.612 210.491,176.137 209.864,171.451 201.967 C 167.607 195.489,165.680 192.303,164.536 190.532 C 163.801 189.395,163.200 188.270,163.200 188.032 C 163.200 187.794,163.041 187.600,162.847 187.600 C 162.652 187.600,162.390 187.285,162.264 186.900 C 161.987 186.052,160.303 183.186,158.791 180.988 C 157.483 179.086,157.664 178.658,160.398 177.175 C 161.387 176.639,162.545 175.885,162.973 175.500 C 163.401 175.115,163.972 174.800,164.242 174.800 C 164.512 174.800,164.793 174.655,164.867 174.477 C 164.940 174.299,165.810 173.593,166.800 172.909 C 167.790 172.225,169.230 171.118,170.000 170.449 C 171.993 168.718,171.399 168.285,181.842 179.076 M150.484 188.800 C 152.035 191.330,153.662 194.030,154.099 194.800 C 154.536 195.570,155.233 196.678,155.647 197.262 C 156.061 197.846,156.400 198.443,156.400 198.590 C 156.400 198.736,156.940 199.641,157.600 200.600 C 158.260 201.559,158.800 202.423,158.800 202.520 C 158.800 202.616,160.240 205.093,162.000 208.025 C 165.803 214.359,165.707 213.712,163.000 214.754 C 161.790 215.219,159.832 215.972,158.650 216.426 C 155.194 217.754,154.100 219.281,153.224 224.000 C 152.886 225.822,151.413 232.864,150.756 235.800 C 150.559 236.680,150.228 238.300,150.020 239.400 C 149.812 240.500,148.906 244.910,148.006 249.200 C 147.106 253.490,146.115 258.260,145.803 259.800 C 145.490 261.340,144.681 265.210,144.005 268.400 C 142.512 275.434,142.068 277.594,141.578 280.200 C 141.371 281.300,141.041 282.920,140.844 283.800 C 140.354 285.992,138.778 293.443,138.391 295.400 C 138.216 296.280,137.878 297.990,137.638 299.200 C 137.398 300.410,137.021 302.210,136.799 303.200 C 136.577 304.190,136.237 305.810,136.043 306.800 C 135.849 307.790,135.312 310.400,134.851 312.600 C 134.389 314.800,133.464 319.210,132.795 322.400 C 132.125 325.590,130.782 332.070,129.810 336.800 C 126.074 354.973,125.560 357.327,125.172 358.052 C 124.648 359.031,115.627 359.196,114.835 358.242 C 114.025 357.266,114.483 212.114,115.306 209.000 C 116.395 204.878,116.718 204.024,118.167 201.433 C 121.256 195.909,124.887 193.058,133.400 189.470 C 136.260 188.265,140.310 186.558,142.400 185.676 C 147.473 183.537,147.190 183.428,150.484 188.800 M121.920 372.745 C 122.099 376.533,123.406 377.834,128.400 379.199 C 129.390 379.470,130.560 379.843,131.000 380.030 C 131.440 380.216,133.870 381.026,136.400 381.829 C 150.747 386.387,153.382 387.382,152.952 388.078 C 152.842 388.255,144.995 388.400,135.514 388.400 L 118.276 388.400 116.895 387.347 C 114.692 385.667,114.400 384.464,114.400 377.080 C 114.400 369.390,114.086 369.942,118.381 370.086 L 121.800 370.200 121.920 372.745 " stroke="none" fill="#040404" fill-rule="evenodd"></path><path id="path4" d="M188.138 11.906 C 187.884 12.068,189.452 12.200,191.623 12.200 C 193.794 12.200,195.262 12.078,194.885 11.928 C 193.953 11.558,188.712 11.541,188.138 11.906 M184.200 13.335 C 177.110 17.167,174.034 26.513,177.523 33.624 C 178.889 36.409,181.636 39.472,182.364 39.022 C 183.024 38.615,182.886 37.992,182.195 38.257 C 181.393 38.565,180.712 37.953,179.020 35.403 C 173.936 27.745,176.751 17.456,185.000 13.540 C 186.320 12.913,187.040 12.416,186.600 12.436 C 186.160 12.455,185.080 12.860,184.200 13.335 M197.529 13.202 C 201.705 15.097,202.226 15.896,199.988 16.968 C 199.106 17.390,198.163 18.004,197.893 18.332 C 197.622 18.660,198.388 18.364,199.596 17.675 C 200.804 16.985,201.849 16.253,201.918 16.046 C 202.194 15.219,197.816 12.382,196.304 12.409 C 196.027 12.414,196.578 12.771,197.529 13.202 M194.936 20.334 C 189.845 24.367,182.748 34.283,182.811 37.275 C 182.817 37.564,183.516 36.335,184.365 34.545 C 187.083 28.814,191.265 23.554,196.000 19.914 C 196.770 19.322,197.281 18.829,197.136 18.819 C 196.991 18.808,196.001 19.490,194.936 20.334 M62.584 20.427 C 62.439 20.661,62.428 20.961,62.560 21.093 C 62.692 21.225,62.800 21.110,62.800 20.838 C 62.800 20.162,63.295 20.706,66.129 24.500 C 67.403 26.205,68.553 27.600,68.684 27.600 C 68.816 27.600,68.659 27.285,68.335 26.900 C 68.011 26.515,66.713 24.805,65.450 23.100 C 62.999 19.789,62.985 19.776,62.584 20.427 M216.200 23.902 C 209.263 24.255,201.172 28.827,197.158 34.662 C 195.444 37.152,193.594 40.761,193.632 41.541 C 193.658 42.085,193.701 42.096,193.879 41.600 C 198.545 28.615,210.902 22.371,226.800 24.965 C 227.570 25.091,227.210 24.946,226.000 24.644 C 223.642 24.054,219.446 23.737,216.200 23.902 M229.200 25.646 C 229.750 25.893,230.650 26.276,231.200 26.496 C 231.750 26.717,233.072 27.335,234.137 27.870 C 235.202 28.405,235.977 28.687,235.859 28.496 C 235.498 27.912,230.982 25.828,229.200 25.423 L 228.200 25.196 229.200 25.646 M69.853 29.608 C 70.438 30.493,71.006 31.128,71.114 31.019 C 71.314 30.819,69.315 28.000,68.974 28.000 C 68.872 28.000,69.268 28.724,69.853 29.608 M237.400 29.679 C 239.985 31.518,243.256 35.345,244.631 38.142 C 245.405 39.714,245.916 40.550,245.767 40.000 C 244.889 36.756,238.398 28.767,236.677 28.813 C 236.414 28.820,236.740 29.209,237.400 29.679 M83.821 33.900 C 84.187 36.912,84.576 37.267,84.287 34.324 C 84.080 32.220,84.128 32.035,84.931 31.878 C 85.619 31.744,85.565 31.698,84.671 31.654 L 83.542 31.600 83.821 33.900 M88.400 33.010 C 88.400 33.125,88.817 33.378,89.326 33.572 C 90.215 33.910,93.319 36.257,101.700 42.930 C 103.845 44.638,105.594 45.892,105.588 45.718 C 105.581 45.543,104.726 44.770,103.688 44.000 C 102.649 43.230,101.604 42.420,101.363 42.200 C 101.123 41.980,100.327 41.350,99.595 40.800 C 98.862 40.250,96.899 38.708,95.231 37.374 C 90.670 33.724,88.400 32.274,88.400 33.010 M72.028 33.476 C 72.118 34.515,72.744 35.396,72.772 34.524 C 72.787 34.042,72.620 33.536,72.400 33.400 C 72.180 33.264,72.013 33.298,72.028 33.476 M341.821 35.606 C 339.714 35.979,334.730 38.268,333.400 39.474 C 332.960 39.873,331.750 40.830,330.712 41.600 C 329.674 42.370,328.819 43.133,328.812 43.295 C 328.806 43.457,330.320 42.417,332.177 40.984 C 339.005 35.713,345.130 34.425,351.600 36.898 C 355.629 38.439,355.628 38.433,352.634 40.833 C 351.185 41.994,350.000 43.023,350.000 43.121 C 350.000 43.218,350.225 43.126,350.500 42.916 C 350.775 42.706,351.806 41.919,352.790 41.167 C 356.386 38.421,356.341 38.309,350.771 36.091 C 349.248 35.485,344.089 35.206,341.821 35.606 M73.000 41.598 C 73.000 44.636,73.135 47.039,73.300 46.937 C 73.687 46.699,73.682 37.148,73.294 36.537 C 73.132 36.283,73.000 38.560,73.000 41.598 M84.473 40.859 L 84.400 45.117 86.100 46.514 C 87.967 48.047,91.259 50.675,93.900 52.739 C 94.835 53.469,95.600 53.981,95.600 53.876 C 95.600 53.772,93.395 51.930,90.700 49.784 C 88.005 47.638,85.620 45.721,85.400 45.523 C 85.180 45.325,84.898 43.237,84.773 40.882 L 84.547 36.600 84.473 40.859 M246.095 42.200 C 246.095 42.860,246.232 43.940,246.400 44.600 L 246.705 45.800 246.705 44.600 C 246.705 43.940,246.568 42.860,246.400 42.200 L 246.095 41.000 246.095 42.200 M193.039 42.843 C 192.439 44.703,192.273 47.359,192.126 57.400 C 191.925 71.229,192.220 72.288,195.229 68.542 C 195.641 68.030,195.438 68.085,194.503 68.741 C 193.789 69.241,193.024 69.539,192.803 69.402 C 192.145 68.995,192.286 49.204,192.972 45.605 C 193.481 42.936,193.520 41.353,193.039 42.843 M339.200 51.066 C 333.590 55.333,326.255 60.906,322.900 63.450 C 319.545 65.995,316.676 68.284,316.523 68.538 C 316.213 69.055,316.016 69.190,320.000 66.170 C 321.430 65.087,322.690 64.101,322.800 63.981 C 322.910 63.860,323.630 63.329,324.400 62.800 C 325.170 62.271,325.890 61.739,326.000 61.618 C 326.110 61.497,327.280 60.589,328.600 59.600 C 329.920 58.611,331.090 57.710,331.200 57.599 C 331.310 57.487,332.840 56.310,334.600 54.984 C 337.306 52.945,349.053 44.108,349.567 43.724 C 349.658 43.656,349.658 43.534,349.567 43.453 C 349.475 43.373,344.810 46.798,339.200 51.066 M326.654 44.633 C 325.037 46.055,325.507 46.168,327.185 44.761 C 327.947 44.122,328.397 43.606,328.185 43.613 C 327.973 43.620,327.284 44.079,326.654 44.633 M106.000 46.128 C 106.000 46.306,109.057 48.798,117.300 55.340 C 119.445 57.043,121.193 58.292,121.185 58.118 C 121.167 57.730,106.000 45.754,106.000 46.128 M246.277 47.625 C 245.902 49.878,244.217 52.011,241.909 53.153 C 240.969 53.619,240.480 54.000,240.822 54.000 C 243.226 54.001,247.029 49.423,246.717 46.903 C 246.608 46.018,246.521 46.161,246.277 47.625 M318.600 50.800 C 315.133 53.440,312.426 55.600,312.584 55.600 C 312.906 55.600,325.200 46.395,325.200 46.154 C 325.200 45.806,324.640 46.200,318.600 50.800 M71.509 48.439 C 70.551 49.155,69.936 49.238,66.446 49.127 C 64.261 49.057,62.558 49.135,62.661 49.300 C 63.201 50.169,70.748 49.606,71.878 48.613 C 73.236 47.418,73.016 47.315,71.509 48.439 M96.012 54.282 C 96.019 54.457,96.871 55.230,97.905 56.000 C 99.782 57.398,100.636 58.069,101.980 59.200 C 102.373 59.530,103.284 60.250,104.006 60.800 C 104.727 61.350,107.766 63.760,110.759 66.155 C 113.752 68.551,116.425 70.688,116.700 70.904 C 116.975 71.121,117.200 71.203,117.200 71.088 C 117.200 70.898,110.604 65.550,99.900 57.058 C 97.755 55.357,96.006 54.108,96.012 54.282 M236.400 54.400 L 233.800 54.662 236.400 54.725 C 237.830 54.759,239.270 54.613,239.600 54.400 C 240.133 54.055,240.133 54.019,239.600 54.075 C 239.270 54.110,237.830 54.256,236.400 54.400 M226.800 55.200 C 224.748 55.632,227.055 55.646,229.800 55.218 L 231.800 54.907 230.000 54.906 C 229.010 54.906,227.570 55.038,226.800 55.200 M222.200 56.000 L 221.000 56.305 222.200 56.325 C 222.860 56.335,223.760 56.189,224.200 56.000 L 225.000 55.656 224.200 55.675 C 223.760 55.686,222.860 55.832,222.200 56.000 M310.505 56.925 C 309.793 57.406,309.208 57.944,309.205 58.120 C 309.202 58.297,309.875 57.944,310.700 57.337 C 311.525 56.729,312.275 56.180,312.367 56.116 C 312.458 56.052,312.368 56.011,312.167 56.025 C 311.965 56.039,311.217 56.444,310.505 56.925 M218.800 56.800 L 217.800 57.120 218.800 57.154 C 219.350 57.173,220.070 57.013,220.400 56.800 C 221.164 56.306,220.342 56.306,218.800 56.800 M214.700 58.007 C 213.434 58.423,211.724 59.066,210.900 59.436 C 206.360 61.472,202.405 63.468,200.928 64.468 C 200.008 65.091,199.151 65.600,199.022 65.600 C 198.615 65.600,196.010 67.388,196.005 67.672 C 196.002 67.821,197.845 66.822,200.100 65.452 C 204.533 62.757,208.331 60.860,212.600 59.209 C 213.040 59.039,213.903 58.697,214.519 58.450 C 215.134 58.202,215.979 58.000,216.395 58.000 C 216.812 58.000,217.264 57.820,217.400 57.600 C 217.729 57.068,217.409 57.116,214.700 58.007 M123.200 59.930 C 124.189 60.812,125.076 61.457,125.170 61.363 C 125.350 61.184,124.610 60.549,122.600 59.156 C 121.940 58.699,122.210 59.047,123.200 59.930 M307.185 59.629 L 305.800 60.858 307.300 59.781 C 308.626 58.830,309.057 58.400,308.685 58.400 C 308.622 58.400,307.947 58.953,307.185 59.629 M62.494 74.100 L 62.589 87.400 62.700 74.420 C 62.784 64.652,62.934 61.363,63.306 61.126 C 63.654 60.905,63.593 60.810,63.100 60.806 C 62.445 60.800,62.406 61.662,62.494 74.100 M303.985 62.032 L 302.600 63.263 303.888 62.413 C 305.030 61.659,305.893 60.800,305.508 60.800 C 305.432 60.800,304.747 61.354,303.985 62.032 M125.740 61.903 C 125.896 62.156,126.591 62.767,127.284 63.260 C 127.977 63.754,128.417 63.950,128.260 63.697 C 128.104 63.444,127.409 62.833,126.716 62.340 C 126.023 61.846,125.583 61.650,125.740 61.903 M71.462 64.600 C 71.596 65.480,71.772 66.275,71.853 66.367 C 72.156 66.710,71.929 64.568,71.581 63.800 C 71.329 63.242,71.293 63.485,71.462 64.600 M298.753 65.906 C 296.857 67.388,293.582 69.860,291.476 71.400 C 289.369 72.940,287.635 74.337,287.623 74.504 C 287.598 74.836,288.450 74.222,296.554 68.065 C 301.281 64.473,302.815 63.181,302.324 63.206 C 302.256 63.210,300.649 64.425,298.753 65.906 M130.039 65.246 C 130.830 65.991,132.900 67.705,134.639 69.056 C 136.378 70.406,138.745 72.266,139.900 73.190 C 141.055 74.113,142.000 74.782,142.000 74.677 C 142.000 74.499,134.479 68.402,130.400 65.274 L 128.600 63.893 130.039 65.246 M238.200 66.017 C 236.748 66.292,236.822 66.317,239.000 66.282 L 241.400 66.244 241.614 73.222 L 241.829 80.200 241.914 73.533 C 242.025 64.913,242.196 65.259,238.200 66.017 M227.000 66.842 C 224.394 67.295,221.807 68.109,224.000 67.785 C 224.770 67.672,227.200 67.334,229.400 67.034 C 232.634 66.594,232.979 66.490,231.200 66.492 C 229.990 66.493,228.100 66.650,227.000 66.842 M72.046 68.000 C 72.065 68.330,72.224 69.050,72.400 69.600 L 72.720 70.600 72.754 69.600 C 72.773 69.050,72.613 68.330,72.400 68.000 C 72.055 67.467,72.016 67.467,72.046 68.000 M218.228 69.217 C 214.741 70.513,207.707 73.903,207.368 74.452 C 207.250 74.643,209.099 73.821,211.477 72.627 C 213.855 71.433,217.238 69.980,218.996 69.398 C 220.754 68.817,222.269 68.264,222.363 68.171 C 222.817 67.716,221.094 68.153,218.228 69.217 M314.385 70.032 L 313.000 71.263 314.288 70.413 C 315.430 69.659,316.293 68.800,315.908 68.800 C 315.832 68.800,315.147 69.354,314.385 70.032 M117.600 71.332 C 117.600 71.517,123.083 75.956,123.819 76.366 C 124.515 76.754,122.347 74.866,119.900 72.952 C 118.635 71.963,117.600 71.233,117.600 71.332 M311.185 72.432 L 309.800 73.663 311.088 72.813 C 312.230 72.059,313.093 71.200,312.708 71.200 C 312.632 71.200,311.947 71.754,311.185 72.432 M73.038 73.400 C 73.370 75.384,73.602 75.704,73.594 74.167 C 73.591 73.525,73.404 72.730,73.179 72.400 C 72.886 71.970,72.846 72.254,73.038 73.400 M308.000 74.835 L 306.600 76.048 308.095 75.124 C 308.917 74.616,309.592 74.065,309.595 73.900 C 309.602 73.464,309.538 73.502,308.000 74.835 M142.700 75.241 C 143.551 76.332,148.000 79.678,148.000 79.227 C 148.000 78.992,147.865 78.800,147.700 78.800 C 147.535 78.799,146.920 78.394,146.334 77.900 C 143.277 75.321,142.079 74.444,142.700 75.241 M285.705 75.725 C 284.993 76.206,284.408 76.747,284.405 76.927 C 284.399 77.288,286.635 75.790,287.012 75.181 C 287.334 74.660,287.196 74.717,285.705 75.725 M200.600 78.654 C 193.269 83.680,191.708 85.278,193.216 86.210 C 193.483 86.375,193.544 86.117,193.387 85.490 C 193.096 84.332,193.820 83.700,200.800 79.015 C 205.850 75.626,205.895 75.592,205.367 75.618 C 205.165 75.629,203.020 76.994,200.600 78.654 M73.838 77.800 C 74.170 79.784,74.402 80.104,74.394 78.567 C 74.391 77.925,74.204 77.130,73.979 76.800 C 73.686 76.370,73.646 76.654,73.838 77.800 M301.200 79.932 C 292.157 86.827,278.924 96.892,274.500 100.241 C 272.025 102.114,270.000 103.748,270.000 103.872 C 270.000 103.996,270.225 103.921,270.500 103.705 C 270.775 103.489,273.610 101.354,276.800 98.962 C 279.990 96.569,282.690 94.515,282.800 94.397 C 282.910 94.279,286.330 91.675,290.400 88.611 C 294.470 85.546,298.880 82.207,300.200 81.191 C 301.520 80.174,303.469 78.680,304.531 77.871 C 305.592 77.062,306.312 76.406,306.131 76.412 C 305.949 76.419,303.730 78.003,301.200 79.932 M125.271 77.713 C 125.562 77.995,126.430 78.667,127.200 79.206 C 127.970 79.745,129.050 80.579,129.600 81.060 C 132.143 83.284,136.618 86.710,136.776 86.555 C 136.873 86.459,136.539 86.093,136.035 85.739 C 135.531 85.386,134.101 84.255,132.859 83.226 C 127.920 79.136,123.218 75.720,125.271 77.713 M280.800 79.524 C 279.150 80.792,275.190 83.794,272.000 86.195 C 265.342 91.206,263.604 92.594,264.278 92.363 C 264.871 92.161,284.000 77.627,284.000 77.380 C 284.000 77.075,283.886 77.152,280.800 79.524 M148.400 79.707 C 148.400 79.904,151.294 82.269,159.700 88.940 C 161.845 90.643,163.594 91.892,163.588 91.718 C 163.581 91.543,162.729 90.770,161.695 90.000 C 160.661 89.230,159.452 88.293,159.008 87.918 C 158.563 87.543,157.549 86.733,156.752 86.118 C 155.956 85.503,153.976 83.935,152.352 82.634 C 148.447 79.504,148.400 79.470,148.400 79.707 M74.672 82.200 C 74.799 83.300,74.969 84.275,75.051 84.367 C 75.332 84.682,75.120 82.199,74.780 81.200 C 74.551 80.526,74.516 80.851,74.672 82.200 M241.260 82.264 C 241.205 83.053,240.146 86.645,239.391 88.600 C 239.180 89.146,239.213 89.273,239.495 89.000 C 240.231 88.286,241.658 83.628,241.486 82.499 C 241.362 81.678,241.305 81.618,241.260 82.264 M75.438 86.600 C 75.770 88.584,76.002 88.904,75.994 87.367 C 75.991 86.725,75.804 85.930,75.579 85.600 C 75.286 85.170,75.246 85.454,75.438 86.600 M137.200 86.932 C 137.200 87.030,138.505 88.150,140.100 89.421 C 143.985 92.518,144.000 92.529,144.000 92.285 C 144.000 92.169,142.790 91.112,141.311 89.937 C 137.885 87.214,137.200 86.713,137.200 86.932 M62.000 88.786 C 62.000 89.072,61.325 89.954,60.500 90.747 C 59.622 91.591,59.409 91.926,59.987 91.555 C 61.228 90.756,62.635 88.902,62.273 88.540 C 62.123 88.390,62.000 88.500,62.000 88.786 M76.268 91.000 C 76.571 92.977,76.802 93.314,76.794 91.767 C 76.791 91.125,76.616 90.330,76.405 90.000 C 76.145 89.591,76.101 89.910,76.268 91.000 M237.873 91.312 C 234.686 96.749,228.802 100.920,221.971 102.583 C 220.617 102.913,220.189 103.128,220.834 103.156 C 223.881 103.286,229.947 100.318,233.662 96.878 C 235.981 94.732,239.474 90.140,239.084 89.751 C 238.981 89.648,238.436 90.350,237.873 91.312 M56.500 92.265 C 56.225 92.376,56.000 92.654,56.000 92.882 C 56.000 93.165,56.160 93.168,56.500 92.892 C 56.775 92.669,57.360 92.398,57.800 92.289 L 58.600 92.093 57.800 92.078 C 57.360 92.070,56.775 92.154,56.500 92.265 M164.088 92.204 C 164.220 92.426,167.061 94.766,170.401 97.404 C 176.210 101.992,179.900 104.915,188.500 111.740 C 190.645 113.443,192.399 114.692,192.397 114.518 C 192.396 114.343,191.800 113.795,191.073 113.300 C 190.346 112.806,189.403 112.086,188.976 111.700 C 188.549 111.315,187.569 110.525,186.800 109.945 C 186.030 109.365,185.005 108.555,184.523 108.145 C 183.212 107.031,179.609 104.168,173.012 99.000 C 172.170 98.340,170.022 96.645,168.240 95.234 C 163.943 91.832,163.805 91.731,164.088 92.204 M196.756 93.000 C 198.149 95.010,198.784 95.750,198.963 95.570 C 199.057 95.476,198.412 94.589,197.530 93.600 C 196.647 92.610,196.299 92.340,196.756 93.000 M151.570 98.598 C 155.584 101.786,159.078 104.499,159.334 104.625 C 160.037 104.972,157.290 102.580,154.802 100.679 C 153.593 99.756,150.872 97.605,148.754 95.900 C 146.637 94.195,144.762 92.800,144.587 92.800 C 144.413 92.800,147.555 95.409,151.570 98.598 M77.293 96.400 C 77.293 97.170,77.375 97.485,77.476 97.100 C 77.576 96.715,77.576 96.085,77.476 95.700 C 77.375 95.315,77.293 95.630,77.293 96.400 M258.905 96.125 C 258.193 96.606,257.608 97.144,257.605 97.320 C 257.602 97.497,258.230 97.160,259.000 96.573 C 259.770 95.986,260.400 95.436,260.400 95.353 C 260.400 95.127,260.319 95.169,258.905 96.125 M201.644 98.208 C 203.651 99.818,208.590 102.415,209.554 102.368 C 210.096 102.342,210.104 102.302,209.600 102.120 C 207.522 101.371,203.752 99.364,202.207 98.184 C 199.832 96.371,199.377 96.391,201.644 98.208 M255.585 98.832 L 254.200 100.063 255.488 99.213 C 256.630 98.459,257.493 97.600,257.108 97.600 C 257.032 97.600,256.347 98.154,255.585 98.832 M77.882 99.800 C 78.009 100.900,78.177 101.875,78.256 101.967 C 78.555 102.314,78.328 99.364,77.997 98.600 C 77.774 98.085,77.733 98.513,77.882 99.800 M251.200 102.013 C 249.770 103.117,248.330 104.243,248.000 104.515 C 247.670 104.788,246.770 105.454,246.000 105.995 C 245.230 106.536,244.251 107.298,243.825 107.689 C 243.398 108.080,242.909 108.400,242.739 108.400 C 242.568 108.400,242.218 108.805,241.962 109.300 C 241.523 110.148,241.563 110.141,242.648 109.170 C 243.282 108.603,245.670 106.713,247.955 104.970 C 252.562 101.455,254.301 100.030,254.000 100.016 C 253.890 100.011,252.630 100.910,251.200 102.013 M78.682 104.200 C 78.809 105.300,78.977 106.275,79.056 106.367 C 79.355 106.714,79.128 103.764,78.797 103.000 C 78.574 102.485,78.533 102.913,78.682 104.200 M211.000 102.800 C 211.440 102.989,212.340 103.135,213.000 103.125 L 214.200 103.105 213.000 102.800 C 212.340 102.632,211.440 102.486,211.000 102.475 L 210.200 102.456 211.000 102.800 M216.105 103.487 C 216.714 103.579,217.614 103.577,218.105 103.482 C 218.597 103.387,218.100 103.311,217.000 103.314 C 215.900 103.317,215.497 103.395,216.105 103.487 M267.086 105.852 C 265.829 106.849,264.800 107.762,264.800 107.881 C 264.800 108.000,265.025 107.926,265.300 107.716 C 266.937 106.466,269.425 104.593,269.567 104.504 C 269.658 104.447,269.652 104.319,269.552 104.219 C 269.453 104.120,268.343 104.854,267.086 105.852 M160.000 105.029 C 160.000 105.311,160.417 105.679,162.500 107.233 C 164.263 108.549,163.768 107.834,161.800 106.221 C 160.810 105.410,160.000 104.874,160.000 105.029 M164.015 108.299 C 164.023 108.465,165.212 109.500,166.658 110.600 C 168.104 111.700,169.492 112.780,169.743 113.000 C 169.994 113.220,171.460 114.400,173.000 115.622 C 174.540 116.845,177.708 119.365,180.040 121.222 C 184.909 125.102,186.149 126.081,187.753 127.314 C 188.388 127.801,189.378 128.605,189.953 129.100 C 190.529 129.594,191.250 129.999,191.556 130.000 C 191.862 130.000,191.490 129.578,190.729 129.062 C 189.969 128.546,185.061 124.721,179.823 120.562 C 174.585 116.403,168.882 111.875,167.150 110.499 C 165.417 109.123,164.007 108.133,164.015 108.299 M262.785 109.232 L 261.400 110.463 262.688 109.613 C 263.830 108.859,264.693 108.000,264.308 108.000 C 264.232 108.000,263.547 108.554,262.785 109.232 M56.000 108.712 C 56.000 109.234,57.891 109.842,58.285 109.448 C 58.422 109.312,58.179 109.200,57.747 109.200 C 57.314 109.200,56.744 108.984,56.480 108.720 C 56.115 108.355,56.000 108.353,56.000 108.712 M79.632 109.069 C 79.601 109.905,80.099 112.651,80.816 115.600 C 81.090 116.725,81.111 116.607,80.925 115.000 C 80.613 112.302,79.671 107.984,79.632 109.069 M60.262 110.656 C 60.956 111.285,61.716 112.160,61.950 112.600 C 62.184 113.040,62.381 113.199,62.388 112.954 C 62.406 112.294,60.867 110.460,59.869 109.954 C 59.291 109.660,59.423 109.896,60.262 110.656 M257.200 113.337 C 255.110 114.932,251.713 117.531,249.651 119.112 C 247.590 120.693,245.717 121.872,245.490 121.732 C 245.249 121.583,245.197 121.672,245.366 121.945 C 245.525 122.202,245.868 122.291,246.128 122.141 C 246.844 121.729,257.725 113.504,258.315 112.929 C 258.598 112.654,259.363 112.113,260.015 111.728 C 260.667 111.343,261.200 110.886,261.200 110.714 C 261.200 110.266,261.357 110.163,257.200 113.337 M231.040 113.800 C 231.416 114.680,232.147 116.570,232.665 118.000 C 233.183 119.430,233.499 120.006,233.367 119.280 C 233.085 117.723,231.298 113.175,230.744 112.600 C 230.532 112.380,230.665 112.920,231.040 113.800 M225.400 113.600 C 224.896 113.817,224.822 113.944,225.200 113.944 C 225.530 113.944,226.160 113.789,226.600 113.600 C 227.104 113.383,227.178 113.256,226.800 113.256 C 226.470 113.256,225.840 113.411,225.400 113.600 M211.200 114.379 C 212.186 114.716,215.490 114.941,215.167 114.650 C 215.075 114.568,213.920 114.396,212.600 114.269 C 211.045 114.120,210.552 114.158,211.200 114.379 M220.200 114.400 L 218.600 114.686 220.200 114.696 C 221.080 114.701,222.340 114.568,223.000 114.400 L 224.200 114.095 223.000 114.104 C 222.340 114.109,221.080 114.242,220.200 114.400 M62.505 127.400 C 62.478 134.660,62.579 140.910,62.728 141.288 C 62.980 141.926,62.934 122.004,62.671 116.600 C 62.607 115.280,62.532 120.140,62.505 127.400 M194.400 116.258 C 199.005 120.133,199.995 121.433,200.067 123.699 C 200.126 125.529,200.155 125.598,200.295 124.238 C 200.596 121.308,199.690 119.986,195.001 116.519 C 193.050 115.076,192.937 115.028,194.400 116.258 M243.600 115.710 C 243.600 116.283,243.787 116.868,244.016 117.010 C 244.289 117.179,244.338 116.877,244.160 116.134 C 243.792 114.601,243.600 114.456,243.600 115.710 M81.287 118.400 C 81.283 118.950,81.424 119.850,81.600 120.400 C 82.031 121.744,82.031 120.292,81.600 118.600 C 81.326 117.522,81.294 117.502,81.287 118.400 M244.446 118.800 C 244.427 119.350,244.587 120.070,244.800 120.400 C 245.294 121.164,245.294 120.342,244.800 118.800 L 244.480 117.800 244.446 118.800 M210.846 119.600 C 210.827 120.150,210.987 120.870,211.200 121.200 C 211.694 121.964,211.694 121.142,211.200 119.600 L 210.880 118.600 210.846 119.600 M233.680 121.600 C 233.680 122.150,233.824 123.050,234.000 123.600 L 234.320 124.600 234.320 123.600 C 234.320 123.050,234.176 122.150,234.000 121.600 L 233.680 120.600 233.680 121.600 M82.040 122.633 C 82.062 123.275,82.233 124.250,82.420 124.800 C 82.649 125.474,82.684 125.149,82.528 123.800 C 82.269 121.550,81.979 120.859,82.040 122.633 M234.600 133.400 C 234.600 138.240,234.719 141.300,234.865 140.200 C 235.212 137.582,235.215 128.696,234.870 126.400 C 234.722 125.410,234.600 128.560,234.600 133.400 M211.000 126.800 C 210.848 127.491,210.814 128.147,210.924 128.257 C 211.034 128.367,211.248 127.891,211.400 127.200 C 211.552 126.509,211.586 125.853,211.476 125.743 C 211.366 125.633,211.152 126.109,211.000 126.800 M82.840 127.033 C 82.862 127.675,83.033 128.650,83.220 129.200 C 83.449 129.874,83.484 129.549,83.328 128.200 C 83.069 125.950,82.779 125.259,82.840 127.033 M198.839 127.336 C 197.831 128.968,195.873 129.995,193.740 130.012 C 192.482 130.022,192.331 130.100,192.913 130.439 C 194.286 131.238,198.559 129.145,199.627 127.149 C 200.383 125.737,199.733 125.891,198.839 127.336 M83.668 131.800 C 83.662 132.240,83.811 132.960,84.000 133.400 C 84.438 134.419,84.438 133.368,84.000 132.000 C 83.743 131.196,83.677 131.157,83.668 131.800 M206.933 135.310 C 204.911 137.613,201.351 139.982,199.053 140.553 C 198.422 140.710,198.013 140.946,198.144 141.077 C 198.533 141.466,201.756 140.073,203.752 138.654 C 205.386 137.493,208.778 134.000,208.273 134.000 C 208.168 134.000,207.565 134.590,206.933 135.310 M84.400 134.744 C 84.400 135.118,89.546 140.204,89.696 139.978 C 89.760 139.880,88.595 138.600,87.107 137.133 C 85.618 135.665,84.400 134.591,84.400 134.744 M91.200 141.307 C 91.200 141.414,93.315 143.451,95.900 145.834 C 98.485 148.217,100.060 149.572,99.400 148.845 C 97.925 147.222,91.200 141.039,91.200 141.307 M191.821 141.735 C 191.419 142.029,191.190 142.524,191.313 142.835 C 191.479 143.255,191.545 143.222,191.568 142.708 C 191.604 141.922,192.453 141.663,195.600 141.478 L 197.800 141.348 195.176 141.274 C 193.510 141.227,192.286 141.395,191.821 141.735 M233.800 144.400 C 233.645 145.528,233.608 146.541,233.718 146.651 C 233.828 146.761,234.045 145.928,234.200 144.800 C 234.355 143.672,234.392 142.659,234.282 142.549 C 234.172 142.439,233.955 143.272,233.800 144.400 M63.228 143.476 C 63.213 143.958,63.380 144.464,63.600 144.600 C 64.073 144.892,64.073 144.501,63.600 143.400 C 63.269 142.629,63.255 142.631,63.228 143.476 M189.058 147.303 C 188.048 149.340,186.424 152.220,185.449 153.703 C 184.475 155.186,183.795 156.398,183.939 156.397 C 184.498 156.389,189.238 148.332,190.585 145.100 C 191.709 142.406,190.935 143.521,189.058 147.303 M232.982 148.659 C 232.833 149.507,232.372 151.265,231.956 152.566 C 231.038 155.439,230.980 158.493,231.820 159.774 C 232.583 160.939,235.677 163.066,235.343 162.196 C 235.217 161.868,234.899 161.600,234.636 161.600 C 232.119 161.600,231.008 157.179,232.374 152.600 C 233.083 150.224,233.625 147.491,233.426 147.293 C 233.330 147.197,233.130 147.812,232.982 148.659 M100.838 150.212 C 100.878 150.630,111.721 160.804,111.920 160.610 C 112.021 160.512,108.069 156.631,106.614 155.400 C 106.354 155.180,104.939 153.835,103.470 152.412 C 102.002 150.988,100.817 149.998,100.838 150.212 M68.847 153.900 C 69.395 154.505,71.184 156.529,72.822 158.398 C 76.547 162.649,76.690 162.800,76.982 162.800 C 77.114 162.800,75.203 160.550,72.737 157.800 C 70.270 155.050,68.162 152.800,68.051 152.800 C 67.941 152.800,68.299 153.295,68.847 153.900 M182.175 158.268 C 181.559 159.076,181.259 159.611,181.509 159.456 C 182.021 159.140,183.753 156.800,183.475 156.800 C 183.376 156.800,182.791 157.461,182.175 158.268 M181.215 162.576 C 181.977 163.443,182.780 164.365,183.000 164.626 C 184.005 165.814,204.045 185.941,203.930 185.646 C 203.858 185.462,198.407 179.842,191.815 173.156 C 185.224 166.470,180.454 161.709,181.215 162.576 M118.580 166.883 C 121.451 169.678,123.963 171.973,124.161 171.983 C 124.360 171.992,124.090 171.627,123.561 171.171 C 123.033 170.715,121.250 169.059,119.600 167.491 C 117.950 165.923,115.871 164.002,114.980 163.220 C 114.088 162.439,115.708 164.087,118.580 166.883 M78.718 165.100 C 79.594 166.145,80.730 167.360,81.242 167.800 C 81.754 168.240,81.122 167.385,79.837 165.900 C 78.553 164.415,77.418 163.200,77.314 163.200 C 77.210 163.200,77.842 164.055,78.718 165.100 M82.400 169.049 C 82.400 169.256,84.227 171.367,89.071 176.760 C 89.550 177.293,90.990 178.949,92.271 180.440 C 93.552 181.930,94.747 183.161,94.927 183.175 C 95.107 183.189,94.002 181.805,92.471 180.100 C 90.939 178.395,88.047 175.156,86.043 172.902 C 84.040 170.648,82.400 168.914,82.400 169.049 M169.800 170.622 C 168.920 171.388,167.435 172.506,166.501 173.107 C 165.566 173.708,164.801 174.357,164.801 174.549 C 164.800 174.741,165.025 174.727,165.300 174.517 C 165.575 174.308,166.970 173.257,168.400 172.182 C 169.830 171.107,171.060 170.086,171.133 169.913 C 171.451 169.168,172.429 169.740,174.191 171.700 C 176.571 174.349,191.313 189.223,191.430 189.095 C 191.622 188.887,172.173 169.179,171.800 169.204 C 171.580 169.218,170.680 169.857,169.800 170.622 M126.786 174.504 C 127.989 175.767,129.122 176.800,129.305 176.800 C 129.649 176.800,128.849 175.984,126.171 173.604 C 125.221 172.759,125.464 173.115,126.786 174.504 M163.024 175.413 C 162.596 175.736,162.427 176.000,162.647 176.000 C 162.867 176.000,163.396 175.736,163.824 175.413 C 164.251 175.090,164.420 174.825,164.200 174.825 C 163.980 174.825,163.451 175.090,163.024 175.413 M221.727 176.313 C 221.467 176.478,222.324 176.613,223.631 176.613 C 224.939 176.613,225.691 176.488,225.304 176.335 C 224.349 175.957,222.307 175.944,221.727 176.313 M217.968 179.877 C 216.581 181.595,213.932 184.710,212.080 186.800 L 208.712 190.600 212.200 187.000 C 214.119 185.020,216.502 182.320,217.498 181.000 C 218.493 179.680,219.669 178.280,220.110 177.890 C 220.552 177.499,220.818 177.084,220.701 176.967 C 220.584 176.851,219.354 178.160,217.968 179.877 M130.150 177.519 C 130.306 177.771,129.945 178.222,129.312 178.565 C 128.700 178.897,128.405 179.175,128.656 179.184 C 129.548 179.215,130.978 177.757,130.403 177.402 C 130.062 177.191,129.973 177.232,130.150 177.519 M159.400 177.683 C 157.651 178.686,157.609 179.226,159.105 181.478 C 160.717 183.907,161.317 184.345,159.956 182.100 C 158.066 178.983,158.100 179.225,159.400 178.174 C 160.688 177.133,160.688 176.944,159.400 177.683 M125.901 179.965 C 125.076 180.350,124.266 180.804,124.101 180.975 C 123.770 181.315,126.376 180.286,127.496 179.634 C 128.628 178.975,127.535 179.202,125.901 179.965 M121.221 182.430 C 118.475 184.233,118.298 184.695,121.000 183.005 C 123.723 181.301,123.874 181.188,123.367 181.231 C 123.165 181.248,122.199 181.788,121.221 182.430 M96.200 184.775 C 96.640 185.335,97.094 185.885,97.209 185.997 C 97.323 186.108,99.325 188.360,101.657 191.000 C 107.499 197.614,107.326 197.477,108.178 196.178 C 108.555 195.602,108.774 195.040,108.663 194.930 C 108.553 194.820,108.213 195.206,107.908 195.788 L 107.353 196.847 105.577 194.912 C 104.599 193.847,102.540 191.544,101.000 189.794 C 97.900 186.270,94.951 183.187,96.200 184.775 M145.200 184.634 C 144.530 185.050,144.464 185.163,145.000 184.976 C 146.534 184.441,147.600 184.309,147.609 184.653 C 147.614 184.844,147.993 185.450,148.452 186.000 L 149.287 187.000 148.463 185.600 C 147.525 184.004,146.636 183.741,145.200 184.634 M160.809 184.300 C 160.814 184.465,161.185 185.050,161.633 185.600 L 162.448 186.600 161.814 185.300 C 161.211 184.065,160.789 183.645,160.809 184.300 M117.576 184.913 C 115.290 186.698,114.697 187.229,114.839 187.365 C 114.928 187.450,115.810 186.818,116.800 185.961 C 118.470 184.515,118.997 183.803,117.576 184.913 M133.541 189.383 C 125.624 192.804,120.884 196.230,119.129 199.800 C 118.912 200.240,119.245 199.972,119.868 199.205 C 122.340 196.160,127.967 191.600,129.252 191.600 C 129.432 191.600,130.709 191.091,132.090 190.469 C 133.470 189.847,135.680 188.919,137.000 188.407 C 139.301 187.514,140.608 186.770,139.780 186.825 C 139.571 186.839,136.763 187.990,133.541 189.383 M149.750 188.200 C 150.074 188.860,150.631 189.760,150.989 190.200 C 151.597 190.948,151.601 190.922,151.050 189.800 C 150.726 189.140,150.169 188.240,149.811 187.800 C 149.203 187.052,149.199 187.078,149.750 188.200 M163.200 188.208 C 163.200 188.513,165.181 191.600,165.377 191.600 C 165.469 191.600,165.091 190.790,164.538 189.800 C 163.619 188.156,163.200 187.658,163.200 188.208 M195.308 193.507 C 200.162 198.380,200.197 197.945,194.669 201.242 C 193.167 202.138,192.029 202.963,192.141 203.074 C 192.625 203.558,199.954 198.346,199.705 197.696 C 199.418 196.949,192.163 189.600,191.713 189.600 C 191.549 189.600,193.167 191.358,195.308 193.507 M110.575 191.868 C 109.959 192.676,109.659 193.211,109.909 193.056 C 110.421 192.740,112.153 190.400,111.875 190.400 C 111.776 190.400,111.191 191.061,110.575 191.868 M152.159 192.300 C 152.889 193.684,153.970 195.099,153.987 194.691 C 154.002 194.341,151.977 191.200,151.737 191.200 C 151.650 191.200,151.840 191.695,152.159 192.300 M166.145 193.020 C 166.471 193.691,167.676 195.761,168.822 197.620 C 169.969 199.479,171.220 201.540,171.604 202.200 C 175.708 209.268,176.630 210.482,177.542 210.024 C 178.404 209.591,180.007 208.935,180.957 208.627 C 181.374 208.492,181.622 208.289,181.509 208.176 C 181.396 208.063,180.384 208.333,179.261 208.776 C 176.726 209.775,176.481 209.680,174.998 207.122 C 172.933 203.558,172.180 202.311,169.655 198.276 C 168.305 196.118,167.196 194.228,167.191 194.076 C 167.186 193.924,166.815 193.350,166.367 192.800 L 165.552 191.800 166.145 193.020 M154.387 195.899 C 154.629 196.394,155.807 198.407,157.004 200.372 C 160.514 206.132,161.222 207.359,161.464 208.100 C 161.590 208.485,161.860 208.800,162.064 208.800 C 162.421 208.800,161.022 206.116,159.528 203.938 C 159.128 203.354,158.800 202.757,158.800 202.610 C 158.800 202.464,158.299 201.592,157.688 200.672 C 157.076 199.752,156.348 198.550,156.070 198.000 C 155.792 197.450,155.200 196.550,154.755 196.000 C 154.029 195.103,153.992 195.092,154.387 195.899 M117.639 202.324 C 116.539 204.479,115.606 207.221,115.638 208.200 C 115.653 208.640,116.079 207.696,116.586 206.101 C 117.092 204.507,117.812 202.736,118.185 202.166 C 118.559 201.597,118.772 201.039,118.660 200.927 C 118.548 200.814,118.088 201.443,117.639 202.324 M185.800 206.018 C 183.600 207.089,182.027 207.973,182.305 207.982 C 182.583 207.992,183.123 207.839,183.505 207.642 C 183.887 207.445,185.424 206.694,186.919 205.972 C 188.415 205.251,189.731 204.512,189.843 204.330 C 190.109 203.901,190.389 203.784,185.800 206.018 M115.069 210.356 C 114.921 211.095,114.823 212.443,114.851 213.350 C 114.892 214.702,114.963 214.530,115.244 212.400 C 115.617 209.565,115.500 208.199,115.069 210.356 M162.400 209.386 C 162.400 209.488,162.940 210.424,163.601 211.465 C 164.991 213.658,165.012 213.624,161.600 214.813 C 155.756 216.849,154.129 218.078,153.409 221.000 C 153.002 222.652,150.420 235.078,150.126 236.800 C 149.766 238.906,150.335 238.032,150.796 235.769 C 151.017 234.686,151.561 232.090,152.004 230.000 C 152.448 227.910,152.979 225.300,153.186 224.200 C 154.115 219.245,155.152 217.770,158.650 216.426 C 159.832 215.972,161.790 215.219,163.000 214.754 C 165.577 213.762,165.518 213.968,163.988 211.300 C 162.919 209.436,162.400 208.810,162.400 209.386 M114.480 287.020 C 114.418 341.659,114.510 357.950,114.880 358.320 C 115.749 359.189,124.683 358.966,125.166 358.064 C 125.528 357.387,127.200 349.995,127.200 349.070 C 127.200 347.360,126.458 350.013,125.766 354.200 C 125.657 354.860,125.366 356.075,125.120 356.900 L 124.672 358.400 119.936 358.400 L 115.200 358.400 115.141 347.900 C 115.109 342.125,114.965 310.130,114.822 276.800 L 114.561 216.200 114.480 287.020 M149.489 239.600 C 149.336 240.150,149.225 241.050,149.242 241.600 C 149.268 242.461,149.326 242.414,149.658 241.260 C 149.870 240.524,149.981 239.624,149.906 239.260 C 149.808 238.794,149.686 238.893,149.489 239.600 M148.673 243.353 C 148.523 243.745,148.416 244.546,148.436 245.133 C 148.470 246.128,148.498 246.109,148.857 244.863 C 149.273 243.419,149.123 242.182,148.673 243.353 M147.889 247.200 C 147.736 247.750,147.625 248.650,147.642 249.200 C 147.668 250.061,147.726 250.014,148.058 248.860 C 148.270 248.124,148.381 247.224,148.306 246.860 C 148.208 246.394,148.086 246.493,147.889 247.200 M147.054 251.253 C 146.953 251.774,146.651 253.211,146.384 254.447 C 146.117 255.682,145.976 256.928,146.072 257.216 C 146.168 257.503,146.575 256.171,146.977 254.256 C 147.379 252.341,147.602 250.669,147.473 250.540 C 147.344 250.411,147.156 250.732,147.054 251.253 M145.488 259.200 C 145.356 259.750,145.138 260.740,145.003 261.400 C 144.868 262.060,144.575 263.410,144.353 264.400 C 144.130 265.390,143.874 266.920,143.783 267.800 C 143.692 268.680,144.151 267.150,144.802 264.400 C 145.453 261.650,145.928 259.130,145.857 258.800 C 145.782 258.451,145.628 258.618,145.488 259.200 M143.041 270.453 C 142.932 270.974,142.752 271.940,142.640 272.600 C 142.528 273.260,142.264 274.610,142.053 275.600 C 141.843 276.590,141.467 278.390,141.218 279.600 C 140.969 280.810,140.586 282.610,140.366 283.600 C 140.147 284.590,139.798 286.300,139.590 287.400 C 139.383 288.500,139.050 290.120,138.850 291.000 C 138.650 291.880,138.114 294.400,137.658 296.600 C 137.203 298.800,136.002 304.560,134.989 309.400 C 133.057 318.635,132.546 321.532,132.908 321.200 C 133.028 321.090,133.322 320.010,133.561 318.800 C 133.799 317.590,134.358 314.890,134.803 312.800 C 135.247 310.710,135.788 308.100,136.004 307.000 C 136.221 305.900,136.579 304.190,136.800 303.200 C 137.021 302.210,137.398 300.410,137.638 299.200 C 137.878 297.990,138.216 296.280,138.391 295.400 C 138.778 293.443,140.354 285.992,140.844 283.800 C 141.041 282.920,141.372 281.300,141.579 280.200 C 141.786 279.100,142.146 277.300,142.378 276.200 C 143.417 271.269,143.641 269.908,143.447 269.714 C 143.333 269.599,143.150 269.932,143.041 270.453 M132.235 323.000 C 132.072 323.880,131.772 325.122,131.569 325.760 C 131.366 326.398,131.218 327.388,131.241 327.960 C 131.264 328.532,131.629 327.564,132.053 325.809 C 132.477 324.054,132.758 322.344,132.677 322.009 C 132.597 321.674,132.398 322.120,132.235 323.000 M130.673 330.153 C 130.523 330.545,130.416 331.346,130.436 331.933 C 130.470 332.928,130.498 332.909,130.857 331.663 C 131.273 330.219,131.123 328.982,130.673 330.153 M129.854 334.053 C 129.753 334.574,129.463 336.080,129.211 337.400 C 128.958 338.720,128.583 340.353,128.376 341.028 C 128.169 341.704,128.000 342.751,128.000 343.355 C 128.000 343.959,127.809 344.809,127.576 345.245 C 127.343 345.680,127.208 346.614,127.276 347.318 C 127.351 348.095,128.004 345.631,128.934 341.067 C 129.777 336.924,130.371 333.438,130.253 333.320 C 130.135 333.202,129.956 333.532,129.854 334.053 M114.583 370.500 C 114.471 370.792,114.434 373.994,114.500 377.615 L 114.621 384.200 114.711 377.300 L 114.800 370.400 118.205 370.400 L 121.609 370.400 121.375 371.900 C 121.246 372.725,121.327 373.850,121.556 374.400 C 121.896 375.216,121.957 374.923,121.886 372.800 L 121.800 370.200 118.293 370.084 C 115.664 369.998,114.736 370.101,114.583 370.500 M122.320 376.250 C 122.802 377.152,123.938 378.203,124.164 377.957 C 124.243 377.871,123.763 377.268,123.096 376.617 C 122.261 375.803,122.019 375.689,122.320 376.250 M139.236 382.969 C 139.328 383.062,141.923 383.968,145.002 384.983 C 151.255 387.045,152.468 387.566,152.163 388.060 C 152.047 388.247,152.133 388.400,152.353 388.400 C 153.304 388.400,153.052 387.703,151.876 387.081 C 150.065 386.122,138.688 382.422,139.236 382.969 M114.812 384.694 C 114.805 384.965,115.295 385.694,115.900 386.313 C 116.505 386.932,116.710 387.070,116.355 386.619 C 116.000 386.169,115.510 385.440,115.267 385.000 C 115.023 384.560,114.819 384.422,114.812 384.694 M117.800 388.000 C 117.936 388.220,118.442 388.387,118.924 388.372 C 119.769 388.345,119.771 388.331,119.000 388.000 C 117.899 387.527,117.508 387.527,117.800 388.000 " stroke="none" fill="#573a3d" fill-rule="evenodd"></path></g></svg>